<?xml version="1.0" standalone="no"?>
<!DOCTYPE svg PUBLIC "-//W3C//DTD SVG 1.1//EN" "http://www.w3.org/Graphics/SVG/1.1/DTD/svg11.dtd" >
<svg xmlns="http://www.w3.org/2000/svg">
<metadata></metadata>
<defs>
<font id="festusregular" horiz-adv-x="828" >
<font-face units-per-em="2048" ascent="1638" descent="-410" />
<missing-glyph horiz-adv-x="746" />
<glyph horiz-adv-x="2048" />
<glyph horiz-adv-x="2048" />
<glyph unicode="&#xd;" horiz-adv-x="1024" />
<glyph unicode=" "  horiz-adv-x="746" />
<glyph unicode="&#x09;" horiz-adv-x="746" />
<glyph unicode="&#xa0;" horiz-adv-x="746" />
<glyph unicode="!" horiz-adv-x="391" d="M108 63l14 39l25 22l110 -7q52 -53 62 -101q1 -14 -9 -34l-59 -39l-9 4l-85 22zM153 453q19 106 19 135q15 127 60 376q-10 34 14 138q25 113 22 149q5 14 27 105q15 63 40 98l19 82l30 26l35 -12q8 -1 15 2l3 -97q-18 -81 -68 -325q-4 -33 -17 -126q-10 -63 -35 -252 q0 -45 -26 -164q-23 -106 0 -173l5 -8l-22 -116l-41 -2l-15 25l-46 -1q-7 7 -14 22q-19 44 -5 118z" />
<glyph unicode="&#x22;" horiz-adv-x="521" d="M76 1343q0 7 7 9l11 -4l41 19l11 -2l12 -9q26 -20 33 -37q7 -10 23 -26l-4 -123q0 -3 2 -18q0 -8 -2 -19q3 -10 2 -22q-1 -15 0 -23q-8 -38 -26 -42l-41 7l-23 17q-8 4 -10 20l-1 15q-6 5 -10 12l5 42q-5 4 -10 14l12 38l-4 21v25q-5 3 -13 7l2 8q1 8 1 10q0 12 -9 25 l-2 26q-4 8 -7 10zM403 1102q25 48 31 128l-8 29l5 4q3 1 3 4q-3 10 -3 19q0 23 14 52l-9 37l35 24l46 -10l6 -13q3 -3 19 -23q1 -4 15 -27q8 -18 7 -29q-4 0 -11 -4l-8 -86q-11 -25 -11 -44q0 -7 1 -13q-10 -37 -41 -103q0 -11 -5 -24l-34 -7q-1 3 -3 4l-6 4h-25l-15 14 l2 6q-10 16 -5 58z" />
<glyph unicode="#" horiz-adv-x="1187" d="M-35 694q0 25 8 58l2 2h2q14 -4 28 -4q31 0 70 19q0 5 4 16q0 1 2 1q31 -1 73 36q16 0 43 14q3 3 4 5l1 3q56 12 214 86l29 27l7 34l-14 22q12 23 2 64q-11 42 -9 63l32 41l39 23q3 -4 11 -19l30 -19q19 -20 26 -124q1 -26 11 -47l212 45l14 93l30 124q7 10 6 18l-6 19 q27 25 27 60q0 14 -4 30q8 60 31 133q12 3 33 12l23 -1l33 -23q12 1 25 -6l9 -15q-7 -7 -7 -15q5 -20 -11 -52q-5 -41 -29.5 -122t-30.5 -124q-4 -31 -17 -79l2 -9q4 -15 19 -17q31 3 116 36l50 -17v-1q-1 -5 -5 -15l10 -27q-7 -14 -29 -19q-78 -44 -169 -60 q-19 -42 -18 -80q3 -20 -9 -65q4 -38 -2 -93q-7 -66 3 -96q41 0 156 37q3 5 11 13q22 5 67 12q35 5 58 -10l10 -22q-16 -27 -66 -43q-11 -11 -41.5 -22.5t-41.5 -22.5q-52 3 -70 -29q12 -55 10 -121q-3 -7 -6 -62q-1 -34 -62 -91q-20 -19 -52 -20q-15 0 -32 5q-8 0 -12 -5 l-3 -1l-12 12l-23 205q-4 8 -17 8l-84 -42q-8 -30 -38 -76q-55 -33 -77 -33q-12 0 -24 4q-16 10 -51 34q-38 4 -83 -12l-79 -29q-30 -11 -138 -38q-16 -8 -55.5 -9.5t-55.5 -9.5q-8 3 -49 50v8q-7 14 -15 48q-1 11 3 18l20 7l26 49q7 -3 16 -8l9 -7q4 -4 12 -7h71l34 -19 q11 4 22 7q10 3 18 -4l195 63q20 7 29 32l-3 78q-11 14 -12 37l1 46l-4 104l5 21q-7 19 -13 34q-11 5 -15 5q-27 -7 -133 -61q-3 -5 -5 -17q-14 -1 -41 -12q-67 -19 -104 -60q-31 -20 -101 -50q-10 -5 -19 -6q-20 0 -44 22q-14 20 -13 55zM543 691q8 -20 9 -53 q0 -11 -2.5 -34.5t-2.5 -34.5q0 -27 6 -45q8 -12 19 -12q7 0 15 5q4 11 12 14q23 -5 26 -4l30 86h2q3 1 11 4q3 7 4 12l34 7q3 1 3 0l9 -31q4 -14 27 -32q10 0 17 5l20 73l10 55q-3 5 -21 16q-3 45 -2 100q8 16 8 31t-8 26l5 36q-33 8 -72 -2q-56 -14 -70 -13q-12 -5 -18 -6 l-43 -17q-11 -22 -19 -140q-3 -29 -9 -46z" />
<glyph unicode="$" horiz-adv-x="847" d="M-76 808q4 12 12 33q5 7 38 79l70 41l64 21l164 60l-3 180l-18 102l-16 32q-3 10 -14 16q-3 1 -8 6v12l11 11q1 35 30 63q14 3 34 13l37 -13l4 -18l31 -49q-8 -26 -8 -47q0 -22 10 -38l-6 -23q10 -29 10 -123v-51q0 -26 14 -49l232 41l8 167q-14 25 -29 98q-14 68 -31 93 q-3 3 -10 8l-4 11q5 19 45 74q33 11 49 -3l47 -38l9 -90l6 -15q-4 -20 5 -41l4 -96l11 -19l14 -158l104 -33v-16q-10 -7 -10 -15l-9 -20l-3 -8q-8 1 -79 11l-3 -61l-12 -25q5 -12 5 -22q0 -7 -3 -12l-12 -42q3 -7 11 -21q4 0 5 -1q4 -35 -20 -63q3 -11 12 -18l2 -1 q5 -11 0 -27q-10 -27 -10 -30l-7 -48l-5 -34l5 -66q-4 -22 -13 -61q3 -8 0 -62q-1 -33 6 -65q-27 -105 -26 -156q4 -160 39 -201q11 -1 38 -8q11 -3 12 -12l-11 -33q-7 -8 -19 -18l-71 -12l-74 19l-15 34q3 5 3 14q-7 16 -13 94l4 105q-12 16 -26 17q-56 -22 -60 -22 q-37 -7 -99 -48l21 -37l-21 -54q-29 -11 -54 -11q-26 0 -49 9q-23 16 -24 33q-7 23 -31 31q-145 -19 -183 -16q-7 -3 -16 -3q-14 0 -39.5 7t-38.5 7l-2 1q-21 23 -16 54q5 30 23 41l36 20q8 0 12 -3q16 -26 31 -30q5 0 15 -2.5t14 -2.5q22 -1 40 0l42 2q87 5 96 28l6 57 l-12 17l11 49l5 34l-6 30q-5 0 -6 9q0 11 18 60l-6 84q-5 22 -15 42l-61 21l-22 10q-104 37 -136 73q-23 11 -48 42l-41 51q-7 8 -1 24zM63 848l15 -59q10 -19 26 -24q8 0 18 -14l6 -10l115 -49h18l11 71l1 59l6 5q7 8 5 20l-12 19l-4 73q-20 7 -45 0q-34 -10 -44 -11 l-64 -32q-37 -19 -52 -48zM322 388l13 -15v-148h15q49 12 139 51q31 8 57 38q7 4 11 19q-2 2 -3 12q-1 5 2 13l-36 83l-53 45l-30 19q-19 -4 -45 21q-14 12 -19 15l-38 -9v-39l8 -32l-8 -49zM333 729q0 -19 8 -34v-12l14 -24l100 -36l76 -44l44 -27l9 1q5 1 9 11v22 q11 18 13 46q-1 23 -1 63q18 61 18 175q0 63 -6 142q-19 4 -37 4q-30 0 -54 -14q-42 1 -138 -22q-4 -3 -14 -8l-26 -68q4 -10 11 -10l1 -15q-1 -11 -5 -23h1q4 -5 4 -11q0 -5 -12 -35q-1 -5 -5 -13q0 -7 4 -11q-14 -31 -14 -57z" />
<glyph unicode="%" horiz-adv-x="1231" d="M18 815q0 40 11 75q19 59 79 182q10 19 57 101q37 63 68 93q35 10 56 50l65 6q3 -11 15 -32q26 -11 72 -109l31 -104q-10 -54 -47 -140q-23 -12 -78 -126q-16 -15 -67 -60q-40 -37 -75 -45l-107 -26l-50 23v2q0 8 -3 13l-18 14q-10 45 -9 83zM149 874q0 -29 12 -58l15 5 q8 1 22 9l98 122l7 26q12 12 21 76q5 39 -14 70q-10 4 -18 4q-12 -5 -12 -23l-1 -3v-4q-16 -8 -44 -47l-63 -39q-1 -20 -12 -67t-11 -71zM244 105q7 55 4 78q33 60 62 184q26 53 86 155q12 10 41 68q4 8 14 22v9l191 297q7 4 17 13q7 18 69 83q20 22 54 56q11 33 53.5 88.5 t53.5 88.5l35 65q20 38 21 71l23 33q22 3 56 20l41 -8l50 -52q1 -28 0 -33q-35 -33 -114 -146q-30 -31 -85 -113q-51 -76 -87 -111l-17 -30q-26 -18 -32 -35l-88 -116l-24 -16l-30 -59q-150 -210 -239 -433q1 -27 -10 -71q-14 -51 -15 -70l-9 -116l-61 -11l-49 25 q-16 22 -11 64zM752 74q7 78 10 94q8 48 29 90q20 100 87 180q14 29 61 74l36 11q42 -4 80 15q70 -14 89 -22q45 -19 66 -60q19 -90 9 -160q-3 -22 -24.5 -61.5t-24.5 -61.5l-112 -129l-85 -54q-44 -27 -94 -34l-61 9q-18 15 -36 51q-23 49 -30 58zM900 135q8 -30 35 -30h8 l58 41q91 104 91 187q0 35 -13 71q-23 22 -58 -7q-100 -79 -121 -262z" />
<glyph unicode="&#x26;" horiz-adv-x="658" d="M-5 345l31 59l44 32q33 41 101 80l73 62l58 34q1 3 5 6l37 22q10 3 11 10q-4 26 -51 29q-40 14 -79 21q-14 3 -34 26q-30 34 -42 40q1 8 5 20l-2 20l4 34l17 27q5 3 15 15l56 55q1 3 39 20q25 19 67 55q23 53 49 129q3 8 31 137q22 98 41 119q3 0 17 6t25 5q16 -5 44 -25 l-37 -106l-48 -224l196 57l2 -15q0 -18 -15 -37q-14 -14 -26 -29l-35 -4q-4 3 -7 4q-66 -14 -214 -129q-23 -5 -34 -25q-12 -7 -18 -15q-7 -3 -27 -29l4 -25q42 -31 84 -32l43 -11q52 -20 76 -16l22 -19l3 -7q1 -5 2 -18l-19 -48q-16 -14 -57 -37q-12 -7 -40 -16l-38 -33 q-7 -5 -67 -43q-15 -10 -61 -47q-1 -4 -6 -12l-50 -41l-14 -14l-46 -60l2 -7q16 -22 81 -28q22 -8 52 -6q33 3 53 0q14 1 40 7q20 0 59.5 9.5t59 10.5t54.5 14q51 4 66 -5q1 -15 16 -40q3 -12 3 -22q0 -23 -15 -32q-34 -11 -52 -11q-10 0 -15 2q-29 -4 -53 -6q-12 3 -26 2 q23 0 -108 -16q-4 0 -41 -8q-10 -14 -17 -52q-4 -22 3 -34q-3 -8 -3 -18q1 -4 10 -37q-7 -25 -41 -59l-26 -46l-37 -18q-7 5 -8 7l-16 63q5 10 8 11q11 15 11 33q0 10 -3 19l3 12q8 11 13 16q11 8 14 37q3 38 6 43q-3 7 -3 10q3 4 7 9l-86 11q18 1 -48 10q-38 22 -52 33 q-31 23 -41 43z" />
<glyph unicode="'" horiz-adv-x="305" d="M142 1085q3 5 1 21q-1 1 -1 8q-1 25 15 93q4 18 4 34q12 10 15 55l3 56q-5 7 -15 19v16l26 41h7q14 4 20 4q23 -10 64 -34l8 -22l-17 -73v-7q0 -31 -22 -88q-11 -79 -7 -94l-4 -12l7 -11l13 -10q5 -14 6 -24q0 -18 -14 -32l-60 -9h-4z" />
<glyph unicode="(" horiz-adv-x="621" d="M8 560q3 51 2 75q8 79 24 161q10 49 44 134l54 136q4 11 32 41l1 15q25 25 29 62q16 25 39 76q10 11 28 51q10 22 26 30q5 14 13 35l3 6q25 14 48 56q22 7 34 22q35 0 114 41.5t110 44.5q15 -29 33 -37l1 -4q-22 -19 -31 -35l-49 -23l-18 -68h-2q-26 0 -36 -30l-39 -18 l-12 -20q-48 -15 -82 -71q-3 -3 -16 -10q-42 -68 -52 -86q-26 -49 -32 -94l-81 -199q3 -41 -20.5 -124t-18.5 -126q-8 -56 -8 -141q0 -68 6 -156q18 -26 50 -111q27 -74 57 -108q11 -44 56 -81l78 -26q18 -19 73 -44q14 4 31 5q23 0 50 -7q60 -15 81 -17q12 -7 18 -15l8 -9 l8 -89q-35 -14 -64 -11q-91 10 -97 8l-22 15l-61 -13q-66 8 -167 75q-26 25 -74 86q-45 42 -75 114l-53 127q-37 201 -34 283q-10 26 -7 74z" />
<glyph unicode=")" horiz-adv-x="664" d="M-41 1443l10 22q15 11 23 26l18 12q38 27 47 49q7 1 18 4q12 16 29 13q70 -16 149 -44l69 -56l82 -112q3 -31 33 -56q1 -10 19 -42q25 -25 67 -193q30 -30 48 -99q20 -81 35 -105l30 -259q-11 -22 -15 -87q-12 -33 -27 -97q-12 -55 -27 -78l-28 -43q-8 -14 -37 -93 q-27 -33 -83 -122q-27 -55 -97 -125q-90 -93 -109 -120l-23 -20q-10 -1 -30 -12q-33 0 -52 -9l-27 12l10 30l13 8l11 56l26 15l72 59q15 22 76 78q7 14 61 79q38 49 50 86q55 94 79 254q11 35 11 72q0 29 -31 174q-10 44 -10 79q-18 35 -35 123q-59 134 -86 185 q-57 109 -115 167q-41 41 -142 79q-83 31 -106 75z" />
<glyph unicode="*" horiz-adv-x="931" d="M-55 788l4 38l17 21v39l24 12q18 -8 35 -8q7 0 13 2l48 -25l74 -44q15 -14 52 -38q11 -3 21 -7q11 -1 18 14q-4 12 -12 16l-6 3l-64 119l-17 8l-6 31l11 18q-3 4 1 34q0 5 -4 18l18 11q3 3 7 9l76 -10l11 -18q7 -4 21 -15q18 -27 17 -48q0 -8 -1 -14q12 -34 18 -42 l22 -33l7 -8q20 -30 38 -29q5 10 12 30q-10 33 -11 73q-3 67 -5 75q26 40 26 104q0 5 -7 15q16 15 56 34q11 -4 22 -4q51 0 58 -10q26 -30 17 -69l24 -33q4 -27 4 -47q0 -26 -6 -35q-19 -86 -24 -138q5 -11 17 -11q7 3 20 12l3 19l121 144l54 110l17 24q16 1 54 15 q29 1 47 -17l21 -45l-18 -31l-33 -38q-41 -37 -72 -78q-25 -18 -59 -68.5t-58 -68.5l-25 -59q22 -4 36 -5q25 0 68 -15q11 -12 13 -23l-76 -28q-19 -7 -20 -28l19 -14l50 -16q11 -18 73 -41l38 -38q1 -16 -13 -29l-13 -3q-11 -7 -25 -7q-10 0 -58 18q-15 5 -32 7l-22 14 l-97 28q-30 -14 -31 -38l33 -41l-2 -16q0 -5 26 -86q-5 -10 -5 -28q0 -10 1 -20q-15 -10 -41 -30l-19 -2l-12 5l-60 106q-5 3 -11 3q-5 0 -11 -4l-4 -19l-15 -15q-19 -1 -32 -11q-3 -3 -5 -11l-6 -3l-43 -15l-43 11q-1 7 -2 23q-10 15 0 71q3 16 2 27l36 47q11 8 19 27 l-7 15q-44 -8 -98 -37l-90 -47q-16 1 -47 -11.5t-45 -12.5q-7 0 -13 2l-29 22v47l16 21q-3 4 -2 11q12 14 80 20q15 1 32 8q8 -3 16 -2q16 0 64 27q15 8 17 22q-31 33 -145 69q-22 11 -97 32q-37 19 -40 22q-23 16 -26 34z" />
<glyph unicode="+" horiz-adv-x="746" d="M42 543q18 -12 43 -12q26 0 57 12q38 23 61 25l20 16q20 5 61 18q30 16 67 16q15 0 29 -2l5 -25q-3 -3 -5 -9q1 -15 1 -33q0 -34 -11 -101l-16 -100q-1 -10 -11 -33.5t-10 -35.5q0 -20 12 -33l14 -7h21l6 7l30 13l26 41q0 74 -2 89q8 34 8 52q0 10 -3 15q11 19 16 66 q7 59 10 69q-3 3 -3 7q0 7 10 16h38q27 -5 83 -23q15 1 71 -18q16 3 37 17.5t21 29.5v7l-51 35q-51 22 -155 45q-26 10 -30 25q10 57 20 170q14 16 12.5 50t2.5 43q-4 25 -4 74q-14 22 -60 30q-10 0 -29 -4q-3 -5 -22 -20q-5 -22 -20 -55q0 -23 5 -31l2 -26l11 -20v-47 q1 -3 6 -6l-17 -166q0 -7 -13 -14q-45 3 -174 -36q-22 -10 -45 -19q-22 0 -86 -9l-18 -23q-4 -3 -8 -7q-14 -63 -13 -73z" />
<glyph unicode="," horiz-adv-x="241" d="M-38 -186q5 11 27 25q20 -1 55 49q27 41 38 71l-3 12l11 37q0 5 1 23q-15 41 -42 60q-1 7 -1 14q0 18 43 55q20 18 44 12l34 -23l18 -32q7 -34 7 -62q0 -38 -11 -70l4 -19l-44 -88q-3 -1 -8 -5l-56 -79l-45 -25l-44 -4l-24 27z" />
<glyph unicode="-" d="M74 567l24 90q25 18 141 23q124 5 160 18q100 34 325 27q26 -7 76 -23l30 -36l14 -97q-22 -4 -55 0q-25 3 -104 24q-64 16 -105 16q-56 0 -101 -25q-61 -1 -175 -45.5t-174 -45.5l-18 8z" />
<glyph unicode="." horiz-adv-x="327" d="M38 61q7 -19 36 -41q35 -27 42 -36l19 -4q26 4 55 35q37 41 48 48q-1 12 -2 20q0 20 8 26l-1 17q-3 3 -15 5l-4 8l-48 11q-19 -12 -53 -23l-55 -18l-16 -31q0 -7 -4 -10z" />
<glyph unicode="/" horiz-adv-x="925" d="M27 16q8 67 4 86q37 66 69 202q29 57 94 170q14 12 44 75q7 14 16 24v11l210 325q7 4 19 15q7 18 33 45q37 38 42 47q31 46 60 61q11 38 58.5 99t59.5 95q31 56 40 72q22 46 23 78l24 37q23 3 62 22l45 -8l56 -59q1 -30 -2 -35q-55 -48 -159 -193l-156 -214l-16 -33 q-30 -20 -36 -40l-97 -128l-27 -18l-34 -63q-164 -232 -262 -477q1 -30 -11 -78q-15 -55 -17 -77l-9 -127l-67 -12l-53 27q-18 23 -13 71z" />
<glyph unicode="0" horiz-adv-x="1171" d="M-1 190q0 97 31 209q10 64 37 131l52 128l75 138q42 78 93 120l173 261l94 123l24 8q19 14 21 37l65 41l45 31q12 3 24 3q52 0 130 -85q25 -26 67 -28q3 0 43 1q14 -10 36 -11q55 -27 74 -78q7 -11 43 -63q5 -16 22 -51q4 -27 26 -70l7 -6q7 -7 5 -13q-1 -5 -13 -30 q5 -26 -23 -112q-1 -20 -28 -73t-27 -77q-7 -11 -29 -37q-20 -33 -118 -182q-48 -72 -107 -127q-14 -30 -111 -105q-31 -25 -50 -55q1 1 3 2l-6 -6l-226 -154l-47 -19q-14 -10 -83 -36q-16 -1 -94 -21q-57 -15 -90 -11q-70 10 -107 80q-31 59 -31 137zM143 296 q0 -82 21 -169q11 -5 39 -15l13 3q111 -8 281 93q130 76 213 176q10 5 27 20l41 62q19 29 48 38q11 12 42 68l43 75q3 5 9 8l37 66q64 115 64 263q0 67 -19 125q3 4 11 23l-89 72l-6 13q-25 44 -67 55q-48 -12 -71 -12q-105 -37 -196 -135q-38 -42 -146 -190q-8 -15 -11 -28 l-1 -5q-19 -4 -31 -19q-45 -53 -88 -135q-19 -37 -48 -74q-64 -141 -79 -182q-37 -104 -37 -196z" />
<glyph unicode="1" horiz-adv-x="350" d="M83 1394l34 14q14 11 24 26q8 4 28 15q4 7 11 19l13 2l65 -24q14 -25 31 -30l13 -4q7 -3 15 -13l13 -86l-49 -206l-7 -117q-5 -89 -4 -90q4 -42 0 -108q-4 -59 -24 -351l-13 -42l9 -25l-10 -181l-12 -41l13 -167q8 -6 22 -16l-28 -75h-4l-71 2l-2 8q-4 27 -16 50 q-10 109 -10 390q8 23 13 98q3 45 27 93q-18 45 -19 68q0 4 2 18q3 61 3 161q0 75 -1 172q-8 20 -10 90q-1 57 -22 85l10 44z" />
<glyph unicode="2" horiz-adv-x="1171" d="M0 952v62l20 39l21 4q131 94 190 168l98 78l113 76q157 60 213 55q15 1 33 1q111 0 202 -79q75 -85 68 -283q-7 -23 -27 -68q4 -94 -74 -269q1 -1 5 -4q-8 -16 -15 -37q-19 -55 -65 -126q-62 -98 -73 -118q8 16 153 -78q152 -97 189 -164q56 -61 110 -175q1 -3 2 -7 q0 -27 -71 -27q-33 0 -52 40q-11 34 -23 68q-26 82 -123 136q-78 35 -155 71q-30 10 -86 33q-27 -37 -59 -101l-89 -117l-69 -77q-81 -41 -147 -42l-4 4q-8 27 -8 60q0 51 40 176l71 109l41 44q64 56 168 75q34 29 90 134q57 112 76 195q22 41 38 163q0 63 -8 185l-58 96 l-61 36q-15 0 -46 2t-48 2q-59 0 -98 -30q-3 -7 -8 -11q-12 -11 -119 -69q-15 -15 -26 -23q-26 -18 -70 -64l-31 -18l-45 -91v-44l-42 -30q-16 -5 -39 -5q-37 0 -82 17zM399 168q7 3 23 15l24 33q15 23 20.5 36t16.5 48l-34 -30l-27 -41l-19 -36q-1 -10 -4 -25z" />
<glyph unicode="3" horiz-adv-x="957" d="M-41 1184q0 11 7 17q49 34 74 35q11 0 21 -3q48 19 85 31q45 -1 161 52q27 12 107 30q70 15 103 38q82 11 253 29l85 -23q44 -12 73 -44l17 -39l-26 -88l-59 -60q-35 -71 -132 -154l-100 -118l-83 -71q-1 -3 -7 -12l-4 -7v-2q-11 -4 -36 -21l-31 -53q7 -22 25 -36l8 -4 q33 -16 86 -5q41 8 63 0q12 0 32 -3t37 0q18 0 57.5 -24.5t55.5 -27.5l2 -3q7 -20 7 -24l11 -25l-7 -20l11 -32l-14 -32l-3 -3q-10 -7 -20 -31l-64 -91q-8 -4 -21 -15q-3 -8 -39 -34q-7 -27 -39 -52q-19 -15 -49 -51q-44 -27 -67 -59l-179 -130q-93 -67 -206 -67l-1 6 q-5 20 38 86l41 13q5 -1 15 -1q108 46 239 191l75 83q40 18 52 54q4 3 23 28q11 5 14 13l27 53l-23 56q-66 26 -122 26q-12 0 -42 -4q-20 -3 -72 4q-10 -4 -34 -3q-60 3 -97 -5l-29 13q-7 7 -10 18l14 63q20 25 70 69q20 15 63 40l50 63q25 11 51 45q45 48 132 143l3 13 q3 1 3 8l61 71q19 30 23 32l63 122l-21 20q-33 25 -155 20q-29 4 -134 -25q-25 -7 -44 -8q-94 -42 -254 -96q-10 -5 -20 -11q-23 -8 -64 -34q-68 -20 -82 -18q-8 20 -38 52q-10 19 -10 32z" />
<glyph unicode="4" horiz-adv-x="882" d="M-4 807l4 33l15 95l22 63q27 27 33 34q16 20 17 43l32 81q12 22 45 55q10 1 84 -30l25 -37l-12 -26l-67 -69l-15 -40q-30 -22 -55 -112q-5 -20 -15 -41q-4 -61 60 -102l36 4q37 -18 78 -7q126 34 202 75q12 11 19 34l24 22l22 66q4 12 14 45q7 15 27 21l33 112l44 56 q0 11 1 13q15 38 56 108q0 23 38 127q8 22 11 42q4 11 18 19q7 1 19 1h23q11 -5 36 -15l27 -49l-52 -104l-134 -245q-89 -113 -88 -215q1 -3 1 -8t-7 -23t-5 -23q-15 -16 -43 -78q-1 -7 -30 -131q0 -12 -6.5 -37.5t-6.5 -38t-4 -17.5l-13 -55l-9 -37q0 -25 -18 -41l-10 -4 l-5 -23l8 -74v-15l-39 -106q-22 -41 -21 -107q3 -119 -23 -146l-73 -19q-16 8 -21 14l1 65l14 5l23 45q7 13 7 35l22 149q-3 12 -3 35q0 -12 22 106q4 22 19 87l16 59l18 41q3 41 12 83l11 49l12 64q-15 16 -32 17l-215 -76q-75 5 -97 3q-83 16 -125 73z" />
<glyph unicode="5" horiz-adv-x="992" d="M-5 840q-3 27 25 67q34 46 41 64.5t33 74.5l36 34q25 8 39 31l34 30q19 16 37 15q15 7 43 26q1 3 2 10q31 14 70 35l60 3q105 5 348 92q257 91 367 103q4 -5 127 -50q1 -3 0 -8l-2 -11h-6q-27 4 -42 -18q-35 5 -72 5q-16 0 -44 -9q-31 -10 -44 -11q-31 -19 -105 -39 t-106 -42q-18 -12 -76 -34q-38 -8 -54 -23l-33 -19q-20 -8 -23 -12q-12 -7 -25 -17l-52 -16q-7 0 -19.5 -3.5t-19.5 -3.5q-25 0 -165 -41l-66 -19q-15 -7 -30 -29l-40 -31q-4 -1 -6 -1q-16 -4 -40 -50q-5 -3 -11 -8q-37 -67 -8 -158q11 -37 100 -70q22 -8 35 -19h33l19 -14 q5 0 49 -4q30 -3 47 9l120 -17l12 -8q38 1 122 -45q30 -16 84 -117v-2q0 -20 -19 -61t-20 -58q-3 -1 -11 -8l-17 -45l-20 -20q-16 -46 -73 -100q-5 -3 -23 -25l-37 -46q-57 -25 -109 -85l-33 -11q-35 -41 -114 -68q-25 -5 -66 -23l-1 -1q-14 4 -34 17q-15 22 -15 47 q0 29 21 63q7 11 20 47q4 8 10 13l40 -33q-1 -15 10 -41q4 -1 9 -1q12 0 32 9q4 5 6 8q38 11 97 66q3 10 10 12q41 22 126 127q15 18 16 38q23 29 37 150q-25 51 -81 71q-22 8 -105 29l-42 -5l-122 16q0 8 -116 30q-23 7 -63 29q-20 27 -72 69v17l-29 33z" />
<glyph unicode="6" horiz-adv-x="907" d="M-10 315l25 163l25 65q0 12 -7 24l33 103q12 23 39 69q29 105 96 179l47 53q0 14 17 48l24 17q37 74 69 107q7 11 22 30q20 44 132 162l23 25l19 14q4 1 6 5q3 14 19 26q14 8 27 18l53 4q79 -44 95 -94l-4 -3q-8 -5 -21 -22l-18 -61q-55 -34 -105 -32l-30 -8 q-15 -7 -42 -25q-38 -35 -107 -113q-8 -5 -23 -20l-128 -175q-75 -102 -104 -219l-59 -237q8 -31 4 -60q-4 -27 -8 -63q-4 -34 6 -90q3 -4 9 -14l81 -123q22 -12 42 -23v1q7 -3 86 9q1 5 2 11q0 14 -10 31l-6 14q-19 19 -25 77q-3 27 4 70q33 187 192 307q18 4 46.5 30 t41.5 32q33 15 113 67q55 10 93 9q61 0 108 -24l50 -84v-11q14 -31 14 -60q0 -40 -52 -129l-3 -2q-18 -4 -16 -19q1 -22 -37 -61q-25 -41 -109 -114q-19 -7 -75 -64l-25 -5q-23 -5 -21 -33l85 -16q1 -4 2 -9q0 -12 -10 -27q-42 -30 -182 -53q-16 4 -35 4q-37 0 -122 -31 q-79 -30 -123 -25l-96 31l-10 9q-34 0 -57 36v19q-4 4 -17 11l-8 21q-5 26 -30 39q1 26 1 35q0 45 -15 60q-3 16 4 53zM442 242q0 -22 13 -48q-3 -4 -3 -11q0 -14 11 -40q5 -7 19 -17h5q23 0 54 30l11 11q18 18 36 23l18 19q119 85 187 206q4 12 8 18l6 8q4 4 8 11l-9 100 q-7 19 -32 31q-152 5 -252 -126q-26 -45 -54 -90q-26 -53 -20 -101q-5 -11 -6 -24z" />
<glyph unicode="7" horiz-adv-x="968" d="M-51 1114q-3 27 13 42q14 3 38 13q11 16 44 22q40 7 46 10q18 -11 42 -10q27 0 62 12q10 18 19 18l27 15l32 -4l203 96q4 5 7 13l30 13l86 -1l74 38q31 0 90 14.5t89 14.5q72 1 124 -55v-8q-1 -11 15 -30q7 -22 5 -67q-1 -45 -1 -75l-48 -121q-27 -70 -68 -106l-21 -49 q1 -7 3 -9l-15 -15l-49 -118l-30 -79l-12 -39q-5 -4 -14 -13l-12 -24q1 -7 4 -18l-73 -171q-1 -8 -20 -56q0 -18 -13 -60t-10 -64q-23 -64 -23 -145q0 -31 4 -65q4 -15 30 -34v-2l-10 -8l-41 6q-12 -27 -45 -21l-56 11l-30 30q0 82 21 111q-4 38 31 195l25 35l96 287 l186 414q14 51 36 158q-12 64 -62 90q-18 7 -37 7q-16 0 -32 -4q-44 -11 -60 -14l-32 -20l-26 3q-10 -7 -30 -18q-41 -34 -146.5 -68.5t-148.5 -73.5l-23 -8q-4 -7 -11 -15q-14 -5 -19 -14l-19 -18l-186 -34l-43 30q-7 19 -16 56z" />
<glyph unicode="8" horiz-adv-x="835" d="M0 156q-8 23 1 39q3 116 45 236l81 228l-37 55q11 8 11 22l-4 34q-4 8 -16 12q-1 0 -5 3v16l2 69q12 18 12 48l12 25q-4 4 -5 9q11 33 37 105q0 14 5.5 39t5.5 39l54 110q76 100 164 169q26 12 53 13q30 0 73 -18l71 -30l15 -25l39 -4q31 10 89 -12q68 -26 93 -26 q10 -8 27 -24q19 -26 49 -82q7 -31 17 -97q3 -55 -17 -99q-38 -41 -72 -83q-34 -71 -105 -113l-55 -33q-4 -4 -9 -15l-62 -45q-4 -7 -4 -15l18 -33q0 -15 31 -37q18 -27 37 -53q19 -31 15 -61l14 -15l3 -59l13 -22l-22 -101l-6 -3q-19 -8 -26 -26l-26 -67l-32 -21l-26 -41 v-9l-76 -68q-56 -49 -188 -116l-11 -5q-14 -7 -25 -9q-30 -25 -90 -21l-98 43q-8 12 -21 22l-5 19q-4 3 -11 6q-11 7 -11 12l1 34q0 4 -16 34q3 18 -7 47zM127 132q16 -61 85 -80h5l78 38h11q45 26 89 59q141 105 177 239q-5 14 -5 30v49q0 26 -17 46q-1 19 -43 92l-2 -2 q-2 24 -13 65q-14 4 -32 -13q-20 -3 -66.5 -28t-69.5 -25q-11 0 -21 3l-60 -23l-83 -167q-10 -37 -25 -112q-12 -30 -8 -85q4 -59 0 -86zM198 883q0 -34 8 -71q4 -10 22 -21q12 7 18 16l4 5q8 11 15 14q22 15 56 14q20 -3 64 -4l68 -32q0 -5 4 -15q4 -3 14 -9l10 2l71 36 q3 4 9 11q142 104 191 199q1 34 11 81q1 4 7 11l-52 107l-49 33q-11 15 -49 14q-46 -1 -55 1q-55 -23 -143 -45q-81 -10 -146 -97q-31 -56 -41 -93l-8 -8q0 -30 -4 -48q-25 -45 -25 -101z" />
<glyph unicode="9" horiz-adv-x="720" d="M82 871q0 25 15 41q15 87 61 141q71 82 118 120q23 7 28 23l80 64q11 7 42 33q55 46 81 50q18 11 68 29q109 38 175 33q74 -25 102 -44q12 -15 16 -43q1 -10 4 -48q-22 -52 -28 -60l-11 -13l-14 -17q-3 -4 -12 -18q4 -5 -10 -15l-12 -10q0 -16 -19 -23q-64 -106 -93 -134 q-14 -23 -26 -34q-55 -93 -56 -119q-49 -89 -60 -158q-22 -57 -24 -63q1 -15 -12 -42t-13 -41q-11 -16 -24 -66.5t-27 -70.5q-1 -8 -10.5 -28.5t-9.5 -30.5t-3 -17l-24 -66l-25 -84l-12 -34l-8 -28q0 -8 -5.5 -21.5t-5.5 -20.5q-12 -33 -24 -55q3 -3 3 -9q0 -15 -15 -49 q-29 -27 -68 -39q-45 17 -53 36l24 27q0 19 2 29q20 53 23 65l13 65q10 19 24 94q12 67 28 86q1 7 3 16q3 11 -1 18l84 250l15 22q0 49 10 73q3 20 25 63q-1 10 6 26.5t7 22.5q0 5 -3 11l-81 -38q-5 0 -9 -1q-87 -30 -140 -28l-59 22l-31 26q-12 4 -15 15l-9 32q-5 20 -5 35 zM205 922q3 -3 7 -13l-6 -22l4 -23l18 -19l60 7l96 38l121 97q19 29 45 66q11 11 58 83l21 34l29 19q8 5 31 22q10 1 33 3l-7 20l10 67l-41 7l-72 -8l-37 -10l-51 -30q-19 -15 -47 -38q-5 -5 -29 -18l-62 -54l-64 -48l-53 -67l-41 -62q-12 -26 -23 -51z" />
<glyph unicode=":" horiz-adv-x="342" d="M112 75q5 -26 41 -50q44 -30 53 -44l22 -4q34 4 68 41q48 52 58 58q-3 15 -3 26q0 23 11 30l-2 20q-4 4 -17 8q-4 5 -7 9l-57 14q-29 -16 -65 -29l-65 -22l-21 -38q0 -8 -4 -9zM116 685q0 -5 12 -12q0 -5 2 -12l47 -32q12 7 51 5h16l65 -3l31 26q3 8 8 8l14 4 q3 27 -19 59q-29 41 -33 57l-18 11q-10 3 -18 3q-27 0 -65 -21q-46 -25 -63 -28q-4 -23 -7 -29q-7 -15 -19 -18z" />
<glyph unicode=";" horiz-adv-x="342" d="M60 -201q7 12 29 28q25 -1 61 54q27 41 41 78l-3 12l13 41q0 4 2 26q-16 44 -46 66q-3 8 -3 15q0 11 49 60q23 19 47 14l38 -26l19 -35q8 -38 8 -71q0 -41 -12 -75l6 -20l-50 -97q-4 -1 -8 -6l-63 -87l-16 -8l-33 -19l-48 -4l-27 30zM105 725q-3 -26 21 -59 q30 -42 34 -57l17 -11q8 -1 17 -1q27 0 65 20q46 26 63 30q4 22 7 27q5 16 18 21l5 18q-1 4 -13 12q0 4 -2 11l-48 30q-14 -7 -50 -4h-16l-66 1l-30 -27q-3 -7 -8 -7z" />
<glyph unicode="&#x3c;" horiz-adv-x="744" d="M1 455q3 22 4 42q4 26 20 38q8 4 16 15l40 13q10 -4 20 -5q18 0 52 14.5t50 15.5q19 7 56 24q51 11 114 54q55 23 155 82q31 12 93 43q14 0 39 12t39 12q7 0 14 -3l37 -26l4 -20l-15 -22l-30 -19l-81 -14l-131 -60q-11 -10 -23 -9l-51 -26l-80 -47l-48 -24 q-53 -10 -89 -43q-5 -5 6 -19l23 -8q18 -22 60 -46q51 -30 64 -41q79 -51 163 -134q5 -11 28 -29q7 -14 38.5 -38.5t38.5 -40.5q3 -4 11 -4l21 -20q-5 0 29 4q22 2 36 -28q1 -10 -10 -20q-11 -15 -12 -21l-7 -5l-11 -22q-7 1 -24 -5.5t-24 -6.5t-13 4l-47 8q-26 20 -76 79 q-46 53 -79 75l-13 22q-34 30 -114 79l-95 58q-51 30 -102 49q-4 1 -7 7q-16 7 -50 26q-22 -1 -36 20q1 7 -3 10z" />
<glyph unicode="=" horiz-adv-x="697" d="M64 792l10 23l27 16q1 3 7 9q48 33 195 56l204 32q25 -4 120 -1q79 1 110 -16v-7q-4 -11 -16 -26q-20 3 -37 -16q-7 -10 -20 -24q-11 3 -36 3q-7 -3 -63 6q-16 11 -43 8l-47 -6q-16 -1 -56 -15q-11 -1 -63 -19q-35 -12 -65 -9q-12 -10 -45 -18t-47 -19l-30 5l-58 -41 q-7 9 -15 19h-2zM96 389l118 60q4 5 6 7l15 -3l98 36q20 0 61.5 5.5t61.5 5.5q25 5 150 -2q26 -1 51 0q8 -4 17 -4q10 0 21 4q5 -3 18 -12q-1 -11 -28 -33q-7 -5 -82 -18t-92 -13q-76 0 -96 -4q-76 -16 -150 -49l-8 -10h-22q-38 -31 -92 -31q-5 4 -12 8q-33 30 -35 53z" />
<glyph unicode="&#x3e;" horiz-adv-x="789" d="M22 228l16 22l30 16l82 10l134 53q11 8 25 8l51 23l82 43l48 22q52 8 92 38q1 3 1 5q0 5 -5 14l-24 8q-16 25 -56 51q-52 34 -62 43q-71 49 -156 142q-4 12 -27 32q-7 15 -36.5 40t-34.5 43q-3 3 -11 4l-22 22q14 0 16 -1h-9q-12 -1 -36 -2q-23 0 -33 29q-1 10 10.5 22.5 t13.5 17.5l6 5l11 20q22 10 63 6l47 -11q26 -22 71.5 -80.5t75.5 -81.5l11 -22q82 -82 300 -202q4 0 7 -7q16 -8 49 -29q22 1 34 -22q-1 -7 3 -9q-4 -33 -7 -44q-7 -26 -20 -35q-10 -4 -18 -14l-39 -11q-11 4 -24 4q-18 0 -50.5 -11.5t-50.5 -11.5l-57 -21q-48 -8 -116 -47 l-160 -74q-11 -5 -45 -19l-50 -19q-14 0 -38.5 -10.5t-37.5 -10.5q-8 0 -16 3l-35 29z" />
<glyph unicode="?" horiz-adv-x="674" d="M142 1322l18 -44q35 -18 39 -18q5 0 10 2l44 31q3 5 8 8l84 27q3 3 5 7l-10 10q4 11 20 11h26q33 -11 92 -43q12 -10 44 -24q22 -16 53 -53q4 -12 24 -48q1 -12 2 -23q0 -44 -19 -89q-22 -38 -73 -101q-3 -3 -11 -6l-41 -41l-103 -81q0 -5 -7 -16q-1 -3 -19 -6 q-8 -20 -43 -54q-3 -10 -12 -31q-3 -3 -20 -14q-1 -5 -3 -16q-5 -3 -17 -11l-13 -71q-11 -23 -11 -60q0 -55 -1 -60q16 -27 40 -82l66 -44q30 3 40 -11l5 2l87 2l13 15l-10 69l-59 28q-40 -4 -79 41q-1 4 -2 7q-3 12 -3 32q0 18 3 43q7 22 15 63q7 16 24 42q5 1 8 6l26 42 l107 92q12 4 9 4l58 60q12 14 52 44q16 22 51 86q11 41 37 120q4 67 -31 106q1 3 3 10q-12 10 -33 33q-11 15 -42 38q-11 20 -44 38q-42 23 -51 31q-57 22 -108 22q-38 0 -68 -12q-4 0 -9 1l-95 -43zM238 55q-11 -15 1 -40l25 -50l20 -16l31 6l39 15q1 4 12 25q8 15 8 24 q0 8 -4 16q5 12 5 17q-19 10 -56 31q-14 5 -31 0q-19 -5 -29 -5q-3 -5 -12 -18q-4 -1 -9 -5z" />
<glyph unicode="@" horiz-adv-x="1717" d="M97 572l25 123q-4 22 9 56q16 41 18 55q10 14 23 47q-4 7 -4 19q14 31 55 89q41 41 64 93q8 18 80 96q10 10 92 47q76 78 128 96l12 19q7 -3 17 -3l95 21l144 -3l170 -24l56 -18l22 3l47 -24q7 -7 127 -79q11 -7 56 -42l46 -37q11 -7 33 -34q5 -7 34 -31.5t34 -26.5 q16 -14 40 -42l30 -24q3 -1 17.5 -20t14.5 -21l51 -58q11 -25 27 -52l18 -38q3 -7 29 -31q12 -12 8 -34q15 -41 11 -60q4 -29 -4 -51l-6 -63q0 -3 -9 -18.5t-9 -24.5q0 -4 3 -9q-11 -16 -26 -46l-83 -67q-10 1 -27 -5l-89 -35q-5 1 -11 2q-11 0 -25 -6l-36 10 q-31 -1 -101 16q-64 18 -100 14q-11 4 -56 18q-20 12 -53 26q-15 10 -33 21l-66 2l-110 8l-7 7q-34 16 -101 41q-23 19 -74 38q-25 10 -57 46q-33 14 -56 32q-11 1 -29 30l-15 56q1 11 1 42l10 36l11 37q10 0 22 24l16 33q29 18 88 33l125 2q12 -10 36 -9q29 0 37 -3 q5 1 12 1q11 0 33.5 -9.5t30.5 -9.5q10 -7 21 -6q5 0 10 1l20 -4q4 7 5 11l16 2l35 7l36 -34l14 -75l-7 -75q-1 -12 3 -21q3 -3 -12 -41q4 -20 2 -46l15 -41q10 -10 22 -31q25 -25 26 -29l49 -20q18 -12 58 -22q25 -10 54 -19q3 0 4 -2q-14 -4 -24 -1q3 0 20 3l52 6 q22 -15 89 7q26 8 61 32q18 19 55 90q3 8 3 39q0 20 4 32q-5 12 -10 37q-23 44 -88 124q-3 15 -47 70q-7 7 -41 42q-1 19 -12 42q-19 8 -44 22q-18 20 -65 53q-12 23 -45 59l-103 55q-33 14 -76 36l-77 41q-48 1 -116 3q-19 3 -41 3q-33 0 -74 -6l-75 -23q-106 -20 -98 -22 q-25 -14 -123 -82l-71 -84q-12 -15 -54 -85l-69 -113q-15 -26 -22 -71q-8 -57 -13 -75q-1 -22 -7 -63l-1 -85l2 -43q-5 -48 22 -101q8 -15 28 -85l57 -79l65 -58l74 -62l62 -2l84 -52q-5 -8 88 -19q29 -10 43 -19q7 -15 8 -30q-81 -16 -84 -15q-89 15 -260 76 q-206 102 -228 208q-15 34 -50 96l-10 23q0 8 -19 116q3 14 3 38l-7 11q3 12 -7 49zM696 736q0 -27 15 -62l28 -45l50 -50q4 -1 15 -7l8 -19l118 -22q10 3 22 10l28 30l3 5q12 14 12 21l-15 15q-1 7 -1 12q0 25 22 46l9 41q-57 61 -117 73q-27 12 -82 19l-53 -8 q-27 -4 -53 -24q-8 -15 -9 -35z" />
<glyph unicode="A" horiz-adv-x="948" d="M-90 -184l12 90l14 30q3 42 22 121q15 33 41 107q3 20 15 61l203 373v10l14 10q1 11 12 16v2l16 34l47 75v9l48 75l28 50q19 33 34 81q14 20 37 63l41 97l37 64l72 143q7 7 13 10l13 37q-1 3 3 11t4 9q0 7 6 10l13 30l36 56q20 -1 61 -9q22 -10 37 -60l-7 -102 q5 -10 4 -36q4 -7 5 -16q-10 -11 -10 -35q0 -10 1 -22q-1 -27 -13 -84l-19 -267q0 -5 -4.5 -16.5t-4.5 -13.5q0 -5 3 -11l-4 -29q-3 -8 -4 -22l74 34l82 37l23 -5q4 -1 7 -4l45 9l61 15q5 7 15 7q5 -1 12 -11l32 8l31 -46q-3 -15 -12 -22q-18 -3 -26 -19l-30 8l-60 -23 q-7 -3 -23 -8q-8 -4 -13 -4q-8 1 -15 1q-22 0 -39 -15q-16 0 -49 -16.5t-50 -16.5q-75 -45 -71 -73h5q1 -12 2 -39l2 -46q0 -5 -7 -33l5 -26l-7 -60q-1 -14 5 -33l-10 -16q1 -11 7 -33q1 -5 -4 -22l-3 -23q-1 1 -5 -38l-7 -63l8 -29l-4 -21q-4 -3 -7 -7q0 -14 4 -56 q-4 -16 -19 -27l-6 -5l-50 -54l-40 5l-26 14l-27 30l-23 12l-36 59l-19 11q-7 12 -27 30l-7 12l-24 10l-44 65q-40 41 -81 82l-43 29l-39 -3q-4 1 -6 4l-20 -33l-55 -120l-28 -45q-10 -30 -34 -79l-8 -40l4 -21q0 -1 -12.5 -25t-12.5 -26q-10 -11 -26 -31l-15 -48l-8 -21 q-16 -19 -35 -39q-18 -4 -37 -8zM270 500l2 -2h4l53 19q3 4 8 11q23 -1 49 17q35 25 44 27q44 26 89 60q30 22 83 44l18 22l5 22v24l4 37q4 37 3 41q0 37 -1 34l3 7l12 74q5 14 4 32l8 40q11 19 8 26l-4 9q7 8 4 17l-4 11l4 16q3 5 3 12q0 12 -8 29q-7 5 -7 21q0 12 4 30 l-4 26l-4 4l-21 -34l-23 -35l4 -8l-23 -43l-24 -17l-29 -86q-3 -3 -11 -5l-15 -63l-27 -41v-11l-44 -72zM337 382q11 -11 13 -17q12 -9 24 -24l30 -30q10 -3 22 -16l25 -33l4 -12l27 -10q10 -1 50 -39q1 -8 9 -17q8 1 26 -5l16 -15v-15q16 38 16 61q0 10 -2 17q0 31 23 83 q-3 1 -4 5l5 40v87q0 64 4 71l9 67l-66 -38h-7l-64 -57l-60 -30l-92 -63z" />
<glyph unicode="B" horiz-adv-x="1099" d="M-53 20l9 -62q16 -4 49 -17l18 -9l171 34q3 3 9 8l100 15q53 8 90 37l19 5q8 0 15 -1l59 21l15 9q3 0 6.5 2t5.5 2q12 0 24 4l35 14q25 19 112 44q19 23 69 50t68 44q16 8 54 24l82 56q14 27 68 55l66 89q33 45 37 101l1 20l-14 69q-8 12 -23 42q-11 8 -28 26 q-8 -1 -30 4t-30 5q-42 14 -126 18q-87 4 -126 15q-12 -4 -30 -4q-10 0 -27.5 2t-26.5 2q-16 0 -28 -4q-29 -3 -62 -3q-56 0 -126 7q0 5 -1 16q14 25 43 31l17 31q3 3 13 8q22 29 89 81q31 25 49 47q19 18 26 35l111 116q1 4 16 13l8 21q3 7 18 13q55 113 55 151q0 14 -3 27 l-48 61q-20 0 -37 25q-26 10 -65 10h-69q-10 -1 -23 -2q-22 0 -54 6q-14 -8 -48 -9l-61 -12t-70 -22q-33 -3 -78 -19q-56 -20 -72 -24l-60 -35q-3 -4 -18 -4l-30 -34q-15 -5 -34 -30q0 -11 -15 -18q-14 -12 -30 -45l-6 -73q1 -1 -3 -13t-4 -13q0 -15 -11 -33v-86 q0 -76 10 -94l20 -77q0 -63 19 -83l28 -93l52 -138l16 -5q1 -5 -7 -13q20 -81 21 -76q4 -29 17 -82q-3 -7 7 -41t10 -42q-3 -4 -11 -15q4 -34 46 -45q16 3 41 16q6 -1 18 -1l34 15q3 4 10 12l16 8q3 14 18 21l-8 42l-36 78q-4 4 -11 4l-11 30q5 1 14 10l-3 17q-27 25 -27 41 q4 7 12 22l-2 3l-5 3q0 109 11 127q0 4 -2 9q8 14 34 17q37 3 43 8q40 -5 77 -6q63 0 119 15l78 -8q12 -8 88.5 -13t85.5 -13q70 0 96 -26l26 -35q0 -16 -10 -40q-14 -26 -16 -39q-7 -8 -36 -37q-1 -7 -5 -17q-4 -1 -16 -7l-82 -75q-18 -16 -80 -46q-31 -27 -84 -52l-89 -41 q-31 -11 -97 -34q-11 -8 -34 -22l-190 -50l-20 -15l-25 4q-19 -4 -57 -21q-18 -4 -88 -7q0 -4 -9 -2q-8 4 -34 9q-5 4 -17 4q-14 0 -37 -9q-10 -15 -28 -39zM149 954l8 29l-5 14l21 87l-4 25q1 5 34 43q1 7 2 15l19 24l61 24l59 51q57 27 276 61l76 -3q41 -5 60 -31l-4 -68 l-86 -111q-1 -4 -26.5 -21t-25.5 -23q-8 -22 -31 -45q-31 -31 -37 -41q-27 -11 -37 -23l-20 -27l-53 -30l41 132q1 8 10 19q-4 5 -17 20q-1 3 -14 8q-12 22 -72 30l-51 -14l-41 -68l-20 -175q-3 -3 -8 -9l-31 -179l-9 -10l-3 14q-3 1 -8 9l4 25l-12 9l-15 52q-10 10 -11 25 v26q-8 8 -10 13l-12 63q0 -10 8 30q-1 4 -8.5 13t-7.5 17z" />
<glyph unicode="C" horiz-adv-x="1194" d="M40 289q0 25 6 36l6 162q4 5 12 21v1q3 7 2 22q0 4 -2 18q1 4 23 67q12 15 20 51t16 48q15 15 30 50.5t26 49.5l31 71l138 197q3 23 15 32q5 3 19 11l73 66l136 101q3 5 11 16l40 30q48 14 60 39q15 3 50 6q33 10 92 39h2q68 0 231 -56l13 -17l32 -16l4 -11l-19 -27 l3 -77l-10 -23l-50 -18l-25 -15h-1q1 30 -30 58q-4 4 -18 13q-11 0 -24 3q0 10 -4 19l-160 30q-8 -5 -66 -23q-40 -12 -57 -40q-18 -5 -47 -34q-44 -19 -155 -128q-23 -23 -45 -55l-55 -80q-1 -12 -7 -29h-1l-1 -1q-11 0 -25 -13l-86 -162l-27 -86q3 -12 2 -18l-41 -106 l-12 -97q3 -8 7 -11l3 -109l53 -89q5 -5 18 -7q8 -8 27 -25q10 -4 19 -4q12 -5 17 -15v-22l103 -50q37 -10 101 -15h14q40 0 131 -4h11q54 0 142 27q23 12 74.5 23t72.5 22l99 18q116 20 161 63q18 3 74 26q33 14 53 12l50 16l28 14q4 4 12 10l83 24q7 8 26 19q18 7 92 26 q12 -1 22 -12v-14l-39 -33q-15 -5 -34 -19q-30 -14 -59 -28l-148 -52l-19 -14q0 -3 -5.5 -5t-5.5 -4q-15 -1 -163 -60q-127 -51 -176 -66q-220 -67 -365 -97q-42 -16 -94 -16h-97l-16 6h-12q-76 0 -140 47q-41 0 -94 48h-16q-8 18 -36 49h-8l-9 9q-12 12 -16 14l-5 14 q-4 4 -18 12q-7 26 -13 61q-1 8 -6 32q-7 19 -24 54z" />
<glyph unicode="D" horiz-adv-x="1018" d="M-104 -161l17 72l120 48l22 19q12 4 26 12l1 5l37 9q26 40 41 41l27 31q8 0 26 21.5t19 30.5l-11 95l-12 6q-18 -1 -51 32l-13 53v14q0 8 -2 15l2 2q-4 23 -6 48q1 4 -9 73q7 7 7 17l-10 49l-23 51l-11 70q-4 4 -11 9l-12 133l-13 17l6 33l-17 17l9 39q-4 10 -10 15l7 68 q5 7 5 45q0 14 -5 30q1 41 30 127q33 98 56 100q7 1 18 7l38 41q30 31 100 57l112 41l1 -1q18 -8 41 -3q19 4 26 4l78 -2l56 -10l60 -19l69 -44l43 -12l87 -32l60 -46q5 3 12 4q19 -25 22 -27q15 -15 30 -17l56 -46q60 -49 67 -145q15 -7 23 -72q-1 -18 -1 -37q-5 -8 -8 -19 q1 -8 5 -21l-4 -58q3 -4 -3 -19l-5 -17l-16 -27l-20 -64l-65 -79q-5 -4 -16 -17l-3 -16q-16 -5 -75 -74l-37 -42l-45 -34h-2q-19 0 -24 -26q-15 -25 -21 -32q-12 -11 -34 -19q-14 -22 -52 -46q-45 -27 -57 -41q-19 -15 -56 -36q-15 -4 -26 -17l-5 -7q-8 -8 -18 -7l-22 -21 l-26 -11q-4 3 -20.5 -15.5t-19.5 -18.5q-5 -8 -31 -15l-24 -37q53 -41 53 -92q0 -8 -2 -19q-12 -3 -50 -41q-5 0 -14 6l-67 -11q-7 -8 -12 -17q-4 -1 -11 -4l-68 58q-3 1 -6 1q-27 0 -67 -40l-210 -120zM187 1135q0 -15 16 -32l54 8q1 0 4 -2q16 -23 48 -54q3 -5 5 -16 l-22 -132l17 -50q-13 -36 -13 -103q0 -37 4 -82q3 -31 3 -57q0 -77 -24 -118l24 -93l10 -3q0 -4 4 -24q3 -14 0 -34q4 -5 16 -62l34 -76q3 -18 13 -18q7 0 17 10l88 61l67 44q1 7 15 17q8 3 23 9q15 19 35 30l9 26q11 4 25 9q4 10 10 19l66 45l15 25q11 12 24 15l77 87 q3 5 11 19l39 66l47 64l17 27l21 26v99l-13 48v38l-10 20q-1 7 2 25l-24 46l-45 66q-22 14 -47 35q-18 5 -146 70q-76 38 -191 55l-104 15q-75 -20 -78 -22q-44 -12 -69 -39l-11 -5q-5 -22 -21 -36l-9 -8q-8 -7 -15 -15v-19z" />
<glyph unicode="E" horiz-adv-x="1439" d="M42 862q-1 56 45 110l80 47q5 7 6 13l2 2l60 28q5 5 8 14l52 29q3 3 7 10q7 4 17 3l31 -3q5 3 21 20l3 1l85 30l213 108l42 9l153 70q57 7 111 42l80 28q5 8 8 9l114 26l21 -8l190 48q5 -3 18 -6h56l16 -12l3 -14q-29 -51 -61 -53q-31 8 -21 8l-24 -9l-25 -7l-45 -3 q-19 -7 -239 -65q-56 -15 -89 -43q19 0 19 -4q0 -11 -90 -41l-214 -72q-51 -16 -143 -64q-12 -8 -54 -28q-23 -11 -46 -38l-16 -19q-7 -3 -10 -8l-15 -31q5 -11 5 -21t-6 -16l-14 -97l8 -60l-4 -90q14 -5 33 -6q15 12 45 11q38 -1 53 11q20 16 66 42l207 48l70 29q8 3 53 26 q33 23 141 49q40 10 50 13l167 2q7 -19 23 -32l-7 -36q5 -23 -22 -46l-7 -5q-12 -12 -20 -19q-19 0 -83 22q-26 9 -49 9q-27 0 -51 -12q-20 -3 -112 -35l-232 -84v-7q-3 1 -7 1q-22 0 -76 -21q-5 -3 -26 -8l-8 -10h-2q-14 0 -27 -3q-14 -8 -74 -23q-49 -12 -67 -35l-56 -18 q4 -7 3 -38q-3 -15 7 -26q0 -14 5 -30l7 -51q0 -11 4 -34q1 -7 7 -11l41 -125q4 -11 12 -41l9 -37l-3 -25q-4 -7 -2 -15q4 -11 5 -15q0 -15 8 -29l-4 -4q-1 -34 13 -34q165 37 305 82q46 15 181 60q23 8 93 30q101 29 148 29q18 8 50 27l79 14q15 -5 32 -3q25 4 105 30 q5 -3 19 -3l34 18l23 -5l15 -22l-9 -18l-119 -35l-120 -54q-74 -12 -236 -51q-15 -1 -52.5 -9.5t-57.5 -8.5q-14 -10 -103 -40q-18 -10 -47 -26q-22 -4 -64 -17q-44 -22 -149 -51q-98 -26 -146 -53q-96 -37 -171 -37q-20 0 -39 3q-3 -12 -7 -14l-134 -31l-39 20 q-4 15 -10 48l18 33l75 39l18 -13h79q26 19 26 27q-3 25 -32 69q-12 19 -15 36v31q-4 30 -1 33q-1 12 -1 70q0 -23 -9 26.5t-8 56.5q1 1 4 3l-4 28v92q-1 10 -1 26v26l3 54l27 140q-3 4 -7 12q1 12 6 48q3 27 -7 48l11 30q-1 5 -4 15q1 8 1 19q-3 12 -14 20l-5 6h-21 l-42 -51l-15 -20l-8 -17l-77 4q-11 4 -30 35z" />
<glyph unicode="F" horiz-adv-x="1503" d="M-12 747q10 34 20 67q-4 3 -4 7l26 15l38 50q5 1 23 14l3 16q18 1 53 8q52 33 151 107l13 -2q16 -1 24 9l46 23l37 72l52 -4l37 4q38 30 43 30q10 0 15 -8q-5 0 -9 3q-8 4 0 4q19 0 53 15q44 19 53 22h3q29 0 65 16q23 11 62 22q30 20 101.5 41.5t101.5 41.5l134 30 q10 3 23 21l134 39q3 3 7 9q4 0 60 -3h7q30 0 60 8q14 0 42 1.5t40 1.5h4q147 0 194 -77v-8q-1 4 -11 -4l-6 -20q-1 -4 -8 -7l-27 -60q-14 -10 -41 -28q-18 -3 -48 -5l2 12q0 8 -7 17q14 14 13 32q0 20 -41 41q-25 12 -56 13h-9l-10 -2h-39q-16 0 -38 7l-129 -40l-63 -10 l-11 5q-10 -3 -17 -14l-224 -87l-77 -14l-80 -46q-35 1 -29 1q-7 -3 -82 -37q-49 -22 -69 -50h-3q-10 1 -18 -7l-100 -354q-1 -3 -2 -2l-7 -7l-23 -131q-7 -23 -28 -48l3 -100l36 15v2q19 -11 41 -11q29 3 83 19q33 3 97.5 25.5t100.5 23.5q90 30 263 96q14 1 40 13.5 t41 12.5q138 56 222 62l197 54q14 -12 18 -29l-11 -16l-8 -2q-4 -8 -26 -26q-14 0 -24 -2l-103 -29q-57 -16 -96 -47q-8 -4 -19 -5h-30q-34 -20 -100 -38q-76 -20 -101 -32q-44 -30 -138 -57q-102 -29 -140 -51q-20 -16 -52 -12l-82 -23l-199 -49l-17 -38l44 -65l34 -51 l-15 -65q5 -10 10 -15l4 -4q-1 -12 4 -41q-11 -18 -29 -17q-36 -1 -33 2q-4 -4 -13 -23q-3 -5 -7 -5l-56 -25l-12 18q-10 3 -21 7l-50 114l-13 105q3 14 3 25q0 31 -23 52l-90 -7q-1 4 -6 7l-101 31q-1 5 -12 17l22 32l-11 11l19 41l55 21l127 -48q15 10 31 37q5 31 5 101 q3 7 15 39q1 5 6 10l26 175l3 1q8 1 12 10l18 73q-4 5 -2 9l13 9q-10 53 -35 64q-4 -3 -36 -15q-15 -5 -29 -5l-3 -23q-33 -5 -61 -25q-14 -5 -34 -29l10 -13l2 -19l-17 -11l-32 -14l-71 -29l-40 -12l-24 17v1q1 7 0 11q0 8 -7 15z" />
<glyph unicode="G" horiz-adv-x="1441" d="M12 392q10 -10 8 -32q-3 -30 -1 -32v-11q0 -34 14 -90q5 -15 15 -39l16 -20q3 -7 12 -10l40 -57l26 -18l4 -30l42 -37q15 -8 28 -15l109 -57l127 -12l259 35q18 4 58 18q42 8 97 38q26 14 73 48q10 4 27.5 13.5t27.5 13.5l35 30q10 0 20 3l132 77q1 7 7 20l27 19l21 27 l54 81v46l18 25l-8 55v17q-11 23 -32 73q-30 35 -83 73q-63 45 -79 61q8 11 38 30l135 57q52 22 190 50l38 20l89 12q8 16 30 52q-3 19 -72 63l-25 -10l-60 19l-34 -30l-109 -22q-4 -4 -14 -12l-173 -70q-4 0 -13 3l-77 -23q-34 -27 -177 -44q-3 -4 -6 -11h-58q-1 5 -11 6 l-56 -97q-4 0 -4 -7q0 -10 8 -30l63 -36l149 9q12 -14 107 -82q66 -48 84 -100q-3 -14 -2 -38l-44 -101q-8 -18 -33 -41l-40 -37q-26 -8 -77 -47t-82 -45q-5 -25 -43 -34q-46 -12 -57 -20q-16 0 -42 -13l-84 -27l-284 7l-39 20q-3 10 -51 22q-42 42 -71 82q-11 23 -35 64 q-8 31 -19 95q-1 18 -2 56q0 38 3 99q3 14 12 34q0 37 26 95l40 87q15 44 79 139q1 3 109 133q4 12 30 54q30 29 50 40l159 136l52 18l81 12q4 -3 9 -8l-5 -16q8 -12 5 -32q-4 -26 -2 -31q10 -5 35 -20l34 11l21 27l9 3l19 16l14 38l34 59l-5 78l-34 24v30q-4 14 -15 14 q-3 0 -6 -1l-307 -112l-154 -112q-5 -8 -44 -30q-10 -5 -34 -44l-29 -45l-27 -32q-26 -30 -69 -107l-84 -115l-25 -72l-48 -73l-16 -30l-30 -79l4 -42l-15 -25z" />
<glyph unicode="H" horiz-adv-x="1092" d="M44 255l7 170q11 20 10 15v77l9 15q-7 12 -7 11q4 4 4 15l15 115l-11 19q10 10 23 32l-16 39l8 22q-4 4 -8 16q0 116 -19 144l19 72q-5 12 -6 22q0 8 6 19q-5 5 -15 17q-1 4 -2 9q0 5 6 10l29 16l36 -4l39 3l23 -13l20 -34q3 -11 15 -30l-5 -46q-13 -43 -13 -131v-13v-12 q0 -89 -14 -132v-160q16 0 23 5q31 3 38 4q20 4 30 17q8 5 25 5q6 -1 12 -1q30 0 71 20q57 29 78 32l24 16l80 37h9l25 15l128 52q4 -1 7 -3q4 0 7 3l9 10l13 101q-10 12 -7 28q4 15 7 29l-9 33l19 80q-1 12 -1 24q0 74 22 132q-4 10 8 46l27 164q5 5 13 18l11 40 q-1 3 5 13.5t6 14.5t10 10q-3 7 -2 19l41 52q0 18 13 20q10 -12 36 -24l9 -22l30 -17l32 -23l-12 -22q3 -12 -3 -26q-16 -31 -51 -87l3 -31q-18 -19 -19 -22q4 -12 4 -14l-33 -95l-19 -127v-69l-8 -24q-1 4 -7 -58q4 -10 0 -43q-3 -27 11 -37q14 -4 27 -4q27 0 103 35 q38 12 114 23q18 2 44 2.5t60 -2.5l58 -20l4 -25q-12 -20 -26 -27q-16 -11 -43 -16q-26 7 -49 7q-52 0 -95 -33l-115 -29q-11 -8 -10 -9l-49 -17l-31 -35l1 -85q1 -3 1 -10q0 -28 -10 -117q11 -31 11 -44l4 -20v-23q5 -5 5 -11q-1 -4 -3 -7l3 -40l6 -22q1 -11 4 -39l2 -32 q-4 -4 -10 -8l10 -79q3 -1 7 -4l-13 -72q-26 -18 -35 -43q-15 -4 -38 -19q-5 1 -11 2q-12 0 -27 -6l-48 -7q-10 1 -15 13l-11 17q8 8 19 28v15q44 29 43 41l-8 132q7 10 6 21q0 12 -6 28q-7 68 -7 193v32q-8 15 -8 21q14 16 12 20l-12 58l-17 16q-30 -22 -74 -24 q-46 -23 -103 -65l-54 4l-127 -65q-3 -5 -9 -14l-21 -1q-61 -49 -187 -79l-13 -21v-26l-9 -15l9 -9v-84l8 -176q1 -29 5 -57q0 -12 5.5 -34.5t5.5 -35.5v-17l-2 -21l-11 -14l-33 -19l-12 -16l-28 -29l-18 -7l-24 2l-7 26l-1 19l9 29l7 34l-4 46l3 66zM44 255z" />
<glyph unicode="I" horiz-adv-x="1630" d="M68 938v30l37 117l93 82q7 10 11 22l53 34q8 0 70 14q42 18 98 60l33 -5q40 25 48 24q49 11 143 49q26 0 85 26q34 15 63 15q10 0 19 -2q15 11 113 47h13q48 0 136 17q74 14 121 14q15 0 28 -1q7 4 15 10l1 1h1l-2 -1h11q21 0 79 1q5 0 27 -2q26 -12 81.5 -14.5 t78.5 -10.5q57 -20 84 -76q1 -15 10 -35q1 -7 1 -14q0 -31 -15 -52h-23l-12 24q-8 8 -36 15q-67 53 -200 53q-15 0 -44.5 3t-43.5 3h-6q-47 0 -78 -14l-114 -13q-19 -5 -22 -16v-36l-4 -33l6 -30l7 -21l5 -45q0 -26 -3 -28q0 -19 -8 -80q-12 -23 -20 -157q-4 -26 -14 -49 l3 -48q-11 -22 -11 -68q0 -27 5 -67q-3 -8 -2 -23q0 -18 5 -54.5t5 -54.5q0 -15 -2 -23q16 -44 16 -111q10 -86 12 -100q12 -57 40 -84q11 1 34 11q41 34 112 54q96 27 116 40q98 26 294 53q19 -11 38 -67l-15 -26q-23 -7 -253 -38q-11 -12 -54 -27q-59 -20 -63 -23 q-23 -11 -62 -26q-35 -23 -121 -77q-4 1 -22.5 -9t-24.5 -10q-19 0 -42 -11q-30 -7 -83 -26q-8 3 -22 3l-89 -49l-22 -14q-10 0 -15 3q-45 -5 -143 -26q-30 -16 -98.5 -34t-99.5 -36q-60 -18 -147 -22l-55 54l-4 37q9 9 12 34l18 23q8 3 19 16q4 8 6 14l40 -1q7 -4 21 -10 q29 -4 53 -4q51 0 70 26q7 -3 20 -11q20 4 59 4q35 19 116 35.5t118 36.5l68 17q26 0 28 1q27 4 36 38q-1 3 -25 142q-12 74 -20 202q-10 27 -15 145q0 5 1 131q15 22 15 70q-3 7 -2 16v-1q1 0 12 69q-1 15 7 58q4 20 4 37q0 23 -7 45q-12 18 -12 57q0 8 1 18v22 q0 102 -44 102l-56 -9l-15 -18q-14 -7 -15 -4l-28 -2l-41 -20q-4 1 -10 4l-90 -47q-5 3 -14 3q-7 0 -13 -3q-18 -4 -25 -4l-102 -57q-8 -8 -66 -48q-44 -30 -54 -54l-84 -80q-37 -36 -82 -36h-2q-11 3 -58 16z" />
<glyph unicode="J" horiz-adv-x="1340" d="M-61 1054q-1 3 -1 7q0 16 10 48q-6 27 79 58q14 -1 51 6q29 5 46 -3q16 -3 34 -3q55 0 133 32q22 3 78 22q49 16 80 16q37 10 103 41q35 -4 56 5q3 5 9 13l115 16l63 21q4 7 26 15q66 16 151 31q98 42 303 48q19 -18 52 -13q34 5 48 6l49 -12l8 -21l-1 -11 q-15 -1 -37 -16q-41 0 -44 -1q-97 -14 -195 -29q-123 -19 -187 -44q-42 -10 -120 -46l18 -79q3 -11 32 -41q1 -8 3 -13q15 -42 67 -121q-1 -16 14 -33q7 -5 15 -19q0 -4 9 -27q12 -53 34 -168q0 -5 19 -75q8 -32 8 -58q0 -10 -1 -20q14 -24 14 -54q0 -8 -1 -17q2 -9 2 -31 q0 -15 -1 -36l4 -26l-27 -55q1 -8 1 -16q0 -19 -27 -82q-7 -4 -26 -57q-27 -19 -30 -47l-56 -52q-7 -14 -32 -45q-10 -23 -36 -42q-37 -26 -44 -34q-45 -22 -51 -23l-73 -30h-44q-30 0 -46 9h-47q-97 14 -130 112l-16 12l-53 110q-3 4 11 17l22 13l20 -4l8 -15q3 -7 22 -18 l19 -18l73 -71h21l88 -44l53 3q4 7 11 19q19 10 46 37q10 1 54 19l73 92l26 77l4 3q14 10 14 22l-4 19l18 40l8 26l-6 194q-4 10 -19 69q-33 61 -83 191l-35 56l-51 93l-45 88l-19 16l-10 41q-4 4 -23 9q-12 4 -12 18l-86 -5l-135 -41l-14 -15l-21 -6l-10 2l-67 -22l-44 -34 q-15 3 -31 2q-30 0 -96.5 -25.5t-92.5 -25.5q-55 0 -95 50z" />
<glyph unicode="K" horiz-adv-x="1246" d="M45 -56q14 20 14 57q0 20 -2 74l-1 -12q1 16 11 30q0 31 -3 26q22 138 62 214q4 14 2 23l22 71l14 18v26l34 90q-3 7 -3 8q15 14 14 40q0 7 -1 15q0 7 6 16q5 5 7 14l25 229l-10 18v124l4 93l-27 108q3 11 3 23l-36 138l6 68l22 50l72 -28h33q23 -5 32 -26q-4 -10 -4 -19 q0 -15 10 -33l-18 -34l4 -37q8 -10 8 -20q0 -4 -1 -14v-17q11 -18 11 -33q0 -8 -3 -17l19 -57q-7 -19 -6 -52q0 -16 3 -50t3 -51q0 -38 -9 -64q8 -25 3 -52l-11 -52q-4 -19 -3 -23q-10 -8 -10 -33l10 -38l117 -31l15 -11q11 -10 28 -8q15 5 20 24q79 55 103 98l66 54 q34 18 48 28q25 20 29 47q4 15 20 15q7 5 17 20l65 33q4 7 11 16l139 89l59 30q7 8 8 10l163 45l65 -30q10 -14 22 -40l-16 -7l-17 -19l-102 -8q-8 -4 -15 -11q-52 -7 -87 -42q-42 -7 -107 -70q-45 -44 -80 -50l-129 -104l-9 -23l-29 -15l-70 -73q-5 -7 -8 -17 q-35 -33 -42 -41q-22 -26 -26 -54l117 -138q6 -27 25 -47l37 -40q3 -8 31 -22q23 -23 66 -72q26 -11 91 -60q57 -44 97 -51q48 -8 108 -33q10 -3 26 2h1q11 -11 11 -21q0 -4 -1 -5l4 -11l11 -18l-3 -23l-19 -19q-11 -7 -30 -7q-18 0 -42 6q-16 0 -25 -13l-68 13 q-10 5 -79 36q-48 22 -78 51q-33 20 -101 56q-49 49 -88 78l-49 68l-63 82q-10 10 -20 24l-49 36l-41 -16l-34 -74l-37 -18q-7 -10 -18 -22l-83 13q-10 -59 -23 -129q-3 -8 -6 -19q-14 -26 -13 -20q0 -11 -3 -17l-8 -18v-21q-18 -18 -24 -65q-7 -56 -12 -69l10 -29l-37 -64 l-37 -19q-12 4 -26 4q-12 0 -26 -4q-3 1 -23 -1q-1 0 -3 1l-12 11zM319 479h20l35 18l34 59q1 4 1 8q1 12 -9 19q-9 6 -20 6q-5 0 -11 -1q-8 0 -29 -2q-15 -7 -15 -23l1 -11q-9 -20 -9 -42q0 -16 2 -31z" />
<glyph unicode="L" horiz-adv-x="1305" d="M113 179l3 109q12 51 12 92q3 8 3 23q1 8 6 19v22q1 10 10 20l24 156l19 42l9 60l43 133l6 52q0 7 10 34l10 27v12q0 14 4 32l26 31l16 63v16l36 86l-3 28q11 8 15 20q14 90 34 127v12q-1 7 -1 11q0 45 28 75h14l31 18l34 -5q5 -42 30 -62q2 -14 2 -29q0 -50 -21 -107 q-38 -102 -42 -126l-7 -35q-5 -8 -8 -26q0 -4 -7 -11l-20 -58q1 -12 -8 -19l-56 -165q-1 -3 -2 -14q0 -4 -7 -16l-13 -19l-17 -89l-15 -30l-20 -109q-19 -35 -22 -112q-1 -35 -15 -107v2q-1 0 -6 -126q-1 -13 -1 -26q0 -54 11 -94q8 -3 11 -11l3 -7q7 -16 17 -16v-3 q0 -10 5 -15q23 -23 60 -52q7 0 35 -4q18 0 33 7l154 -22q1 4 60 7l25 11q5 0 26 5q10 3 33 14q1 3 17 3l14 2l20 -6q8 4 22 0q18 -5 23 -4q4 3 13 6q49 -1 67 -6q27 7 58 19l77 5q11 11 31 11q10 0 21 -3q5 1 13 4l29 22q11 -4 29 -4l168 37q8 -1 15 -5q3 -1 17 2t17 3 q4 0 5 -1l54 -3l13 -34q-5 -12 -11 -27q-37 -10 -41 -9q-18 3 -23 -13q-11 5 -18 5q-5 0 -9 -3q-19 -14 -116 -27.5t-119 -28.5h-27q-20 0 -26 -6l-52 -18q-14 7 -32 4l-1 -1q-26 -14 -128 -28q-23 -16 -178 -34q-28 8 -66 8t-84 -8q-31 -5 -123 -20l-4 -4q-111 16 -113 17 q-60 15 -93 60q-34 27 -57 161q1 7 1 13q0 4 -2 11.5t-2 11.5q-3 -11 -3 18q-3 4 -3 19z" />
<glyph unicode="M" horiz-adv-x="1783" d="M145 -7l2 6l7 8q-3 19 -3 39q0 15 2 30q5 45 5 71q10 19 18 112q0 10 5 27.5t5 27.5q1 4 11 22l26 123l13 87q-3 3 -3 7l28 121l35 115l4 47l24 125q-4 0 9 17q3 20 12 58q1 19 3 51q26 30 21 50l-7 25l26 59l11 12q37 0 61 -10q20 -14 63 -42l59 -14l23 -28l19 -45 l41 -146q-1 -5 -1 -13q0 -7 1 -15q-2 -10 -2 -31t2 -55q1 -11 1 -22q0 -36 -8 -65q10 -11 18 -75q-1 -3 -6 -19l10 -28q-1 -4 -4 -15l8 -30q0 -86 25 -132q-1 -7 -2 -19l13 -15q-3 -11 6 -36q4 -7 19 -23l28 -64h15q56 0 89 26q1 4 2 9l25 4l50 48q7 15 44 53q33 34 37 54 l50 65l192 321q4 18 31 85q18 22 64 110l53 134l17 7q4 4 8 18q1 4 5 4l11 26q10 12 21 33q0 4 8 9q12 26 28 64t17 67l14 21v12q15 40 97 40l27 -22l7 -21q4 -3 12 -11l8 -17q-4 -7 -11 -20q-19 -67 -41 -206l-11 -20l-5 -36l-42 -175q-10 -18 -10 -21l-11 -36 q-1 -4 -7 -45q-3 4 -6 -15q3 -5 4 -33v-13q0 -45 -18 -65l5 -92l-8 -114l4 -58l7 -43q1 -25 10 -58l12 -125q3 -3 8 -9l6 -37q-1 -5 -2 -11q0 -16 13 -36q10 -59 40 -94q0 -8 2 -23l54 -72q27 -37 70 -49q7 4 18 13q12 -3 19 7l18 48q43 43 55 43h1q4 -12 4 -23 q0 -16 -14 -49t-14 -49l-8 -19l-15 -12l-26 -11l-26 -9l-24 5l-30 10l-26 14l-34 12l-40 29l-57 57q0 8 -19 36q-8 10 -22 26l-18 38l-18 40l-16 32q-8 5 -10 9l-12 69q0 5 -1 15l-15 52q1 4 -2 19l-1 25q4 4 3 35q-1 30 -17 63v8q0 58 14 163l-5 23l-3 22v22l20 138l21 53 q0 26 2 18l3 50q1 33 7 25l-1 2q8 18 8 35q0 3 4.5 11.5t3.5 11.5q10 22 7 52q-8 0 -22.5 -16t-13.5 -23l-12 -25q-5 -3 -15 -10q-3 -4 -9 -15v-11q-10 -7 -14 -15l-108 -216l-10 -28l-32 -32l-28 -74l-72 -94l-8 -28l-41 -67h-10l-54 -75l-22 -15l-27 -40l-133 -101h-33 q-7 -3 -11 -10l-56 -17q-23 0 -26 -3q-5 0 -15 5l-47 44q-26 30 -34 55l-15 11l-17 32q3 14 3 20q-15 25 -23 60q-8 20 -10 41q-4 48 -12 71v28l-12 43q7 7 6 17l-12 29l8 38q5 23 -5 40l-10 53l-7 134l-11 19l-24 11l-8 -34l-15 -29v-11l-28 -64l-23 -90l-24 -40v-12 l-15 -29l4 -32q0 10 -14 -24q-11 -27 -10 -38q-7 -41 -12 -49l-19 -68q1 -5 1 -10l-23 -82l-26 -168l-7 -104l-27 -46v-9l-20 -36l-74 10l-16 20q0 8 -7 19zM1470 897z" />
<glyph unicode="N" horiz-adv-x="1343" d="M44 -26q34 33 38 78l33 87q-3 3 3 22t6 22q0 8 12.5 32.5t13.5 31.5l26 36q4 48 45 97l47 131l46 86q1 4 7 11q5 22 5 12q12 10 13 20l9 36l44 80l4 22l12 15l4 23l25 61l23 35q8 1 15 10l33 58l35 104l55 137l44 15q18 -11 38 -11q5 0 74 19l41 -66q3 -23 6 -64 q-3 -20 11 -45l-6 -20q10 -20 1 -44q-4 -11 -15 -41q0 -67 -8 -82q0 -37 -19 -132v1q-1 0 -20 -74q4 -20 -5 -50q-1 -27 -4 -63q-1 -5 -1 -27q-3 -4 -2 -22q3 -12 -5 -22l1 -68q-5 -16 -5 -37q-7 -8 -7 -15l8 -79l18 -35q23 -4 48 24q4 5 64 65l54 92q18 12 56 97q5 3 34 69 q5 14 32 41l7 22l99 208l63 180l19 26l7 41l66 180q11 12 11 26q0 5 -3 12l13 41q5 10 10 26q4 11 14 23q20 1 41 22l11 11q14 5 27 5q20 0 41 -12q0 -10 4 -24l1 -3q-10 -12 -9 -27q0 -11 5 -26l4 -11l-61 -81l-51 -102l6 -13l-15 -31l-17 -64l-32 -96l-13 -19 q-15 -10 -20 -38l-2 -14l-30 -83l-15 -31q-18 -14 -38 -44q-11 -16 -82 -161l-28 -59q-11 -7 -11 -23l-11 -31l-30 -36l-51 -97q-3 -16 -37 -57l-79 -94q-4 -3 -14 -11l-23 -40q-10 -7 -23 -23l-55 -34l-75 19v1q0 5 -2 11l-19 12q1 4 -2 32l-15 76l-4 49q-3 5 -3 36l7 14 l6 12l1 22l14 88q3 18 0 36l4 29l7 60l1 42l-4 72l9 151q5 7 13 19l6 41q-4 8 -12 21l-5 39q-5 5 -18 5l-33 -57q0 -3 -6 -13t-6 -12v-3l-27 -45q-8 -12 -22 -30l-7 -5l-41 -98l-18 -35q-4 -4 -9 -8l-9 -28q-3 -7 -2 -25l-17 -20l-8 -29l2 -3l-15 -19l-18 -46 q-10 -7 -10 -19l-5 -17q-29 -12 -51 -94q-5 -20 -18 -47q-3 -8 -5 -23l-16 -9l-66 -161q3 -7 3 -14q0 -38 -11 -46l-30 -81l-11 -18q-4 0 -8 -9l-10 -13l-59 -36q0 -1 -13.5 -3t-16.5 -4l-32 11v30l4 12q3 10 -3 18z" />
<glyph unicode="O" horiz-adv-x="1052" d="M23 395h6q-7 8 -6 16l11 55l6 84l6 23l9 101v31q18 27 19 55q15 16 15 33l23 45l63 160l16 16l63 108v24q27 14 29 38l45 63h8l117 117v8l49 34h65l4 -2q5 -5 17 -14l11 -10l3 -38l3 4v-1q7 -14 15 -29l-2 -63l3 -32q-4 -3 -20 -6q-4 -1 -38 -23l-2 -1q-3 4 -9 9h-18 q-1 5 -7 14q-23 14 -34 13q-74 -44 -79 -90l-49 -45l-5 -22q-25 -19 -24 -34l-48 -94l-46 -72q0 -42 -13 -64l-12 -36l-18 -40q-7 -14 -16 -109l-14 -128l2 -108q-3 -16 -6 -25l30 -128l2 -22q38 -81 41 -84q19 -41 61 -70q3 -3 7 -10l90 -41l15 6q11 10 44 10q12 0 26 -1 l98 55l89 79q8 8 12 18l15 14l70 86l45 63q4 33 21 50l9 44q4 7 30 84q4 14 15 30q0 12 -4 25q10 15 10 67v9v15q0 48 6 61l-7 31l-19 96q0 5 -3 19q0 5 -1 13q-1 7 0 10l-20 48q3 12 2 23q0 11 -35 127q-8 27 -10 54q-5 10 -5 28q-4 11 -14 20l-12 52l-29 38q0 5 3 14 l-22 53l-85 -5q-5 27 -5 31q0 5 3 22l45 33q1 10 8 16l80 15q5 -11 21 -15q4 -10 16 -20l18 -28q3 -4 18 -20q4 -22 13 -32l21 -51l8 -40l47 -102l31 -99l16 -24l4 -36q1 -7 6 -31q-1 -19 1 -25l10 -20l-2 -52q15 -60 15 -87q0 4 3 -17q0 -5 -1 -11q5 -3 12 -16l3 -27 l-10 -126l-13 -22l4 -16l-10 -30l-26 -80q-3 -3 -8 -2l-34 -103l-62 -91l-54 -49q-3 -5 -6 -15q-22 -11 -43 -44l-66 -68l-49 -34q-7 -15 -16 -15l-22 -20l-71 -41q-15 -5 -21 -15l-34 -10l-35 -15l-37 -7q-12 1 -26 5l-29 6q-31 12 -76 34l-32 15q-12 8 -20 9 q-29 14 -58 33l-36 25q-1 4 -6 9l-22 53l-17 24l-3 1q-1 10 -4 21l-3 2l-57 215q0 4 -2 9v6q1 1 3 4z" />
<glyph unicode="P" horiz-adv-x="832" d="M37 269l7 27l8 79q4 40 23 77q3 35 22 90q23 67 27 90l8 41l30 87l26 117l-1 23l1 23q1 8 3 29l6 12l13 22l-4 31q10 11 18 44l20 14l22 57l11 14q7 11 41 68q16 18 42 58q19 41 63 61l4 12q25 15 56 27q16 16 69.5 28.5t70.5 26.5h21q11 1 20 1h41q46 0 117 -1 q41 -10 108 -38h42q1 1 6.5 -2.5t7.5 -3.5l38 -24q1 -3 5 -9l14 -15l15 -27l1 -27l-32 -123l-54 -51l-13 -22l-111 -118q-5 0 -13 -3l-85 -82l-30 -23l-33 -25q-31 -31 -39 -31q-5 -4 -21 -26l-38 -25l-60 -32q-14 -14 -14 -15l-20 -16l-19 -15q-10 -4 -22 -15l-22 -8 q-1 -3 -3 -4l-40 -37l-25 -12q-23 -14 -26 -18l-29 -12q-8 0 -14 -3l-11 -5q-11 -5 -12 -10q1 -4 0 -9q-4 -7 -4 -11v-47q0 -34 -1 -37l6 -23q1 -12 6 -17l-6 -21l-1 -117l-11 -24q10 -23 0 -62q-11 -46 -11 -62q-10 -38 -30 -113q-8 -5 -26 -17q-30 -8 -57 -5q-5 -8 -6 -15 q-4 -4 -13 -12q0 -5 -3 -14l-19 -5q-18 5 -26 23l-30 112l3 49l-6 35v88q0 11 -1 23zM248 638q0 -8 13 -29h11l91 59l81 75l22 13q5 10 24 25v8l55 29l13 20q8 1 26 26l92 63l24 34l9 14l13 9l34 15l9 26l32 28q7 16 21 27l9 8q25 20 28 45l43 74q0 14 15 50l-21 33l-21 13 q-3 10 -22 19q-11 -1 -23 -4l-42 8l-17 4l-24 -3l-62 8q-44 -4 -88 -12l-22 -10l-33 -2q-7 -3 -11 -10q-52 -16 -87 -68q-4 -3 -19 -10l-40 -46q-1 -8 -8 -23q-5 -10 -19 -17l-9 -52q0 -7 6 -13q12 -8 27 -29l-15 -68l-11 -19v-21l-12 -9q-3 -15 -16 -44q-1 -10 -13.5 -30.5 t-12.5 -32.5q-25 -59 -22 -74q0 -25 -11 -40z" />
<glyph unicode="Q" horiz-adv-x="1089" d="M51 486l1 -79l14 -186l27 -61q26 -59 86 -94l18 -15q5 -4 13 -7l19 -18q42 -15 47 -19q5 1 9 -1.5t6 -2.5q4 -5 31 -6q3 0 13 -2.5t17 -1.5q19 0 26 -5q-11 -4 25 -4q22 0 28 -3l39 -8q8 1 28 9q61 25 155 47q14 0 30.5 12t23.5 14q3 7 20 20.5t24 13.5l26 20q0 12 11 17 q11 0 12 -18l14 -23v-10l34 -52l15 -49q12 -18 16 -27l21 -26v-7q5 1 11 1q12 0 23 -8l9 -29l25 -9l27 8q3 7 7 12q15 25 15 29q-1 11 4 19l-11 22q1 7 3 15q-22 38 -31 59q0 11 -10.5 34.5t-10.5 36.5q-22 20 -26 69q-1 14 -10.5 44t-9.5 47l20 27q12 12 36 30q12 20 15 38 q16 20 20 36l18 43l34 88q14 121 14 184q0 20 -2 35q0 7 -1 15l-41 201q-3 3 -7 22q-5 11 -4 33l-26 35l-46 58q-10 4 -17 6l-5 6l-18 8l-19 18l-9 8q-10 4 -14 11l-11 3q-22 8 -34 26l-8 12l-21 4q-63 37 -100 46q-14 -1 -24 -1q-30 0 -44 11q-4 -3 -9 -8l-22 7l-18 -9 l-20 9q-23 -12 -45 -14l-29 -37l-19 -7l-11 -32l4 -63l5 -4q12 -10 25 -7q45 11 86 72l31 8l67 -11l14 -5l11 -4q5 3 18 -3l72 -34l22 -19l13 -21q4 -1 21 -9l5 -21q35 -22 59 -84v-29l3 -1q7 -7 9 -26l5 -25q7 -20 12 -27q-3 -7 -3 -15q0 -23 23 -60v11q2 0 7 -108v-14 q0 -48 -18 -83q3 -22 -8 -60t-11 -56q-25 -53 -34 -79l-22 -24h-15q-18 5 -24 24l-54 97l-17 11l-21 -2q-5 4 -12 8l-15 -6l-42 6l-30 -11q-3 -4 -3 -13q0 -8 1 -19l-22 -69q0 -5 8 -12l5 -3q8 -5 12 -13l34 -13q52 -61 85 -129l-58 -74q-10 -12 -31 -23l-27 -14l-71 -46 q-30 -20 -64 -20q-10 0 -20 2q-20 -8 -31 -12l-29 -4l-69 23q-4 1 -37 13q-15 5 -26 6q-51 41 -63 65q-7 7 -12 11l-15 29v-1q-3 0 -24 83q-1 38 -16 93q0 281 34 418l15 35v10q5 14 10 30q18 72 27 87q11 31 21 42q3 18 4 36l16 20q15 15 19 25q19 44 30 61q34 41 51 74 q26 52 82 93q4 11 8 15q18 12 37 14q12 8 24 13l43 -42q5 0 8 -1q4 1 7 1l13 15l44 -4l14 15l-11 71q-1 8 2 26q-4 12 -10 29q-2 9 -7 24l-17 32l-45 1l-49 -19q-4 -3 -5 -6q-56 -35 -78 -35h-2l-61 -64q-19 -26 -34 -36l-52 -63l-44 -90l-15 -24v-2q-1 -5 -4 -8q1 -4 6 -12 l-56 -82q-1 -12 -21 -47q-15 -26 -11 -51l-17 -33l-5 -4l-69 -242l3 -38l-15 -83q1 -11 4 -25l2 -8l3 -13zM66 221zM934 -94z" />
<glyph unicode="R" horiz-adv-x="815" d="M34 382l6 -149l5 -76l16 -76l21 -82q1 -1 3 -2q19 -19 17 -43q8 -5 11 -9l71 11l10 10l35 11l22 27l-27 87q0 31 -1 28q-4 5 -10 19q1 21 1 43q0 131 -37 256q-3 5 -2 11q0 7 5 12q-1 8 -13 42l-5 116q-7 15 -6 32q0 23 12 46l-7 111l12 29l33 97q3 1 4 2l-7 21l11 35 l34 77v22l22 38q127 131 201 168q14 7 30 19l53 3l13 -14q16 -18 16 -43q0 -13 -4 -29q-5 -23 -26 -89l-22 -64q-8 -8 -15 -13l-5 -23l-41 -57q-18 -42 -49 -71v-8l-24 -51l-45 -50l-4 -18q-8 -15 -13 -22q-3 -3 1 -11l-36 -46l-12 -37q-5 -10 -18 -23q1 -3 -5 -9t-6 -11 q-18 -44 -24 -64q-16 -31 -16 -78q0 -10 1 -21l-4 -18l1 -15q0 -3 6 -8.5t6 -8.5q11 -33 43 -57q68 -52 144 -57l86 -6q8 -3 21 -2q14 0 53 8q34 7 55 2q101 8 154 9l120 22q85 15 178 15h12q5 4 25 4q33 0 26 1l15 3l25 1l28 7l18 4q18 14 20 12q4 5 4 14l-19 5q-5 4 -31 6 q-12 -1 -25 -1q-26 0 -55 6l-28 -1q-30 -1 -39 1l-32 -4l-17 -2l-83 -3l-102 -11l-133 3l-26 -5q-30 3 -61 9l-62 1l-114 21q-4 5 -4 10q-8 7 -14 10q-23 14 -23 57q0 7 1 14q3 37 1 45q8 41 16 83q12 48 43 70l59 98l39 62l41 87l14 16q10 37 51.5 96t52.5 90q23 68 23 137 q0 45 -12 84l-33 25q-3 7 -5 15q-29 14 -67 14q-25 0 -100 -13q-3 -4 -7 -7q-22 -23 -54 -19q-18 -14 -43 -16l-2 -5q-5 -4 -17 -9l-4 -1l-31 -36l-47 -46q-18 -3 -48 -40q-37 -45 -47 -53q-31 -40 -50 -56q-23 -42 -34 -64q-72 -41 -88 -86l9 -25v-15q-1 -14 -1 -21 q0 -15 1 -39q3 -45 12 -75q-4 -12 -12 -22l-12 -143q5 -8 5 -30q-7 -11 -2 -22q5 -14 5 -22l-10 -52q1 -8 2 -24v-27l-2 -52q-2 -2 -2 -13q0 -8 1 -19z" />
<glyph unicode="S" horiz-adv-x="909" d="M-38 815l8 56l18 53l19 36l15 19q10 4 13 11q3 3 5 9l155 145q14 7 17 19q8 4 45 40q-1 5 22 15l20 11l59 45q3 7 7 8l31 10l29 20q5 3 8 10q27 8 75 37q108 45 201 68h68q6 4 17 4q9 0 22 -3q30 -7 50 -1q41 -4 79 -68l-26 -71h-14q-5 -12 -27 -36l-6 -4l-19 -4l-17 13 q-4 1 -6 5q0 35 -30 43q-8 -3 -18 6q-15 10 -19 11q-23 11 -50 11q-14 0 -30 -3q-3 -1 -82 -22q-18 -10 -52 -27q-38 -5 -67 -41l-42 -13l-51 -39l-123 -86q-3 -5 -2 -11q-81 -64 -118 -134l-22 -16q-3 -11 -2 -18l-20 -23l-11 -62l46 -68q5 -4 10 -10q12 -25 25 -32l21 -13 l106 -31q16 -16 49 -20l53 -7l111 -32l120 -46l36 -3l37 -13l121 -61q11 0 31 -57q3 -16 -6 -35q0 -30 -60 -95q-10 -25 -33 -36q-59 -30 -111 -82q-31 -18 -97 -78q-59 -53 -101 -71l-80 -48q-14 -8 -33 -20l-42 -14q-16 0 -28 -12q-5 -11 -12 -11q-8 4 -14 4q-5 -3 -15 -8 q-53 12 -75 34l-8 28q0 11 4 30q25 14 31 35l46 10q4 -10 25 -20l9 -19q5 0 13 -3l118 57q11 10 43 31q23 11 29 28l120 96l51 50q12 10 33 37q16 7 13 21l19 34q-3 4 0 16q3 16 -9 22q-19 19 -77 44q-14 3 -58 23q-33 14 -56 14h-6l-123 40l-183 52q-15 1 -37 17l-72 30 l-71 54q-38 72 -34 95q-10 14 -8 20z" />
<glyph unicode="T" horiz-adv-x="836" d="M-165 887q0 7 4 14l-1 23l9 25q-3 10 -4 23v7q15 5 52.5 41.5t56.5 44.5q7 14 17 19l8 4l35 19l114 74q5 -1 15 -1l20 13l96 43l9 17l41 18l307 98q16 10 56.5 15.5t58.5 16.5q16 -3 62 8q16 4 30 5q19 0 35 -9q38 3 90 20l32 -19l34 14l127 -21l97 -8l20 -17q5 0 11 1 h11q11 0 20 -8q27 -7 86 -17l40 -26l-19 -32q0 -8 -11 -13l-11 -4l-304 30q-12 5 -44 13q-11 -1 -27 -1q-21 0 -50 2q-6 1 -14 1q-39 0 -129 -12q-42 -5 -60 -22q-4 -5 -10 -15l-16 -9l-38 -11q4 8 4 -33q-3 -19 -11 -47l-1 -2q0 -87 -14 -125q-1 -16 -14 -122 q-8 -71 -8 -123q0 -23 2 -43q-1 -3 -2 -4l-8 -123q3 -4 1 -16q-1 -12 0 -15l-11 -116q-4 -1 -6 -45q-5 -34 -5 -71q2 -44 2 -75t-2 -48l3 -68l14 -60q0 -35 16 -55q0 -10 6 -22l1 -28l15 -33q-31 -30 -154 -38q-16 4 -17 31q0 10 2 20q0 45 -18 192q4 11 -1 57q-1 12 2 44 q0 12 -4 27l-4 33l6 80q1 12 7 37q4 4 5 15l5 77v23l7 24q0 8 -4 33l6 75q1 25 12 122q8 75 8 121q0 14 -4 55q0 11 -4 41v158q-11 14 -15 15l-71 -20l-217 -94q-7 1 -21 1q-20 -4 -94 -78q-20 4 -33 -11q-1 -7 -1 -15q-7 1 -23 -7l-33 -37q-1 -1 -1 -2q-4 -5 -6 -14v-7 l-16 -15q-12 -26 -26 -37l-83 -21l-3 1l-25 1z" />
<glyph unicode="U" horiz-adv-x="1115" d="M7 358l7 303l23 138v95l-2 41l13 63q-4 10 -4 16q0 10 12 20l20 27q16 12 37 46q12 14 29 14q10 0 19 -3l37 -64l16 -91q-5 -11 -16 -108q-7 -63 -31 -90v-58q1 -3 2 -11q-5 -4 -11 -22l-5 -87q-5 -8 -10 -89q-3 -3 9 -53l5 -57q3 4 3 -22l48 -141l51 -94q14 -8 22 -29 q69 -38 85 -38h1q7 -1 17 -1q16 0 47.5 8t47.5 8q8 0 14 -1q31 19 102 60q41 31 108 105q40 20 98 115q5 1 14 9q3 1 7 3l97 162q18 7 54 100l39 97q1 7 12 40q3 26 16 127q11 81 11 127q0 52 -9 95q7 10 7 29q-5 10 -5 22q3 26 3 39q-3 27 -19 78l-16 104q-3 4 -8 11l-5 39 q10 25 36 59l75 23l29 -9q8 -7 13 -11v-29q0 -14 15 -34l3 -3q-1 -5 1.5 -18t2.5 -17q0 -52 14 -68l13 -153l-4 -34l-2 -31l4 -31l-4 -34q7 -4 8 -7l-11 -102q0 -4 -3 -17q-4 -19 0 -24q-1 -5 -1 -23l-37 -119v-21l-30 -84q-31 -22 -46 -84q-12 -8 -14 -15l-21 -35 q-34 -19 -53 -77q-23 -68 -39 -91l-152 -171q-25 -1 -79 -68l-17 -11q-7 -3 -24 -20q-7 -11 -18 -11l-151 -110l-86 -46l-130 -16l-66 23l-61 63l-22 11l-15 34q-41 34 -61 84l-40 100l-7 89z" />
<glyph unicode="V" horiz-adv-x="1230" d="M117 1130l39 107q10 8 12 16l7 19q11 11 28 11q15 0 37 -8q14 -10 52 -52q-1 -30 -1 -41q0 -45 16 -72q5 -22 32 -161q5 -29 21 -119l65 -162q5 -3 6 -2l17 -87q-1 -3 3 -10.5t4 -8.5q0 -7 4 -21l15 -26q4 -15 30 -77q5 -10 12 -15l1 -5q3 -5 10 -26l12 -36l10 -59 l139 -201l38 -28l21 -7q11 4 23 5q1 1 4.5 3.5t25.5 13.5l42 21l110 186q0 11 5 19l6 8q12 19 13 32q16 44 37 145q19 33 27 109q7 66 32 93v60q-4 3 8 45l7 45l15 68q-7 18 -7 38q0 27 8 59q4 15 12 61l14 106l26 158l11 26q3 19 15 59l-3 32l10 6l29 12l30 6q20 -8 34 -7 q23 -4 38 -43l-22 -136l-27 -63l-13 -38q-1 -8 -9 -37l-27 -172q-7 -10 -10 -27l-23 -155q1 -5 4 -17q-7 -26 -26 -130q-14 -74 -38 -124q0 -19 -12 -62q-10 -35 -11 -58q0 -6 1 -10l-45 -93l-26 -100l-59 -99q-8 -10 -15 -25q-19 -57 -130 -140l-91 -41l-64 31q0 4 -15 9 t-17 9q-18 3 -56 26q-19 0 -36 23q-23 51 -58 98l-60 86q1 7 -5.5 22t-6.5 16l-57 140l-28 79q-3 5 -7 8q-1 44 -28 85l-66 255q-16 66 -61 190q-4 45 -58 155z" />
<glyph unicode="W" horiz-adv-x="1507" d="M68 530l32 433q17 78 17 147q0 14 -1 27q-4 72 -4 101q0 12 1 17q1 8 4 34q0 18 -1 33l4 5l7 26l35 16l37 -6l41 -36l8 -35v-10q0 -54 -23 -255q-11 -16 -27 -118q1 -14 1 -24v-37l-5 -48q-3 -12 -1 -38l-6 -134q-12 -23 -11 -48l-4 -73v-264l31 -86l17 -20v-2 q42 -83 111 -83q7 0 14 1q76 38 149 124q22 26 133 163l30 97q10 33 12 80q1 16 23 69q3 33 22 119q12 54 12 94q0 11 -1 20q3 14 7 33l11 49q5 7 33 36l36 13l9 22q4 3 34 4q16 1 26 -5q10 -23 10 -64q0 -10 -1 -22l-4 -96l-78 -288l-37 -123q3 -18 7 -28v-52q5 -8 8 -14 l3 -53l38 -66q72 -26 133 -26q87 0 153 54l75 73l15 18l8 11l90 135q4 12 11 30q14 35 21 42q35 46 38 85l63 213l9 87l15 62l2 38l31 407q7 7 20 26q16 4 33 20q3 0 7 -1q14 -1 29 6q7 3 13 3q10 0 14 -8l14 -20q-8 -35 -9 -52q-1 -7 -4 -18l3 -38q-1 -23 1 -40 q-9 -24 -9 -67q0 -12 1 -25q2 -59 2 -80v-9l-21 -111l4 -9l-5 -60l-8 -49q-8 -16 -10 -25l-30 -132l-5 -16q-3 -10 -11 -35l-9 -22q-27 -53 -43 -116q-15 -41 -41 -70l-19 -49l-25 -31l-45 -67l-16 -30l-54 -79l-90 -89l-34 -25q-20 -5 -46 -16q-29 -3 -89 -29 q-76 -33 -113 -33q-5 0 -9 1l-19 -9q-29 3 -87 15q-29 18 -81 61l-20 38l-10 35q-3 26 -20 45q-29 -5 -57 -32q-48 -45 -55 -50l-30 -41l-33 -31h-3q-8 0 -27 -20l-57 -43q-18 -16 -86 -45l-86 7h-28q-51 35 -65 75q-25 15 -45 154q-3 3 -6 4z" />
<glyph unicode="X" horiz-adv-x="1209" d="M132 1201l37 39l29 1q10 3 15 7q63 0 85 -41l-2 -8q16 -22 36 -47q3 -1 5 -4l29 -30q22 -23 30 -23l76 -61l66 -43l79 -72l26 -32l19 -20q7 -7 17 -19l57 -41l60 146v12l37 69l48 161l28 64q18 38 19 56l6 48l14 53q19 18 24 35q30 5 60 55q34 -3 81 -68q8 -7 8 -19 q0 8 -14 -60q-12 -23 -23 -33l-93 -170l-67 -169l-6 -24l-20 -45q-1 -5 -6 -18l-6 -19l-68 -176q8 -11 11 -17l23 -19l72 -66q14 -14 58 -53q11 -18 39 -37q34 -22 44 -32q31 -18 44 -29v1q11 -14 44 -26.5t44 -23.5l48 -25q10 -12 64 -52q5 -16 9 -56q1 -14 -5 -38 q1 -10 10 -23l-35 -40l-29 -2q-10 -3 -15 -7q-64 0 -85 38q0 11 -3 20q-12 16 -16 29q-23 10 -27 14q-48 45 -55 48l-80 66l-63 35l-81 71l-24 28l-19 19l-33 24l-43 39l-60 -149v-12l-20 -41l-10 -42l-50 -148l-28 -65q-18 -42 -17 -56l-3 -19l-3 -30q-3 -11 -8 -25l-4 -30 q-19 -16 -25 -33q-30 -7 -58 -56q-34 1 -84 66q-8 8 -8 20q0 10 7 30.5t7 29.5q12 22 23 30l90 174l101 277l84 164l-58 72l-23 21l-29 27l-72 57q-57 49 -123 101q-35 15 -87 51l-48 24q-15 19 -42 15q-15 -3 -21 9q-1 7 -11 42l3 75q0 4 -6 31z" />
<glyph unicode="Y" horiz-adv-x="817" d="M-16 1262q5 -52 5 -43l38 -57l14 -26l116 -229q7 -7 86 -73q10 -8 31 -20l36 -21l14 -13q8 -1 20 -11l59 -47l12 -5q15 5 40 -33q4 -1 17 -16q5 -10 6 -123q0 -20 -7 -44q-1 -37 -5 -79v-40l-14 -28l-12 -89l4 -21l-18 -127l4 -16l-7 -76q-1 -15 0 -32l-5 -34l12 -23 q0 16 10 -18l43 -23q10 5 36 34l5 42q0 12 4 32q12 56 10 58l3 59l27 157l37 251l11 118q3 29 -4 57l41 34q7 4 17 22l18 18q5 5 23 24l14 17q3 4 18 15l8 14l30 46q1 0 5 3l15 27l21 33l8 35q29 63 29 74l59 212l1 31l7 112q3 1 5 7l-5 42q-8 8 -19 30l-52 10q0 -5 -4 -17 l-39 -15l-8 -13l-11 -4q-3 -3 -13 -21l-17 -27l-5 -40l9 -24q0 -5 -1 -11q0 -5 3 -9h28q-10 -78 -52 -249q1 -7 -19 -85q-53 -98 -91 -135q-33 -14 -85 -45l-48 -8q-3 1 -9 5l-44 10q-7 4 -11 13l-41 28l-76 47q-8 14 -38 51q-19 23 -26 42l-80 153q-18 35 -16 44 q-4 10 -14 23l-23 67q0 15 -8 33l-31 23q-4 0 -7 -3l-15 3l-49 -30l-21 -30q-1 -10 -9 -23z" />
<glyph unicode="Z" horiz-adv-x="1571" d="M123 1247l3 16q11 8 24 22q20 8 44 16q34 0 26 3l109 18q8 1 29 8l49 9l68 11l111 6l32 4l17 4l61 5q3 3 32 3q14 0 17 2q41 0 54 -2l73 -8l107 -8l49 -10q11 -1 45 -9q7 -3 25 -11l53 -22q3 -3 38 -22q10 -5 71 -67l17 -16q4 -14 9 -30l10 -21q5 -15 12 -46q0 -10 3 -48 l-2 -1l-1 -18l-8 -26q-7 -15 -17 -33q-1 -14 -49 -79.5t-60 -70.5q-23 -27 -49 -63l31 8l50 11l38 18l87 18l26 -17l4 -43l-9 -26l-28 -33l-105 -29l-150 -23h-38q-12 -12 -36 -41q-7 -5 -27 -23l-23 -20l-56 -51l-142 -105q-10 -16 -21 -23q-7 -12 -53 -40q-4 -10 -48 -50 l-24 -24l-17 -17l-39 -45l-36 -37q-18 -27 -17 -56q3 -30 20 -56h8q1 0 13 -5t14 -3q3 -4 29 -5q10 0 30.5 7t28.5 7q20 0 63 16q18 4 46 7q20 8 57 26l26 2q19 12 73 18t75 20l101 4l108 15l50 14h186q3 -1 40 -7l50 -8h33q4 -3 13 -6l14 -4q4 -18 6 -20l1 -43 q-5 -8 -59 -16q-15 8 -33 8q-16 0 -46.5 -2.5t-47.5 -2.5l-24 -3l-116 -10l-66 -13q-8 1 -16 1q-20 0 -45 -10l-63 -24q-1 3 -6 3t-15 -9q-10 3 -17 -2q-15 -11 -24 -4q-20 -3 -45 -11l-27 -6l-29 -12q-12 1 -23 1q-26 0 -39 -11q-22 -11 -92 -28q-45 -22 -63 -22 q-49 0 -39 -3l-15 -5l-32 -3q-44 -10 -93 -12q-25 7 -72 32q-11 0 -30 29t-23 31l-6 22q0 10 -4 23l-1 7l5 56l6 30q5 18 19 49l18 41q11 8 22 22l25 25l37 37l30 28l48 40q12 12 44 34l31 22q3 4 17 18l49 50q15 8 28 18l24 27l90 73l12 17l-19 -8l-57 -16q-19 -5 -51 -15 q-20 -27 -172 -36l-12 -5l-17 -6l-16 13l-3 16l7 36l12 32l35 28l87 27l60 5l44 14l53 12l50 3h47l16 8l51 11l35 55l30 48l47 58l16 44l22 26l23 41q0 31 12 48l-9 46q-4 10 -16 32l-17 20q-14 7 -41 29q-5 5 -15 11l-14 8q-89 54 -182 54h-3q-12 0 -26 -1q-34 7 -74 7 q-22 0 -45 -2l-79 -6l-16 -3q-18 1 -36 1q-64 0 -128 -19q-7 0 -19 -3h-4q-17 0 -78 -20q-12 -4 -26 -3l-96 -37l-52 -9q-4 -1 -6.5 1.5t-5.5 2.5q-14 0 -23 11q-1 0 -4 4.5t-7 3.5h1v1q-15 4 -19 13q-9 8 -9 25q0 5 1 12z" />
<glyph unicode="[" horiz-adv-x="858" d="M-4 1238q1 -4 5 -2q4 0 6 1v1q3 11 7 36l32 52l70 50q25 -10 53 -2q33 8 54 12q12 3 32 -2q26 7 64 10q78 5 153 27q45 3 215 22q52 5 139 40q46 5 94 -34l2 -17l-9 -15q-3 -14 -36 -33q-5 -3 -25 -13q-3 -7 -7 -12l-1 -2l3 2q-11 3 -24 -2q-44 -27 -127 -19 q-115 11 -164 -3q-7 -8 -9 -11q-25 0 -74.5 -4t-74.5 -4q-74 -19 -146 -34l-7 -1q19 -162 34 -306q16 -158 -13 -276l1 -26l-5 -149l-43 -479q30 -11 58 -11q35 0 83 21q108 31 176 31q52 0 100 -14l23 -27l1 16l-7 -5q-18 -15 -21 -31l-3 -13q-37 -16 -86 -16 q-168 -26 -266 -79q-72 -16 -215 -34l-24 16q3 10 8 25q40 48 46 114q3 30 14 120l19 137q1 46 25 130q-10 25 -10 65q10 27 12 75q1 25 9 79q0 25 -3 71q11 26 3 97q-1 12 0 33q-5 15 -11 66q-4 38 -17 61q3 15 3 32q0 25 -10.5 70.5t-11.5 65.5l-83 96v6h-11v-4z" />
<glyph unicode="\" horiz-adv-x="1030" d="M35 1382q-1 7 0 27l52 55l40 8q35 -18 59 -22l20 -31q3 -40 25 -80q1 -4 39 -71q11 -37 58 -98t58 -98q18 -11 60 -62q52 -53 76 -90q14 -12 20 -16l209 -322v-11q10 -11 16 -25q30 -63 45 -78q66 -109 93 -166q31 -135 67 -201q-1 -30 6 -86q5 -44 -10 -63l-50 -26 l-56 11l-10 120q-1 22 -16 78q-12 48 -11 78q-100 248 -265 481l-33 64l-29 18l-95 126q-7 20 -36 41l-17 33q-42 37 -157 193z" />
<glyph unicode="]" horiz-adv-x="772" d="M33 1357q1 3 20 34q12 20 36 19q18 -10 105 -27q63 12 191 60q123 46 191 58q56 -4 90 -40h10l22 -33q37 -139 37 -186q1 -55 9 -158q-1 -22 1 -59q3 -35 -4 -61q8 -15 9 -37q0 -19 -7 -44l-2 -188l-4 -4q-12 -16 -9 -36q8 -30 11 -75q1 -22 -9 -39q1 -34 -4 -108 q-3 -37 -2 -73q0 -23 1 -41q-3 -16 -3 -32q0 -49 37 -119l-19 -63q-48 -29 -82 -34q-49 -29 -153 -63.5t-150 -59.5q-34 -4 -90 -56q-23 -22 -47 -27q-31 -19 -42 -66q-5 -23 -14 -43l-49 -26l-53 20l-9 49q14 15 36 60q149 169 361 232q12 12 24 18q42 10 58 15 q76 27 72 114q-3 67 6 87q12 149 10 201q23 70 24 465q0 198 -56 325q-41 34 -67 29q-5 -1 -51 1q-30 1 -67 -15q-25 -11 -125 -43q-42 -1 -88 -18q-14 3 -90 -6q-37 -4 -50 22z" />
<glyph unicode="^" horiz-adv-x="795" d="M51 736l20 -36l18 -5l22 12l19 26l17 73l67 113q8 8 10 20l27 44l49 68l26 41q12 45 45 78q5 4 17 -7l5 -22q12 -12 70 -118q44 -82 108 -159q30 -37 90 -102q3 -4 3 -11l16 -22q0 -1 -6 -26q-4 -21 22 -33q8 -3 21 6t18 11l5 5l20 7q0 8 8 22.5t8 22.5q0 5 -3 11l-3 42 q-48 48 -128 153l-18 14q-29 38 -63 109q-14 27 -39 73q-4 12 -26 57q-16 34 -17 57q-1 4 -5 7q-4 16 -19 48q4 19 -15 33q-7 0 -10 4h-38q-20 0 -37 -14q-4 -8 -14 -15l-13 -34q1 -7 1 -14q0 -18 -15 -48q-18 -37 -20 -47q-8 -16 -26 -50q-14 -45 -58 -98q-26 -48 -87 -134 q-14 -29 -47 -82q0 -7 -15 -37.5t-10 -42.5z" />
<glyph unicode="_" horiz-adv-x="1520" d="M-48 -274l49 90q79 25 291 24q224 0 317 17q194 34 659 27q51 -7 155 -23l61 -36l29 -97q-60 -4 -111 0q-46 4 -213 24q-141 16 -213 16q-111 0 -205 -25q-119 -1 -353.5 -45.5t-353.5 -45.5l-37 8z" />
<glyph unicode="`" horiz-adv-x="305" d="M0 1253l4 4q4 7 15 17q11 0 34 8t37 7l19 -11l34 -67l4 -5q23 -31 40 -82q14 -29 56 -77l5 -12l11 -4l18 3q33 -18 29 -50l-38 -46l-4 -3l-81 25q-38 48 -67 104q-11 22 -16 28q1 16 -25 51l-34 45q-8 1 -23 5l-11 13z" />
<glyph unicode="a" horiz-adv-x="750" d="M-10 105q0 -18 5 -39q12 -67 49 -81q22 -3 43 -3q50 0 96 18q20 8 59 20l38 36l41 41q14 4 14 11q11 7 24 27q5 5 21 15l17 25l24 30q12 12 27 31q8 7 18 19q1 -5 6 -12l2 -14q-1 -5 0 -12l12 -55l21 -35l12 -51q10 -10 60 -65q37 -41 71 -55q8 -10 49 -15l48 -23 q18 -2 38 -3q1 7 8 14q7 3 8 10q-3 7 -2 19l-13 16l-80 45l-71 68l-49 78l-18 71q0 11 4 33.5t4 33.5q0 7 7 79q1 14 7 18l19 55q-1 5 -4 12q16 48 16 70q0 5 -1 9l7 49v63l2 27q-3 7 -4 21q3 26 -5 39q-38 35 -78 39l-16 1h-15q-20 0 -101 -9q-12 -7 -36 -14l-52 -33 l-31 -40q-8 -7 -19 -13l-44 -48l-49 -46l-42 -55l-29 -49l-29 -42q-20 -44 -42 -104q-12 -33 -12 -43l-30 -139zM100 182q0 8 1 17q11 34 26 104l57 122q8 18 62 92q10 14 35 36l63 82q4 0 11 4l37 33q11 -1 20 5l55 14q3 -1 5 -7q48 -26 54 -90l-14 -51l-22 -32 q5 -7 -5 -41l-25 -63q-5 -3 -11 -7q-16 -23 -46 -81q-29 -26 -44 -51q-4 -4 -9 -3l-17 -26q-20 -16 -20 -22l-25 -26l-27 -30q-42 -34 -60 -45q-35 -22 -73 -27q-3 -1 -6 0q-11 0 -14 8l-4 59q-4 12 -4 26z" />
<glyph unicode="b" horiz-adv-x="905" d="M-18 89q8 -5 19 -23v-28l52 -35q0 -34 34 -51q15 -3 43 -13l2 2q5 0 55 11q31 7 55 2l58 19q5 0 22 15l100 37q0 1 7.5 3.5t7.5 6.5l26 16q25 25 41 32l76 54q35 25 75 79l59 43l41 43l52 69l9 30q22 14 56 99l10 9l14 32q3 8 8 37l-2 46l-16 63q-26 20 -76 64 q-12 8 -39 22q-34 12 -71 12q-68 0 -158 -44l-19 -19l-29 -11l-98 -86l-66 -65l-16 -13l-19 -19q0 -15 -26 -26q-4 0 -8 3l16 27q-3 12 14 41l19 45q4 -8 5 16q1 29 3 31q11 22 11 34q0 1 4 10t4 11l18 53l78 246q0 3 4.5 10t4.5 9l29 79q1 7 4 22q12 29 17 49l31 91 q4 14 19 48l26 103l7 38q3 8 3 13t-18 22q-5 5 -26 6q-1 -4 -7 -10l-14 -22l-21 -32q-48 -51 -84 -162q-41 -126 -63 -178q-7 -26 -19 -77l-27 -70l-96 -316q0 -7 -6 -22q-29 -63 -28 -73q-15 -41 -49 -124q-1 -7 -10 -30.5t-9 -29.5l-33 -76l-24 -78q-4 -3 -9 -22 q-5 -10 -16 -31q0 -10 -9 -22zM167 85q0 20 24 71q5 3 12 9q0 4 2 11l16 42q4 11 15 25q1 11 4 25l29 69q8 3 26 34l22 25q12 8 26 33l50 64l38 22l41 39l15 22l62 55q70 30 127 30l54 -25l22 -45l10 -12v-25q-3 -5 -17 -68q-12 -18 -34 -53q-8 -16 -37 -59l-43 -56 q-19 -7 -26 -31q-14 -5 -25 -17l-46 -46l-111 -72q-7 -14 -27 -26l-36 -22q-22 -11 -69 -32q-37 -7 -90 -21l-30 9q-4 11 -4 25z" />
<glyph unicode="c" horiz-adv-x="705" d="M-3 220q-1 -6 -1 -12q0 -28 11 -66l11 -41q1 -3 7 -8l17 -49q7 -5 25 -17q4 0 14 -12q46 -41 79 -49q13 -1 29 -1q52 0 135 10q15 5 91 28l38 11q1 0 9.5 4t9.5 4l59 24q11 5 41 18l163 60q1 3 8 6q7 -1 23 1q4 7 18 15l20 7q8 4 18 22l-11 19q-7 1 -15 1q-15 0 -31 -7 l1 -1q-4 -3 -29 -3q-4 1 -22 -4l-35 -4q-33 -10 -41 -9q-37 -10 -97 -33q-45 -11 -127 -49q-68 -16 -128 -17q-40 0 -77 7l-42 26q-19 12 -41 52l-11 20q-3 30 -3 56q0 30 33 151l8 30l28 60q3 1 9 8l51 78l20 12q61 90 127 101q5 0 26 5l21 -9l23 -36l7 -45l9 -57l8 -8 q1 -3 6 -12l53 23q7 4 23 12q11 8 17 22l8 20q3 1 9 6v7q0 29 -26 106q1 11 -5 21l-10 19l-21 19q-40 23 -85 23q-27 0 -51 -9q-3 0 -6 1l-84 -32q-4 -1 -11 -13l-56 -47q-1 -5 -19 -20l-13 -19l-25 -25l-27 -24l-73 -97l-49 -92q-4 -8 -19 -93q-1 -10 -22 -95z" />
<glyph unicode="d" horiz-adv-x="841" d="M-4 173l3 -103q0 -23 21 -48q29 -33 33 -41l60 -36l56 -8q14 1 63 21q22 8 61 39.5t63 39.5l67 74l22 32q1 4 14 19l16 21q1 7 14 26l12 19l48 75q19 56 38 70l37 65l38 63q5 -1 12 -5q-5 -19 -5 -52q0 -16 1 -36q-1 -3 -6 -7l-9 -124l3 -15v-46l-9 -47l15 -134l17 -53 q8 -11 17 -46l9 -7l29 -29l4 3l46 21q10 5 21 15l8 20l-37 70l-20 105l-4 114l1 62l3 64l2 44l2 31q1 22 5 55v27q0 10 5.5 28.5t5.5 27.5l62 63l23 20q1 7 -1 11l4 15l-22 32l-23 15l23 54q1 5 13 37l25 63q8 20 7 25l24 58l18 39l29 75l9 28l14 37l36 98l12 22q3 3 13 33 q0 14 13 37q10 30 9 52q0 27 -16 41q-16 9 -33 9h-3q-18 0 -34 -8l-12 -27l-11 -27l-18 -24q1 -5 -15 -32l-26 -59l-8 -23l-13 -34q1 -4 -11 -22l-21 -63l-16 -37q-4 -22 -14 -41l-18 -49l-23 -62l-16 -58l-15 -45q-5 -12 -15 -30l-18 -2l-46 15q-11 1 -44 6q-27 4 -40 -6 l-20 3l-55 -8l-138 -62l-80 -51l-99 -93l-6 -2q-5 -10 -18 -31q-7 -5 -21 -21l-49 -68l-69 -130zM109 167l6 86q1 4 0 21l2 29q-3 12 20 62q15 35 60 139l90 94l95 78l10 13q108 44 154 44q16 0 48.5 -4t48.5 -4l6 -4q11 -8 25 -23q-4 -5 -5 -6l-3 -19l-93 -165l-36 -55 l-41 -71q-5 -5 -7 -17q-27 -41 -48 -74l-34 -55l-33 -48l-75 -87l-45 -33l-29 -13l-15 -9l-65 17q-20 20 -36 104z" />
<glyph unicode="e" horiz-adv-x="700" d="M-5 176l12 115v16l9 32l19 57l71 134l26 54q11 14 26 29l28 27q11 5 30 30q4 7 28 32q4 1 18 15q0 3 3 5l71 41l52 26q7 0 19 8q51 10 79 17q93 0 130 -48q0 -8 20 -38l-7 -45l-6 -24l-26 -36l-24 -37l-27 -26q-4 -8 -26 -23q-3 -4 -16 -15l-25 -20q-3 -3 -90 -64 l-12 -15q-52 -18 -111 -78q-40 -23 -53 -42q-7 -1 -16 -9l-25 -3l-52 -27q0 -38 2 -44q1 -35 23 -103q7 -20 12 -27q27 -34 52 -52q4 0 14 -4t15 -4l27 -3q7 1 16 2l47 11q68 27 203 87l25 11q22 10 23 12l52 33l8 16l10 15l21 -11q14 -1 14 -26v-10l-7 -17q-4 -10 -15 -18 l-20 -15l-17 -9q-29 -16 -113 -81l-51 -24l-73 -26q-5 -5 -53 -25q-10 -1 -50 -13l-95 -2l-85 36q-5 8 -8 11l-12 8l-44 42q-19 29 -19 40q-1 5 -15 27zM153 401q12 1 31 17l15 7v1l99 63q54 35 54 39l49 28q40 33 48 54l33 39l14 6q8 20 8 34q0 10 -4 17l-21 9q-10 0 -23 2 l-40 -14l-50 -20q-20 -16 -109 -103q-11 -11 -25 -35q-10 -14 -16 -30l-19 -25l-24 -37l-13 -23z" />
<glyph unicode="f" horiz-adv-x="917" d="M-89 255q1 10 8 17q-4 7 -4 19q11 11 21 11h16l6 12l15 -30q5 -3 11 -3q-10 0 21 14l30 5l41 14l55 12l40 17q4 5 13 9q35 3 49 19l-13 84q1 18 1 34q0 41 -9 68l4 44v53l11 134q12 20 21 79q8 12 18 53q8 34 26 49l55 114l22 24l17 26q1 3 10 15l15 14q30 33 98 93 q8 10 37 33l37 30l16 5l66 46q5 12 18 21l8 5l89 45l49 24l134 37q12 0 26 -3q38 -1 62 -47l8 -54l-10 -18l-10 -14l-5 -9q-3 -14 -11 -19l-34 -44q-7 0 -11 -1l-7 -2q-3 1 -22 10q-5 1 -16 12l16 30l7 6l2 39l-8 8h-16q-5 -5 -30 -4l-67 -26l-33 -23q-33 -18 -97 -60 l-24 -12l-19 -14l-20 -15l-9 -8l-33 -26q-1 -7 -5 -11q-26 -14 -66 -56l-18 -14q0 -15 -9 -20q-3 -4 -14 -14q-23 -30 -65 -90q-15 -38 -44 -101l-18 -38l-19 -66q0 -7 -3 -24q3 -7 2 -13l-10 -86q4 -10 4 -30q0 -11 -2 -32q1 -37 5 -112q-3 -29 1 -34l9 -47q18 1 47 14 q106 44 176 75q14 0 45 11.5t44 12.5q8 3 25 11q8 4 12 22l29 -8q4 3 9 4l127 15l26 11q7 3 26 -4q11 1 20 1q47 0 77 -20l-5 -32l-58 -27q-11 1 -20 2q-10 0 -18 -2q-15 -10 -97 -23q-15 0 -41.5 -12.5t-38.5 -13.5q-7 0 -11 1q-25 -16 -45 -17q-18 -11 -89 -32 q-3 -8 -11 -11l-57 -19q-30 -24 -72 -24h-10q-41 -8 -58 -40q-7 -1 -11 -1t-8 1l29 -106q0 -15 22 -47q5 -9 5 -34l4 -36q4 -3 8 -12v-9l14 -18q16 -45 16 -79q0 -19 -4 -34v-2q-10 -14 -26 -39h-15l-1 -2l-16 -5l-36 43h-8l-34 85q-22 30 -29 85q-3 22 -22 72l-5 26 q0 5 -4 27l-19 24q-35 0 -97 -35q-11 -3 -45 -10l-58 -13q-14 3 -37 -1q-27 -5 -36 -6q-23 0 -47 17q1 7 -5 25t-6 25z" />
<glyph unicode="g" horiz-adv-x="688" d="M-75 -804v-74q12 -35 8 -46q3 -19 4 -43q4 -10 11 -17l30 -14q12 0 30 -3l6 2l26 17l15 15q4 3 15 17q20 5 31 43l55 95l161 338q16 34 16 51q8 25 27 67q3 4 9 21l6 22l11 32l26 54l13 52q14 31 32 92q19 33 22 56q1 5 4 26l15 42q0 15 7 20q0 25 8 35l9 51l10 18 q19 8 44 37l37 18q16 5 25 13l42 25q78 20 83 45l-38 23q-14 -7 -33 -12l-31 -8l-32 -10l-30 -11q-7 -1 -32 -17q-14 0 -17 -2v66q0 5 7.5 40t6.5 36q-3 37 4 44l11 59q1 8 -1 24q3 15 2 45q0 14 -2 22l-2 49l-9 89q1 7 -3 13.5t-4 8.5q0 25 -10 35q-37 26 -82 26l-16 -4 l-16 3q-40 -5 -97 -25q-11 -7 -35 -17l-45 -40l-24 -33q-4 -5 -19 -27l-37 -52l-42 -52l-35 -61l-5 -21l-7 -13l-7 -25l-11 -26q0 -3 -6 -15t-6 -15q0 -18 -12.5 -50.5t-12.5 -50.5q0 -10 2 -19q-4 -8 -14 -8q0 -3 3 -7l-10 -103l-1 -47l1 -37l2 -15v-15q3 -4 9 -8 q19 -66 59 -74q74 0 137 35q10 8 42 25q8 4 24 26q4 7 15 23l39 47q10 4 8 10q16 18 42 44l34 62q0 5 13 17l5 6l-12 -62l-11 -42q-22 -14 -27 -25q-3 -3 -11 -6q-3 -5 -11 -15l-19 -11q-4 -8 -19 -19l-95 -100q-8 -12 -28 -36l-11 -15q0 -5 -10 -19l-12 -31 q-20 -14 -36 -57l-39 -61l-49 -106q-7 -20 -25 -52q-4 -12 -22 -74q-10 -14 -20 -42q-1 -11 -15 -49q-16 -46 -15 -56l-15 -53l-14 -78zM20 -743q5 55 33 165q-4 11 9 43.5t13 38.5q0 1 5 9.5t3 11.5l25 68q7 19 20 45l33 63q8 20 22 61q10 11 8 17q19 19 30 35q1 20 26 48 q-7 0 -7 4q0 5 8 17q15 20 32 30q8 7 8 16l18 18l15 30l41 45q19 12 35 11l-13 -41l-17 -75l-9 -32q-3 -10 -11 -23l-15 -57q-4 -18 -6 -17l-17 -41l-7 -24q-7 -26 -6 -30q-15 -4 -26 -62l-27 -79l-7 -12q4 -22 -16 -36q-7 -7 -21 -47q-4 -4 -30 -58q-5 -11 -8 -38l-22 -38 l-22 -33l-12 -31l-22 -39l-46 -65h-4q0 26 -13 53q1 15 7 41q-3 3 -7 8zM112 186q0 18 6 53t6 53l40 129q8 16 46 101q11 16 32 39l50 89q4 1 10 5l33 39q11 0 19 8l52 20q4 -1 8 -5q49 -19 64 -82l-7 -51q-15 -31 -16 -35l-28 -37q-14 -5 -12 -14q0 -4 6 -4l27 21 q7 -10 7 -8l-17 -66q-4 -3 -9 -8q-14 -26 -36 -86q-23 -29 -34 -58q-5 -4 -8 -4l-14 -27q-18 -19 -18 -25l-20 -30l-25 -32q-41 -44 -51 -54q-32 -26 -67 -36q-5 -1 -9 -1q-9 0 -13 6l-14 57q-8 19 -8 43z" />
<glyph unicode="h" horiz-adv-x="776" d="M-22 90q-1 -5 4 -26l11 -13q0 -5 3 -10q16 -12 29 -12q23 0 27 2l38 13l15 16l22 21l12 21l11 40q8 7 30 48q18 34 41 43q19 26 44 58q5 0 9.5 7.5t6.5 7.5l15 22q3 1 8 5q18 20 47 71q18 19 39 32l40 53q16 0 36 33q3 3 19 12q5 22 46 56q22 27 59 49q34 29 42 26 q7 -14 7 -25q0 -23 -10 -30l-6 -26q-1 -2 -11 -32q0 -22 -7 -30q-7 -20 -15 -51q-1 -7 -19 -57q-12 -35 -13 -59q-5 -5 -13 -23l-21 -81q-1 -10 -5 -23l-4 -38l-8 -34q1 -4 -3 -22q-7 -27 -2 -40q-10 -16 -9 -28q0 -11 8 -18l14 -77q0 -5 15 -20l16 -17q10 -4 25 -20 q4 -7 26 -19l79 29q3 4 12 19l-34 39l-12 29v26l-6 53q-3 4 -7 10l11 94l24 101q10 12 17 45.5t14 44.5q18 76 59 146q23 77 23 148v16q0 22 -3 40l-34 73l-14 7l-42 7q-4 0 -8 -4q-12 -12 -70 -42q-12 -10 -26 -28l-72 -65q-11 -23 -48 -56.5t-48 -55.5q-7 -10 -16 -18 l-49 -46l-36 -50l-15 -6l-35 -47l-14 -8q-4 -4 -9 -15l-22 -22l-29 -31q-5 -1 -8 -2q-5 0 -7 21q1 19 8 67q12 27 43 129q7 23 69 212q15 22 29 72.5t26 70.5l63 204q1 3 6 7l28 98l5 26q10 18 7 37l15 60q0 33 3 34q0 -1 1 -3q-1 3 7 31.5t8 34.5q0 15 -9 27l-30 6 q-7 13 -24 13h-2q-22 0 -51 -13l-3 -32l-2 -16q-12 -14 -25 -77q1 -14 1 -26q0 -40 -17 -73l-9 -33l-8 -21l-4 -32q-1 -10 -8 -28q1 -10 -18 -53q-7 -61 -49 -162q-8 -44 -35 -115q-34 -89 -43 -113q0 -7 -7.5 -24t-7.5 -24l-58 -186q0 -7 -13 -45l-31 -98l-36 -125 q-3 -4 -12 -30q-10 -12 -9 -24q0 -30 -2 -33z" />
<glyph unicode="i" horiz-adv-x="413" d="M-16 3q10 48 12 71l38 113q3 8 17 36q3 5 5 15q0 3 4 6l26 85q1 7 5 11l3 -1l94 198q1 4 29 51l14 36q3 5 5 12l3 7v1q24 31 24 58q0 6 -1 13q4 5 6 15q1 3 5 6l8 23q0 1 2 6l1 8q3 12 5 13l37 29q5 0 33 -4l18 7l30 -12l22 -63l7 -7l-10 -19l-14 -15l-31 -55l-40 -59 q-8 -3 -12 -8q-12 -40 -18 -46l-26 -37q-16 -23 -19 -38q-89 -173 -95 -220l-15 -49l-39 -111l-9 -84l-19 -28l-21 -2l-37 -16q-18 5 -20 20l-21 15q-4 4 -6 19zM298 1197l1 40l34 22l10 16l41 7l76 -26l38 -71q7 -6 11 -9l-8 -21l-60 -50q-5 -7 -12 -15q-11 -3 -19 -3 l-74 54z" />
<glyph unicode="j" horiz-adv-x="371" d="M-314 -248l27 -46q4 -5 19 -24l39 -29l46 -11q23 5 72 6q16 10 51 19l15 12l20 11q7 14 29 22l37 38l7 10l38 47q5 18 19 35l21 38q8 22 27 56l52 145q-1 15 15 32l8 34l10 15q0 10 6 18l11 25q1 14 6 26l28 86l14 46l1 19l6 22l33 157l7 56q4 4 8 52v6q0 14 -4 37 q-4 29 -4 42l-41 41l-77 -2q-3 -3 1 -20l-6 -66q1 -10 6 -20l11 -67l-23 -122q1 -3 -4 -38l-4 -26l3 -22q-7 -35 -30 -101q1 -10 -6 -27.5t-7 -25.5q-5 -8 -5 -18q-3 -25 -6 -19l-16 -63l-23 -58q-3 -15 -11 -39q-8 -8 -21 -46q0 -4 -4 -8l-6 -30l-13 -34l-46 -90 q-1 -23 -55 -85q-4 -4 -13 -16l-41 -26q-11 -7 -10 -7l-71 -11l-56 38q-8 3 -7 3q-16 11 -24 27q1 7 -6 14l-27 48h-8q-4 -1 -8 -7zM119 1212l18 -38q4 -15 9 -19l21 -5q10 11 17 11l32 -13q10 12 22 29l6 15l9 15l11 71l-3 18q-3 16 -36 45l-22 8q-30 -1 -68 -42 q1 -7 0 -21q-1 -16 -11 -24v-37q-1 -4 -5 -13z" />
<glyph unicode="k" horiz-adv-x="985" d="M-45 -112q1 4 3 10l43 120q11 18 21 24l72 178q4 16 21 57l30 74l11 37l31 87q4 4 11 10l31 60l15 35l14 29l15 27q4 5 14 26l1 2l71 184l26 56q8 34 16 61l22 73l6 38l4 38v42l11 40l4 56q-7 33 -18 100q-8 11 -14 16v25q3 5 7 21l7 6q-3 3 -4 3l1 1q3 4 9 14 q15 20 17 22q22 18 25 30l48 27q7 -3 12 -3q4 -7 14 -13l6 -50l18 -39q10 -12 8 -14l18 -63l7 -32l-16 -26q-10 -12 -10 -21l-16 -37q-3 -8 -11 -41l-11 -43q3 -26 -4 -39l-10 -47l-12 -55q-3 -1 -7 -4q-16 -98 -33 -122q0 -14 -22 -58q-26 -56 -28 -65q-4 -3 -14 -24l-1 -1 q-11 -22 -21 -61q-30 -49 -28 -57l-21 -37l1 -1q-3 0 -2 -1q-15 -29 -11 -43l45 10q8 -1 13 7l32 9l16 14l21 7l63 45q12 12 77 56q8 5 47 32l45 26q19 18 86 48q49 22 67 42l1 -1l27 19l20 26q18 12 26 25l72 56l4 15q19 5 30 9q3 -4 5 -7l2 -2l3 -17q-5 -11 -6 -16l-3 -30 q-1 -1 -6 -8l-10 -11q-5 -4 -27 -34q-4 -7 -75 -78l-177 -120l-76 -58l-112 -75l-25 -12q-5 -4 -28 -11q-8 -1 -25 -9q-3 -3 -4 -11q-1 -11 10 -35q10 -10 16 -12q3 -18 14 -23l5 -6q14 -27 23 -36l25 -35q3 -18 15 -42l61 -121q23 -46 66 -62q11 0 19 -5q11 -11 79 -21 l6 -1q4 0 4 -6l-3 -2l-4 -3q-4 -3 -5 -5l-24 -18l-22 -18l-21 -10q-4 -1 -50 -10l-36 -2q-14 1 -39 6l-9 5q-4 1 -14 4l-5 8l-10 13l-18 17l-8 13h2l-6 12l-27 40q-5 8 -18 17q-35 57 -56 85q-14 26 -40 40l-60 92l-11 11v3l-10 4q-5 1 -26 15t-28 12l-20 -38 q-12 -31 -40 -93q-4 -7 -8 -20l-3 -7q-3 -7 -8 -23l-1 -3q0 -1 -2 -1l-27 -66l-16 -60l-21 -87q3 -4 3 -10q-8 -45 -10 -38l-6 -27q-4 -7 -17 -29l-38 -35l-22 -7l-56 11l-5 15l2 2q-3 5 -5 14z" />
<glyph unicode="l" horiz-adv-x="322" d="M-7 -55l4 -39q8 -16 25 -37l19 -18q3 -1 16 -1q15 0 18 4l27 22l37 76q25 11 36 43q5 16 1 28q-4 7 -3 8q-1 18 -4 44q0 5 -1 10q1 14 -3 30q-10 15 -7 47l4 50v17q0 15 10 52l11 111q5 12 14 33q-3 5 -2 12q0 14 11 34l14 34l16 60l12 32l16 45l12 39l28 81l10 45 q12 45 46 180q4 14 21 74q1 5 12 31l29 70l48 205l45 109q-16 5 -48 27q-18 -5 -46 -11q-26 -23 -41 -82q-20 -79 -28 -94q-5 -38 -27 -68l-33 -118l-20 -50l-28 -96q-5 -18 -4 -19l-67 -256q-5 3 -9 1q-33 0 -33 -138q-3 -7 -19 -75q-1 -5 -21 -57l-13 -51q0 -1 -5 -9.5 t-5 -12.5l-13 -68q-1 -29 -6 -63l-1 -27q1 -3 1 -11q-19 -30 -14 -48q1 -8 -9 -30.5t-10 -23.5l-2 -29l-3 -19q10 -23 8 -44q-1 -20 -14 -38q-5 -4 -12 -21z" />
<glyph unicode="m" horiz-adv-x="1257" d="M-87 74q-1 35 27 52q4 11 11 27l87 209l73 188q46 122 46 183l14 14q8 1 22 1q30 0 88 -12q11 -8 15 -14l-5 -58h-2q-23 -4 -28 -26l-68 -140q0 -3 -5 -12l-2 -7q-1 -3 -2 -5l-12 -29l-8 -29l-14 -26l2 -40l60 64l49 46q8 5 13 8l152 161q30 23 76 80q14 16 24 26 q3 3 17 15l55 13l51 -24q3 -23 2 -40q0 -19 -8 -29q4 -11 6 -15l-36 -177q-23 -57 -29 -103l-12 -102h21l152 150q3 5 9 8h1l19 15l187 189l3 -3l75 63l72 15l17 -14q3 -7 13 -7l29 -50l18 -176l-11 -26q4 -1 8 -4l-27 -298l-14 -13l-7 -254l-15 -24l13 -17l-7 -14l-36 -16 l-1 1q-4 1 -8 5l-52 14l-11 16l-10 70l15 134l-5 16l14 23v15l6 37l-6 18l9 16v110l15 34l-8 120q4 19 1 33q-12 57 -28 73l-96 -66v-7q-27 -14 -48 -41q-4 -5 -34 -53l-105 -86q-5 -5 -8 -7q-48 -41 -53 -51q-81 -86 -115 -136q-52 -41 -75 -63l-17 -6l-64 19l-19 54l42 90 l29 134q-3 3 0 8l4 7q1 4 2 7q8 25 9 38q0 4 4 33q5 40 7 34q14 51 14 103q-10 7 -19 7l-35 -27q-1 -11 -9 -15l-3 -1q-8 -4 -15 -11l-4 -4q-3 -1 -4 -3l-119 -129l-22 -38q-4 -8 -12 -8l-30 -29l-10 -17l-41 -41q-4 -8 -10 -19l-100 -126q-40 -11 -59 -59l-28 -9l-51 27 q-10 22 -16 33z" />
<glyph unicode="n" horiz-adv-x="950" d="M-3 60l32 -33l35 -5l7 7l42 34l25 11l49 41l71 53l8 16q18 5 47.5 34.5t46.5 35.5q33 41 74 67l38 24q1 4 5 14l64 47q22 11 65 40q20 3 59 15q35 0 45 -28q15 -22 34 -142q5 -20 1 -56q-4 -37 0 -56q-4 -15 -4 -30q0 -1 7 -62l4 -38l11 -56l3 -46l23 -36l27 -65 q3 -4 9 -17l93 -16l5 4q8 0 25 7l13 18l-11 36l-22 18l-32 66l-11 58l-2 29q-1 27 -13 109q1 12 5 67q-3 3 -7 13l7 28q-6 21 -6 63q1 9 1 19v16q0 46 -8 69q-14 59 -20 71q-11 26 -45 60l-27 15q-5 7 -52 11l-130 -43l-58 -35h-8q-5 -4 -22 -16l-13 -11q-37 -33 -91 -82 q-25 -7 -46 -40l-20 -12q-1 -4 -6 -12l-60 -47l-100 -75l-17 8q-1 19 7 44q19 56 19 94q16 16 13 34l23 95q3 1 8 13q-1 18 10.5 53.5t11.5 51.5q22 27 19 40q3 7 11 31q4 4 19 33l1 15q-27 46 -87 67q-7 0 -19 -7.5t-16 -7.5l-29 -3l-15 -102q-3 -11 -3 -36l-8 -31l-6 -87 l-16 -25l-18 -75l-15 -68l-26 -112q-7 -14 -11 -30l-2 -50l-8 -20q1 -3 -6 -37l-4 -22q-3 -6 -3 -17v-6z" />
<glyph unicode="o" horiz-adv-x="789" d="M15 209q-1 6 -1 13q0 9 2 20q5 23 -1 34l67 161q3 3 8 11q1 4 6 9l12 35l8 13q48 63 104 167q10 4 11 7l35 56q8 3 13 8q20 40 47 48q30 18 44 24h26q8 -14 33 -30l9 -15l-2 -31l60 -14q4 1 8 1l120 -41q15 -25 29 -28q25 0 38 -28q26 -14 31 -26l25 -49q-3 -11 1 -32 q1 -5 6 -24q1 -4 1 -8q0 -6 -3 -8q2 -38 2 -50q0 -8 -28 -77l-21 -56l-44 -64l-18 -23q-5 -15 -16 -28l-39 -42l-45 -33q-4 -10 -9 -12l-37 -23l-55 -33q-5 -7 -8 -10q-67 -25 -98 -39q-61 -12 -79 -12l-48 13l-38 8l-28 11q-49 10 -90 71q-3 14 -23 62q-16 38 -15 64z M127 248q14 -101 82 -131q78 -19 86 -19h1q25 1 55 11l35 7l24 19l49 23l80 58q14 26 40 37l26 42l16 30l10 23l18 34q8 11 9 26v13v16q-1 22 -9 34l-29 56l-12 31q-10 4 -17 17l-68 37q-3 3 -3 8l-76 16q-3 3 -15 3q-18 0 -55 -5q-3 -4 -7 -5q-4 0 -8 3q-4 -1 -22 -1 q-16 -11 -49 -36l-15 -23q-4 -4 -30 -45q-34 -53 -42 -85q0 -10 -2 -12q-19 -25 -24 -40q-8 -34 -6 -36l-17 -25q-1 -8 -25 -81z" />
<glyph unicode="p" horiz-adv-x="670" d="M-149 -670l18 53q10 29 9 48l9 50l9 30l2 30q1 4 4 26q-1 3 0 3l35 232l23 101l-1 19l10 49l12 43q11 18 16 54v8q0 1 -1 2l34 116q19 23 37 109l4 8l3 10l16 68l7 21l1 -2l3 7q4 10 4 22q10 40 41 98l40 -1l5 5q19 3 23 11l75 94q4 20 33 44q35 29 44 32q10 10 12 16 q34 37 53 48l44 16q8 -1 21 3t19 4q11 0 26 -6l50 2q5 3 7 5l57 -22l40 -24q20 -18 19 -36l-1 -20l9 -25l-15 -98v-6q0 -38 -45 -126q-5 -4 -16 -24l-28 -34l-53 -69l-117 -130l-15 -12l-64 -69l-24 -15q-70 -75 -101 -84l-54 -55q-4 -4 -19 -16l-11 -10l-3 -4l-3 -1l2 -2 l-3 2q0 -7 -4 -10l-6 -3q-4 -3 -6 -5q-11 -5 -25 -6q-14 0 -30 6q-7 -1 -8 -7v3q-2 0 -13 -62h-1l-9 -26l-24 -131q-1 -8 -7 -16q-1 -1 -2 -4l4 -12l-15 -86l-15 -111l-15 -63q3 -15 -6 -31l9 -37q-1 -5 0 -15q-1 -5 -10 -4l-22 -29l-20 -16l-73 11l-4 30v26zM165 164l6 -19 q-3 -7 2 -10l39 -1l32 -26l40 39q23 23 67 62l11 9l175 205q14 27 34 48q3 7 2 12l36 80l15 15q10 26 10 86v23l-3 18q-18 20 -30 30q-25 5 -36 5l-53 -14l-59 -43l-13 -24q-8 -7 -15 -16l-40 -38l-12 -21q-10 -7 -22 -17l-33 -73q-12 -18 -30 -35l-64 -149l-10 -11z" />
<glyph unicode="q" horiz-adv-x="648" d="M-16 138q5 -15 9 -33l3 -26q0 -5 4 -13q-1 -18 33 -40q19 -12 101 -36l31 6l26 8l22 3l23 12l40 22q27 20 78 50h6l41 47l6 20l39 45q15 11 31 21l-5 -23l2 -11v-28q0 -4 -8 -20l-6 -38q0 -5 3 -26q0 -14 -15 -74l-11 -44l-4 -39l-7 -56q3 -29 -1 -38q-5 -12 0 -22 q1 -4 0 -15l-11 -38q-1 -14 -3 -13l-3 -15q-4 -23 -1 -31q-11 -29 -17 -86q-7 -71 -10 -88q1 -3 0 -15l1 -20q-1 -14 0 -16l-8 -69l8 -37q3 -5 16 -12l36 3l35 31q-1 11 14 32l1 27l7 64l-1 53q-1 8 -6 26l6 59l4 34q0 3 3 25l21 172q4 37 10 68l10 61q-3 3 -5 13l20 68 l5 34q4 26 4 49q10 63 25 123q5 22 2 27l9 43l11 18l4 23q0 4 4 20l18 33l21 81l7 30q3 3 7 8l20 97q1 22 -10 53q3 5 -2 14q-11 8 -13 20q-27 26 -61 48q-40 12 -118 29l-15 6q-8 -3 -9 -4l-76 -15l-33 -9l-8 -6l-44 -13l-11 -10l-9 -14q-23 -23 -71 -75q-18 -25 -57 -72 l-7 -15l-10 -14l-41 -69q-1 -7 -4 -15l-30 -47l-50 -124l-14 -64q-1 -5 1 -11zM67 277l16 73q1 6 6 16l83 151l27 37q7 18 51 81l9 7l55 57l19 10q11 14 26 12l14 9q39 13 73 13h13q30 -3 65 -22l21 -16q-1 -7 12 -18l7 -37q-5 -12 -11 -37l-4 -41l-12 -30q-14 -33 -13 -44 l-7 -30q-8 -7 -17 -41l-23 -49l-84 -123q-18 -26 -94 -97q-11 -8 -37 -31q-38 -34 -100 -34q-23 0 -49 4q-22 10 -34 48q-4 22 -9 42q-1 16 1 33z" />
<glyph unicode="r" horiz-adv-x="678" d="M40 586l6 -17l9 -17q11 -26 45 -101l15 -78l2 -74l11 -164q16 -19 17 -110l-3 -18q5 -8 5 -34q0 -5 5 -25l6 -15l13 -5q6 -1 15 -1q12 0 28 2q29 4 37 12q0 8 6 25q4 1 13 5l3 3q1 3 0 7l11 26l16 41l17 75q-3 4 -8 14l47 102q-1 4 3 15.5t4 14.5q18 42 67 118t67 117 l8 19l17 20q1 4 9 15l44 55q1 5 27 34l64 71q4 1 11 6q30 34 78 49q11 1 41.5 18t45.5 17q27 0 33 -1l26 20h8l21 25q3 4 3 14q-11 14 -106 27q-4 -3 -13 -7l-32 -1q-46 -15 -135 -59q-11 -5 -39 -27l-47 -43l-15 -17l-19 -21l-29 -33q-11 -12 -37 -56q-4 -7 -15 -15 l-84 -148q-30 -53 -78 -140l-44 -52l-31 127v51l3 68q-7 14 -7 45q12 18 9 53q-3 38 -1 56q-5 8 -8 18l-97 25l-41 -32q-11 -16 -23 -43q0 -7 -4 -21q1 -10 0 -22v-13z" />
<glyph unicode="s" horiz-adv-x="618" d="M18 541l4 -47l15 -33l22 -17l16 -33l56 -29q0 -3 4 -7l86 -27q11 -16 44 -16l44 -22l122 -25l-39 -54q-7 -7 -8 -13l-43 -30q0 8 -17 -15l-21 -16q-5 -14 -45 -38q-14 -25 -42 -48l-51 -42q-7 -4 -23 -13l-10 -13l-54 -43l-19 -31l4 -52l4 -3q3 -3 5 -3l3 1h16l21 6 q5 5 5 7l73 47q26 22 56 45q12 0 23 16l40 36l21 22q29 19 25 20l29 25q19 12 43 30q-1 8 21 34l53 43q7 3 16 17l20 19q7 12 24 35q1 11 11 38t10 39q0 7 -2 12q-11 15 -38 36l-87 15l-21 -2q5 0 -150 24q-15 0 -93 32l-38 40l-7 35q3 18 0 21l11 24l60 56l15 3 q15 20 56 30q5 5 16 11q20 11 24 14l68 18q5 7 18 4l20 6q26 0 48 -2l56 -7l49 8q3 4 8 8q7 0 10 3q8 14 31 37v8q0 36 -41 70l-20 -8l-12 -14l-100 -10l-126 -27q-22 -15 -46 -14l-19 -6l-29 -13l-35 -12l-29 -16q-5 -4 -15 -6l-85 -78q-12 -11 -34 -41l-15 -20z" />
<glyph unicode="t" horiz-adv-x="700" d="M-104 563v17l22 44q11 7 15 5l62 30l81 21h7l11 1q11 1 17 6l42 11q14 16 30 11l12 2l14 9l46 6q22 5 48 17l19 1h18l35 8l93 321l30 88q4 8 10 13q3 52 34 142l1 7q3 7 10 49l7 40l-3 31q14 25 30 29l16 13l22 6l78 -52l3 -9l12 -14q3 -41 -1 -48l-15 -27l-29 -56 q-8 -15 -14 -33l-9 -29l-11 -30q-10 -26 -10 -30q-16 -26 -21 -37q-1 -18 -20 -62t-17 -63l-22 -44l-23 -74l-13 -45q-3 -10 -8 -32l-5 -17q1 -3 -2 -8l-2 -4q-4 -5 24 -11l43 -1q10 0 40 -3q4 0 35 1q19 1 23 -4l71 -1l24 -3q14 -4 30 -3l14 2q-5 0 27 -4q42 -5 33 -9 l40 -5l35 -8l2 -13l-7 -8l-22 -18q-2 -3 -31 -3q-18 0 -46 1q-14 0 -19 1h-34q-4 -1 -24 1h-4l-9 -1h-9q0 -3 1 -3l-3 4l-57 -13l-214 -25q-5 -7 -8 -34q1 -3 0 -12l-2 -12q-14 -20 -13 -41l-3 -21l-4 -14l-2 -17q-3 -35 -2 -22q1 -16 -3 -17l-22 -69l-5 -62q0 -4 -3 -19 l-8 -45q-9 -51 -9 -62q0 -6 3 -6l-3 3l-8 -58q0 -15 -7 -35l-8 -47l3 -73l5 -14l-10 -14q1 -5 1 -9q-1 -4 -10 -12l-103 -25q-7 5 -14 15q3 4 3 11q-1 5 0 7l-10 57q8 48 19 94q3 0 5 20t5 23l12 61l18 30l11 90q-1 7 0 22l1 14v8l22 146l25 109q-4 7 -11 10q-13 6 -27 6 q-28 0 -65 -23l-120 -34q-7 -8 -11 -12v-1q-3 -4 -16 -6q-5 0 -17 -3l-23 -13q-3 -3 -5 -4l-10 -6q-3 -3 -14 -9l-83 -24v-6l3 2l1 3q-35 29 -34 48q-3 10 -7 14z" />
<glyph unicode="u" horiz-adv-x="830" d="M63 254v7l1 16l3 14l1 19l-2 19q-4 27 8 57v45l9 58q0 22 6 78q0 7 9 24l7 26l10 23q5 5 12 17l31 8l43 -18l12 -30q11 -7 8 -12l11 -23l3 -44l-6 -34l-26 -88q-1 -30 -4 -24l-9 -66q0 -7 -3 -28l1 -69l6 -49q3 -7 3 -15l2 -41l26 -43q4 -5 11 -14q1 -7 17 -11h16 q23 -15 48 -15q16 0 37 12l8 14q20 10 46 44l13 4l81 86l56 50q4 3 13 17l1 1l29 27v14q11 12 11 19l24 42q1 4 13 24l9 16q3 4 4 10v-2l17 27l4 21q12 4 13 15l18 78l16 24l6 51l9 60l3 46q4 8 10 26l22 22l5 15q4 1 21 12l10 7q12 8 50 19l5 -21q-1 -14 -1 -36 q-12 -76 -44 -187l-5 -29l-9 -12l-6 -20l-6 -18q0 -7 -4 -14l-18 -42l-22 -51q-4 -10 -16 -35q0 11 -8 -19q-10 -11 -22 -36l-26 -52l-18 -23l-17 -18q-5 -12 -32 -45l-14 -9q-7 -16 -9 -25l-42 -26q-7 -10 -9 -15l-20 -15q-27 -31 -40 -43q-10 -26 -35 -37q-8 -14 -12 -15 q-15 -14 -18 -25l-11 -8q-11 -22 -34 -25q-10 -12 -47 -24l-38 -13l-4 -4h-12q-29 0 -47 4q-30 15 -60 29q-33 19 -45 47q-35 61 -41 86l-9 47l-6 92q1 5 0 30q0 11 -1 19z" />
<glyph unicode="v" horiz-adv-x="741" d="M7 587q11 -30 12 -24l8 -40l13 -51q0 -1 4 -13.5t2 -14.5l14 -32q-1 4 -1 -12l52 -135l15 -52l15 -26v-10l30 -34q0 -11 4 -12q12 -7 11 -7l23 -33q19 -15 52 -61l91 -67l43 -7h4q16 0 49 22l44 29q16 16 47 75q29 55 43 65l17 32l19 45l16 50l2 17q1 3 8 11l26 94 q4 15 10 26l12 39l18 66q4 15 14 42q1 10 6 28l15 47l9 22q0 16 11 40v64q0 5 4 12l2 15q0 16 5 25l4 31l-26 37l-37 -3q-14 -15 -36 -25l-28 -31l-10 -39q0 -5 4 -10l-5 -64l-8 -52l-6 -42l-8 -31q0 -8 -3 -18l-12 -73l-8 -23l-39 -121l-19 -56q-4 -5 -2 -11l-11 -22 l-7 -25q0 -4 -6 -17l-39 -96q-22 -15 -25 -35l-28 -10l-26 10l-35 31l-25 12l-7 17q-3 3 -11 9l-29 52l-31 44l-10 12l-12 16l-15 26q0 7 -4 18l-7 19l-1 18l-28 91l-20 96l-3 29q1 1 -2 10.5t-3 11.5q0 11 -9 31l10 27l-10 14l-9 18l-19 11l-37 19l-51 -37l-9 -26 q-4 -3 -11 -30v-48z" />
<glyph unicode="w" horiz-adv-x="1088" d="M20 164v11.5v6.5l6 58q-3 7 -3 40l7 37q-1 4 -1 9q0 7 2 19l3 48l12 43l-2 31l12 94q1 3 3 10v20l5 45q0 10 6 40q4 25 1 39l10 28l4 19l32 38l26 14q8 3 21 9q1 -1 5 -4t6 -4l20 -15l18 -30q1 -3 1 -8q0 -21 -12 -71l-1 3q-3 -67 -14 -95q0 -22 -15 -65.5t-18 -62.5 l-20 -177l8 -155q-5 -35 18 -45q8 -20 37 -15l61 6q14 12 30 27q7 4 10 5q5 11 6 15l36 40q18 15 64 85l14 20q15 37 24 51l13 17l13 32l18 38l7 25q0 5 4 13t4 10l37 166v18l5 19q10 12 11 18q0 11 4 12q5 7 13 13l28 16l43 7l26 -43q-29 -72 -34 -118q-12 -42 -17 -64 q0 -16 -9 -48t-9 -48t-1 -14q0 -4 -3 -12q0 -93 8 -117l6 -17l9 -11l17 -31l9 -10q4 -1 11 -5q26 -20 74 -21q11 0 22 4h35q20 30 54 41q104 97 127 182l11 22q-3 11 8 31l11 71q12 73 12 122q0 10 -1 20q18 20 26 33l54 27q27 -4 34 -15l10 -43q1 -3 1 -6q0 -5 -3 -8 q0 20 -3 -12t-2 -36l-48 -194q-10 -18 -15 -22l-9 -28l-10 -14l-5 -18l-78 -112l-14 -9q-16 -46 -69 -85q-25 -18 -37 -30q0 -10 -13 -9l-15 -13q-29 -12 -42 -12l-53 -11q-5 0 -14 -1.5t-15 -1.5h-16q-12 0 -34 10.5t-32 11.5l-11 11q-7 -3 -11 6q-8 3 -16 9l-19 33l-21 41 q3 18 -4 18l-5 13l-7 24l-8 41q-11 -14 -14 -16l-8 -20q-10 -8 -15 -15q-10 -34 -54 -88.5t-55 -86.5l-18 -8l-104 -71l-11 -5q-8 -1 -19 -6q-19 -4 -39 -5l-48 1l-4 11q-16 0 -33 15l-26 25q-14 33 -23 45l-2 64q-4 7 -5 9z" />
<glyph unicode="x" horiz-adv-x="862" d="M-19 568q1 -4 1 -8q8 -5 19 -21q0 -11 17 -30l15 -7q1 -4 19 -9q19 -18 34 -23l16 -26q18 0 41 -26l28 -32l17 -13q-1 -7 2 -10l37 -31l99 -92q-1 -12 -1 -37l-15 -42q-7 -3 -7 -18q-4 -22 -8 -41q-1 -25 -7 -49v-82l12 -52q-3 -7 29 -23h51q4 4 15 22l-3 36q-8 18 -6 46 l6 52q1 5 7 19l30 70h8l48 -47l16 -5q4 -3 11 -14q3 -4 10 -4l43 -27q4 -5 48 -39q77 -58 87 -58q8 0 18 2l18 9l31 1l24 15l19 25v12q-1 4 -6 8l-1 29l-44 26l-14 12l-39 19q-1 4 -7 15q-15 20 -71 49q-14 11 -42 32q0 4 -4 11l-19 13l-6 14l-57 49q-7 5 -7 8l12 45 q3 11 27 52l106 178l13 12l60 90l141 133l14 8l4 31l-22 29q-22 8 -45 8q-15 0 -32 -4l-12 1q-15 -8 -33 -37q-14 -15 -37 -23l-71 -104q-23 -34 -79 -91q-11 -23 -46 -72l-19 -37q-3 -4 -8 -10l-35 -59q-11 -8 -15 -35l-13 -29q-10 0 -6 -2q-10 7 -22 26q-29 0 -76 72 l-52 45q-7 5 -29 24l-17 44q-8 0 -22 8l-8 25l-33 23l-30 12q-7 1 -19 7q-12 -7 -33 -22l-34 -16q0 -8 -17 -29q-5 -7 -24 -31z" />
<glyph unicode="y" horiz-adv-x="791" d="M-38 -991l4 121q-3 4 -3 10q0 10 7 24l8 41q4 20 21 86q10 25 32 73q0 21 18 50q20 41 52 126l8 7l17 46l12 15l1 7q4 8 15 18q41 74 82 132q10 14 21 23l11 15l6 11l37 56q11 7 29 19q7 15 37 37t37 36q16 14 47 41q22 48 22 98q0 9 -1 19q-3 3 -5 3q-8 0 -24 -15 l-24 -10q-11 -7 -23 -17q-59 -53 -209 -106l-40 -1q-34 5 -100 71l-35 63q0 8 -6 19l-2 4l-11 66q-4 25 7 47q12 41 13 121l14 53l14 33l54 146l17 34l8 28l5 40l29 59q10 4 26 12q26 10 34 7q11 -3 27 -23q5 -7 6 -22l-3 -14l-30 -38q-7 -16 -22 -60l-65 -191l-31 -120 q1 -48 9 -145q1 -4 56 -66q53 -20 58 -19q14 1 39 17l27 9q14 7 30 19q61 27 64 30q41 19 52 41l3 6q33 29 54 61l13 34q0 1 3 6t2 7l6 13l43 249l14 45l4 24l8 28q8 5 8 17q0 5 -1 13l10 28q10 10 20 34l42 21l50 -23l12 -17l1 -19q-1 -22 -18 -78q-13 -41 -13 -68 q0 -6 1 -11q-12 -68 -34 -172q-8 -18 -11 -31q-11 -55 -35 -137l-11 -35l-3 -29l-10 -19q3 -7 0 -20q-3 -15 6 -21l29 14q31 15 72 37l56 12q22 5 40 5q20 0 34 -7l21 -5q4 -4 17 -12q8 -4 9 -11v-6q0 -7 -2 -11q-22 -3 -77 -17q-56 -25 -172 -59q-25 -15 -63 -56l-17 -82 q0 -7 -5 -22t-5 -22l-4 -28l-7 -37l-8 -23l-29 -119l-24 -62l-7 -28q1 -1 -3.5 -9.5t-4.5 -9.5l-17 -85l-8 -31q-19 -37 -29 -78l-23 -60l-12 -41l-12 -30l-15 -25q-11 -18 -10 -24l-15 -14q-1 -10 -22 -47q0 -3 -9 -16.5t-9 -14.5l-17 -34q-1 -5 -14 -27l-26 -48l-19 -25 q-7 -11 -27 -34q-10 -5 -25 -14l-27 -10l-30 -7q-1 -3 -26 -4l-22 5l-12 11q-11 10 -24 15l-31 56l-9 25zM49 -905q0 -8 2 -24.5t2 -24.5v-26l4 -11l9 -11l25 -25l36 22l10 15q3 5 13 25l8 9l45 77l17 48l41 73q15 38 31 78l15 59l36 108q0 18 2 20l2 -1l12 50l8 13l4 28 l11 26l14 55l4 20l23 88l17 52v35l-43 -15l-42 -46l-96 -147q-3 -4 -12 -9l-8 -21q-5 -3 -8 -12l-8 -24l-13 -33q-1 -1 -12 -22l-16 -30l-10 -19q-3 -18 -20 -73q-12 -38 -32 -56l-7 -13l-11 -18l-11 -46q-16 -11 -12 -37l-23 -77q-7 -52 -7 -80zM762 164z" />
<glyph unicode="z" horiz-adv-x="856" d="M-10 486l3 26l6 30l5 4l8 32l119 45l14 11q12 1 17 13l47 27l30 11q22 25 71 45q11 4 16 9q18 16 43 24q116 40 155 40h2l41 16l26 7l41 3l36 7l78 2q5 -5 10 -5l23 -40l-3 -39q-26 -61 -33 -77q-22 -46 -43 -67q-26 -38 -78 -106q-10 -12 -48 -63q-20 -19 -45 -38 q-1 1 -3 0q-1 0 -2 -3l-2 -4l-7 -8l-8 -8q-22 -30 -26 -30v-2q-27 -34 -43 -41l11 2q-26 -15 -54 -32q-3 -5 -17 -22q-3 -3 -3 -4l-22 -26l-38 -35l-19 -17q-19 -16 -29 -23l-26 -28l-27 -32l-45 -55q14 5 35 16q8 0 24.5 7.5t22.5 8.5q14 8 113 49q48 12 90 42l59 19l73 26 l39 15l26 11l72 17l45 12l64 11l6 3l17 7q18 7 30 8l24 2l53 25q3 -3 8 -1q5 1 26 2l-3 2h32q3 -1 4 -4l3 -3l27 -15l-2 -22l-19 -15l-20 -5l-22 -5l-76 -10q-52 -16 -67 -24l-70 -19l-22 -8l-194 -64q-10 -5 -35 -18l-64 -27q-5 0 -20.5 -7.5t-16.5 -11.5l-29 -14l-128 -65 l-49 -35l-69 -21q-8 -5 -11 -11l-20 -2l-57 -17l-36 8q-20 19 -26 35q25 61 41 86l40 41q8 0 8 6l25 35q10 34 60 66q3 5 16 16q19 22 76 83l104 105l7 20h10q8 7 12 11q19 31 31 45l25 17l20 24q4 7 13 16l17 20q1 7 7 13q15 3 21 16l23 34l11 7l38 53l31 52q11 18 11 19 q0 4 -2 7l-78 11l-105 -45l-88 -33l-53 -34q-4 -5 -25 -18h-1v-1l-1 -1q-15 -4 -92 -69q-3 -3 -34 -23q-8 -7 -49 -38q-1 -4 -4 -10q-30 -31 -55 -35l-35 18z" />
<glyph unicode="{" horiz-adv-x="842" d="M-19 881q0 23 13.5 68.5t27.5 56.5l11 11l12 25l45 39l4 7l2 2l26 16q11 23 78.5 67.5t80.5 67.5q29 8 78 57q22 8 90 58q51 35 93 48q19 15 79 62q29 22 77 0l24 -45q-20 -23 -68 -60q-35 -8 -91 -39q-20 -11 -85 -40q-19 -16 -152 -112q-49 -35 -83 -72 q-45 -12 -72 -60l-21 -15q-7 -12 -20 -19q-22 -38 -22 -67q0 -18 9 -32q11 -4 21 -11q8 -34 120 -60q18 -4 37 -13q66 -10 197 -20q35 -11 88 -42q10 -5 21 -16q23 -34 23 -69q0 -8 -3 -17l-48 -44q-5 -7 -12 -20l-8 -13q-33 -20 -100 -53q-4 -5 -80 -46q-4 -3 -51 -35 l167 -75q5 4 16 -4l11 -8l1 -3l48 -73q0 -4 2 -9l1 -8q5 -34 0 -42l-12 -51q0 -3 -13 -15.5t-12 -16.5l-24 -44q-25 -26 -55 -66q-35 -33 -36 -43q0 -22 55 -43q82 10 150 20q30 4 51 1q4 1 9 1q18 0 64 -9l25 -22l11 -29l-23 -38q0 -3 -6 -10l-5 -8q-4 0 -8 -3h-7 q-3 4 -7 15l-78 11q-18 -12 -85.5 -27t-90.5 -12q-61 7 -91 0q-34 5 -78 41q-20 16 -25 56v20q0 7 -2 19.5t-2 18.5q5 19 23 48q10 8 29 22q10 8 30 26q19 23 51 52l13 30l-4 75q-3 3 -11 8q-70 46 -108 43q-53 38 -65 49q-34 30 -49 65v74q5 31 87 93q5 -1 19 3.5t19 4.5 q72 0 92 5l57 33q10 16 10 30q0 16 -14 32l-317 65q-23 -1 -61 21q-51 29 -60 31q-11 19 -30 55q-3 12 -3 26z" />
<glyph unicode="|" horiz-adv-x="335" d="M70 -175l52 105q4 11 32 101q10 30 23 52q29 183 29 377q0 96 -7 193l4 77l-15 32l-16 160q4 25 -10 58l3 39q-18 40 -20 150q-1 30 -17 169l-2 25q-8 78 -22 181q3 4 12 19l70 19l31 -13q7 -14 40 -47l1 -34q-19 -41 -23 -166q-11 -45 0 -126q10 -71 -2 -115 q19 -35 22 -86q5 -71 21 -105l-4 -16q3 -14 9 -26l13 -393l-6 -10q3 -18 1 -33q-7 -74 -1 -94q3 -25 -1 -97l-6 -97q-41 -135 -45 -213q-10 -12 -35 -68q-22 -48 -41 -57l-52 5z" />
<glyph unicode="}" horiz-adv-x="951" d="M-35 1384l15 77l109 41q8 0 25 1.5t25 1.5q26 0 38 -15q7 -7 7 -26q-4 -8 -13 -17q-18 -5 -22 -9q-10 -7 -11 -22q15 -16 37 -27q23 1 68 -14t70 -12q33 -14 99.5 -21.5t96.5 -18.5q19 -7 54 -15l19 -11l19 -15l11 -16q1 -4 1 -24t-10 -46q-1 -18 -47 -71 q-11 -12 -18 -27h-6l-90 -63l-2 -4q-75 -48 -137 -103l-23 -20l-27 -48l-5 -15l21 -38q25 -8 67 -26q45 8 242 68q86 -37 86 -56q0 -4 -2 -7q23 -23 32 -62q3 -31 6 -63q4 -10 -140 -92q0 -7 -7.5 -23t-7.5 -26q0 -31 35 -43q3 -4 10 -9l20 -7l8 3v-7q1 1 3 2q3 5 4 4l6 -3 l54 -24q20 -22 55 -18q45 -26 141 -73l28 -61q3 -3 10 -8q-1 -4 -1 -10q0 -11 5 -26l-22 -60l-128 -158q-16 -7 -29 -18q-26 -23 -93 -55q-16 -12 -53 -32q-26 -25 -108 -41q-22 -4 -93 -13q-18 5 -30 37l36 32q1 8 1 15l6 8q15 11 47 11h52q19 3 33 11q111 67 149 98 q78 64 109 141l-23 49l-27 16q-3 4 -5 7q-15 10 -49 22q-14 11 -38 16q-29 5 -38 11q-3 4 -7 7l-8 6q-26 5 -75 23q-109 20 -148 108l2 19q30 42 30 58q0 3 75 54.5t74 55.5q-10 20 -16 53q1 3 -8 3q-31 0 -129 -25q-66 -16 -100 -23l-126 38q-14 4 -50 49q-5 18 -26 45 q-1 16 26 93l53 47l16 23q5 3 11 4q25 12 69 52l32 17q14 1 20 6q1 4 5 9l117 87l30 50q-4 7 -10 16l-73 24l-22 12l-65 16q-10 -5 -19 -5q-11 0 -22 7q-57 3 -163 31l-32 -5l-76 38z" />
<glyph unicode="~" horiz-adv-x="921" d="M8 605q0 10 7 33.5t5 33.5q1 18 20.5 55.5t19.5 56.5q11 8 36 46q4 10 9 15l8 7q22 33 54 64q8 8 35 2q4 -1 11 1l41 -36l23 -39l7 -8l18 -30l11 -28q3 0 4 -2l1 -2q1 -14 10 -31q5 -3 12 -13l19 -25q20 -16 45 -17q27 11 36 33l8 9q4 7 19 78l12 19l3 15l30 41l20 24 l89 43l15 4q30 1 88 -6q15 -8 20 -9q11 7 27 3q19 -5 26 -3q5 1 9 13l34 26l23 -9q3 -7 4 -11v-1l12 -19v-11l-60 -63q-46 -19 -157 -5q-20 3 -53 -7l-23 -22q-3 0 -4 -1l-15 -19q-7 -8 -7 -21q-11 -49 -11 -38l-4 -27q-5 -19 -13 -28l-15 -28q-3 -4 -17 -25q0 5 -11 -7v-1 q-3 -7 -88 -44q19 3 -56 7q-19 5 -46 31l-23 15q-3 3 -4 7l-32 64v7l-24 49q-10 12 -28 35q-7 4 -20 -5l-7 -5q-10 -22 -34 -66q-11 -19 -23 -64l-3 -2q-10 -10 -12 -30q-4 -23 1 -33q-4 -8 -11 -26q-12 -20 -46 -21h-3q-12 7 -14 24q-8 12 -8 27z" />
<glyph unicode="&#xab;" horiz-adv-x="981" d="M-12 344q0 -34 52 -82q41 -33 80 -67q79 -71 100 -89q59 -48 109 -76q56 -30 100 -30q38 0 38 23q0 30 -81 126q-52 59 -103 116q-26 30 -90 75q-51 35 -61 61q-7 16 29.5 56t95.5 74q53 25 151 92q34 29 69.5 58.5t46.5 58.5q29 75 4 97q-5 5 -13 5q-30 0 -86 -57 q-45 -56 -149 -134q-142 -109 -161 -124q-131 -115 -131 -183zM325 362q0 -34 52 -82q40 -33 80 -67q78 -71 100 -89q59 -48 109 -76q56 -30 100 -30q37 0 37 23q0 19 -29 60q-16 25 -89 74q-76 53 -104 86t-87 68q-48 30 -57 55q-7 18 45.5 74.5t110.5 90.5q53 25 152 91 q20 18 77 32q48 12 56 34t8 53q0 78 -20 96q-5 5 -15 5q-30 0 -85 -57q-46 -56 -149 -134q-142 -109 -161 -124q-131 -115 -131 -183z" />
<glyph unicode="&#xad;" d="M74 567l24 90q25 18 141 23q124 5 160 18q100 34 325 27q26 -7 76 -23l30 -36l14 -97q-22 -4 -55 0q-25 3 -104 24q-64 16 -105 16q-56 0 -101 -25q-61 -1 -175 -45.5t-174 -45.5l-18 8z" />
<glyph unicode="&#xbb;" horiz-adv-x="981" d="M68 755q0 76 22 96q5 5 14 5q30 0 86 -59q45 -55 149 -132q142 -109 161 -126q131 -113 131 -181q0 -34 -52 -82q-41 -33 -81 -67q-79 -71 -99 -89q-59 -49 -110 -76q-56 -30 -99 -30q-38 0 -38 23q0 19 28 60q18 25 89 74q78 53 106 85.5t86 68.5q48 29 58 55 q5 16 -46.5 72.5t-110.5 90.5q-53 26 -152 93q-20 18 -78 32q-46 12 -55 34t-9 53zM426 833q7 5 15 5q30 1 85 -58q46 -55 148 -133q143 -109 162 -125q132 -113 132 -182q0 -34 -52 -82q-41 -33 -80 -67q-79 -71 -100 -89q-59 -49 -109 -76q-56 -30 -101 -30q-37 0 -37 23 q0 19 28 60q18 25 81 74q68 55 97 87q40 42 78.5 84.5t49.5 72.5q7 16 -30 55.5t-94 73.5q-53 26 -152 92q-34 29 -69 56q-37 33 -48 62q-29 75 -4 97z" />
<glyph unicode="&#x401;" horiz-adv-x="1566" d="M0 956q18 -33 42 -34q16 -3 32 -3h30q40 57 61 86q41 0 41 -41q0 -22 -8 -46q8 -16 8 -52q0 -41 -12 -104q-4 -23 -9 -43.5t-9 -41.5v-53v-139q0 -10 2 -29.5t6 -48.5q10 -57 10 -33q0 -137 16 -165q29 -45 29 -66q0 -29 -100 -28q-8 8 -23 8q-4 0 -67 -33 q-19 -35 -19 -53q0 -37 56 -37q16 0 47 6t77 16l4 12q11 -1 19 -1h21q70 0 156 33q137 51 153 54q70 20 120 36.5t84 29.5q48 27 110 47.5t144 34.5q193 33 230 49l114 53q4 0 70 19q45 8 57 30q-18 27 -32 27q-8 0 -22.5 -8t-23.5 -8q-8 0 -12 1q-91 -29 -112 -28 q-8 0 -20 4l-77 -14q-34 -20 -94 -33q-42 -11 -66.5 -15.5t-31.5 -7.5q-70 -22 -139.5 -44.5t-139.5 -45.5q-83 -26 -152.5 -45.5t-129.5 -29.5q-12 -4 -18 67q-3 23 -5 43.5t-3 42.5l-12 35q-13 35 -36 104q-26 82 -26 144q-11 11 -9 33.5t-2 30.5l56 17q18 20 63 33 q29 8 47 13.5t27 9.5q29 5 35 13q223 74 332 116q86 29 108 33q20 12 45 12q12 0 30 -5t37 -10.5t36.5 -10t30.5 -4.5q30 29 38 45q4 12 15 59q-8 7 -13.5 13.5t-9.5 14.5q-254 0 -349 -61q-79 -38 -118 -53q-22 -10 -136 -33q-82 -14 -128 -53q-7 -5 -64 -17q-51 -5 -63 0 q0 4 -1.5 41t-2.5 105l3 24q3 23 9 70q5 5 6 39q0 29 20 35q27 33 52 47q8 8 59 36q70 37 172 74q45 15 88 29.5t87 28.5q87 27 87 41q0 4 -16 4q33 27 86 41q113 29 180.5 45t93.5 20q7 3 16 3.5t20 4.5q12 4 34 0q33 4 60 52q-7 29 -58 29q-44 0 -125 -21 q-83 -19 -103 -19q-10 0 -12 3q-112 -29 -116 -35q-113 -42 -197 -76.5t-137 -59.5q-14 -4 -24.5 -4.5t-16.5 -3.5q-70 -34 -122 -60.5t-87 -45.5q-29 -10 -49.5 -17.5t-34.5 -11.5q-20 -20 -35 -16q-22 3 -30 0q0 -1 -3 -5q-12 -26 -123 -77q-4 -5 -8 -14q-70 -41 -86 -57 q-34 -41 -34 -97zM205 1520l49 -93l83 -22l11 -4l58 38q12 19 9 33q-5 48 -63 101l-109 8l-26 -23zM643 1704l49 -93l88 -22l6 -4l58 38q12 19 9 33q-10 45 -62 101l-110 8l-26 -23z" />
<glyph unicode="&#x410;" horiz-adv-x="1190" d="M-102 -182l12 91q19 42 42 151t51 172q42 94 248 449q23 31 48 85q79 123 149 270q35 75 181 366q16 37 32 73q19 31 52 31q16 0 38 -5q37 -11 37 -127q0 -66 -21 -233q-10 -122 -32 -361q40 20 80 41q56 26 85 26q5 0 14 -1.5t13 -1.5q18 0 57.5 13.5t53.5 13.5t19 -9 q10 3 19 2q41 0 41 -38q0 -40 -44 -40q-10 0 -22 5q-89 -35 -112 -36q-38 0 -124 -45q-91 -48 -87 -76q8 0 8 -59q0 -143 -19 -314q-1 -56 -3 -112q-3 -72 -27 -98q-52 -53 -77 -54q-14 0 -37 21q-31 27 -54 41q-41 67 -135 166q-119 126 -178 126q-26 0 -37 -25 q-38 -72 -75 -144q-57 -117 -53 -142q3 -8 3 -15q0 -23 -18 -47q-29 -40 -31 -42q-14 -37 -26 -74q-15 -31 -71 -44zM268 508q66 20 168 86q109 71 162 93q7 7 18 23.5t12 157.5q7 18 19 90q14 78 14 112q0 11 -2 17q4 15 -1 73.5t-11 65.5q-56 -93 -65 -111 q-35 -63 -52 -114q-4 -3 -29.5 -60.5t-25.5 -61.5q-108 -187 -207 -371zM333 390q0 -8 14 -23q10 -9 20 -19q63 -52 170 -158q15 4 32 -13t19 -17q7 0 7 57q0 27 11.5 73.5t11.5 72.5q0 126 13 227q-66 -42 -200 -127q-33 -19 -92 -63q-5 -4 -6 -10z" />
<glyph unicode="&#x411;" horiz-adv-x="1417" d="M0 984q7 96 137 175q104 56 207 113q19 14 62 65q22 26 72 26q22 0 49 17t30 17q44 0 263 88t334 88q135 0 195 -104q10 -15 -44 -77t-80 -62q-14 0 -14 20q4 132 -102 133q-63 0 -181 -52q-147 -66 -148 -66q-149 -42 -198 -91l-50 -29q0 -25 -14 -66.5t-14 -48.5 q-10 -26 -19 -50q-5 -18 -4 -56q101 -10 355 -123q262 -119 304 -181q34 -52 34 -108q0 -142 -209 -294q-182 -132 -450 -227q-258 -91 -425 -91q-44 0 -75 8q-3 20 -3 38q0 68 54 69q15 0 36.5 -5.5t24.5 -5.5q3 1 3 2q228 8 513 140q314 143 397 315q7 15 7 32 q0 101 -261 221q-233 108 -320 101q-26 -11 -39 -239q-12 -239 -16 -245q51 -138 50 -159q0 -66 -79 -100q-5 0 -30.5 -6t-38.5 -6q-38 0 -34 42q4 210 28 522q3 123 32 409q-45 -20 -91 -42q-61 -31 -61 -57q0 -4 1 -10q7 -18 -48 -48t-99 -30t-41 38z" />
<glyph unicode="&#x412;" horiz-adv-x="1295" d="M0 78q0 -34 20 -56q22 -26 58 -21q318 41 687 211q470 216 469 452q0 37 -12 72q-35 112 -371 112q-42 0 -107 -2t-85 -2q-132 0 -132 16q0 1 76 82q117 113 234 227q156 164 156 271q0 132 -220 133q-111 0 -257 -34q-120 -27 -181 -55q-221 -101 -222 -366 q0 -184 135 -545q26 -8 44.5 -167.5t59.5 -166.5q7 0 28.5 8t33.5 8q78 34 78 78q0 11 -5 25q-23 61 -46 121q-33 98 -33 160q0 105 97 105q7 0 61 1.5t98 1.5q494 0 428 -134q-85 -173 -330 -289q-104 -49 -433 -152q-134 -41 -184 -41q-19 0 -47 6t-41 6q-57 0 -57 -65z M217 1094q0 94 52 200q10 22 145 104q23 14 129 37q123 27 204 27q89 0 100 -35q3 -11 2 -22q0 -67 -119 -188q-82 -84 -165 -167q-37 -20 -49 -21q-7 0 -7 7t24 55.5t24 74.5q0 20 -11 31q-26 44 -75 44q-37 0 -69 -25t-42 -64q-1 -7 -28 -206q-20 -162 -44 -184 q-7 35 -45 176q-26 94 -26 156z" />
<glyph unicode="&#x413;" horiz-adv-x="1392" d="M-16 893q0 23 16 72q-4 3 40.5 47.5t46.5 56.5q52 4 110 42q48 37 95 74q48 0 77 29q15 18 45 74q52 -4 88 0q128 102 474 195q326 89 525 90q152 1 199 -77q0 -4 -25 -49q-26 -49 -27 -52q-7 -4 -41 -27q-16 -3 -27 -3q-23 0 -24 14q0 4 3.5 17t3.5 21q0 30 -38 48 q-26 14 -76 12q-56 0 -78 6q-210 -57 -421 -116q-306 -93 -359 -167q-33 0 -59 -218q-29 -235 -54 -262q-18 -87 -34 -175q-18 -93 -21 -179q12 -38 48 -126q19 -49 19 -80q0 -20 -7 -48q19 -31 19 -53q0 -26 -30 -26q-35 0 -32 2q-1 -1 -9 -14.5t-12 -13.5q-49 -22 -48 -22 q-11 0 -21 15q-68 18 -92 333q20 68 34 268q16 238 23 282q20 11 24.5 51.5t19.5 52.5q-11 61 -31 62q-7 0 -29.5 -9t-39.5 -9q-3 -25 -20 -33q-22 -8 -45 -15q-29 -15 -29 -30q0 -5 3.5 -13.5t3.5 -12.5q0 -15 -121 -60q-22 -8 -37 -8q-30 0 -30 34z" />
<glyph unicode="&#x414;" horiz-adv-x="1403" d="M-360 -359q0 -85 58 -85q16 0 34 7q37 14 107 44q19 10 22.5 69t49.5 82q59 22 193 105q117 72 138 73q5 0 6 -4q55 76 366 172l428 120q23 -7 80 -6q51 1 78 -12q38 -19 38 -49q0 -8 -3 -21t-3 -17q0 -14 23 -14q11 0 28 3l41 27q1 3 29 53q25 46 25 50q-49 79 -204 77 q-71 -1 -176 -16q5 29 10 107q14 300 0 357q8 102 2 253q-5 139 3 198q14 109 14 199q0 152 -45 164q-22 7 -39 7q-34 0 -51 -34t-33 -71q-29 -57 -108 -185q-76 -122 -108 -185q-71 -150 -151 -276q0 -1 -48 -85q-66 -112 -131 -222q-76 -132 -122 -234q-48 -108 -78 -281 q-55 -18 -181 -117q-112 -89 -197 -97q-3 -12 -48 -57.5t-39 -48.5q-8 -23 -8 -50zM231 68q3 14 0 30q-5 25 61 155q59 113 118 228q123 242 262 468q0 4 25 62t29 61q-4 44 36 104q34 45 68 91q7 -7 18.5 -67t7.5 -75q7 -19 7 -116q0 -96 -7 -113q-1 -71 -4 -223 q-3 -78 1 -120q5 -48 6 -76q0 -38 -23 -115q-27 -82 -58 -129q-404 -86 -547 -165z" />
<glyph unicode="&#x415;" horiz-adv-x="1566" d="M0 957q-1 57 35 96q18 18 85 57q3 5 8 14q111 53 125 79q1 1 1 3q8 3 30 0q18 -1 35 16q29 10 85 30q68 37 208 105q14 3 41 10q109 48 334 135q5 8 118 34q4 -1 12 -1q18 0 102.5 19t123.5 19q51 0 58 -29q-29 -49 -60 -52q-22 5 -34 2q-23 -7 -35 -9q-52 -7 -275 -66 q-55 -15 -86 -41q16 0 17 -4q0 -11 -87 -40.5t-176 -58.5q-100 -35 -171 -74q-51 -29 -60 -35q-27 -18 -52 -48q-19 -7 -19 -35q-1 -33 -7 -39l-12 -94q4 -135 4 -146q12 -5 65 1.5t62 15.5q46 38 128 53q108 22 137 34q41 15 119 53q94 60 348 62q7 -18 22 -30 q-8 -45 -15 -59q-10 -20 -38 -45q-25 0 -67.5 15t-65.5 15t-46 -11q-19 -3 -108 -34q-109 -42 -332 -116q-5 -5 -35 -13q-14 -7 -73 -21q-46 -12 -64 -35l-55 -17q4 -8 2 -31t8 -32q0 -57 27 -143q46 -139 47 -140q4 -44 8 -86q7 -71 18 -68q117 23 282 76q139 45 279 91 q14 4 99 21q56 12 93 33l77 14q10 -4 20 -4q22 0 114 30q5 -3 12 -3q8 0 22.5 8t21.5 8q15 0 32 -25q-11 -20 -56 -32q-67 -19 -69 -19l-116 -52q-35 -16 -230 -50q-161 -29 -252 -81q-68 -25 -206 -67q-14 -4 -153 -54q-90 -33 -156 -33q-19 0 -38 2q-3 -12 -6 -13 q-93 -22 -124 -22q-55 0 -55 37q0 20 18 53q64 33 67 33q12 0 23 -8q100 0 100 28q0 22 -29 66q-16 27 -16 165q0 -19 -9 35t-9 76v139v53q8 42 18 85q12 66 12 105q0 33 -8 51q10 26 10 46q0 41 -41 41q-23 -26 -63 -85q-30 0 -60 2q-25 4 -44 35z" />
<glyph unicode="&#x416;" horiz-adv-x="2138" d="M-71 146q8 145 89 145q145 -138 224 -138q33 0 62 16q29 27 88 60q20 31 60 96q26 44 46 131q29 124 33 138q-19 -5 -98 -48q-61 -31 -101 -31q-72 0 -73 41q0 23 31.5 50.5t56.5 28.5q96 40 202 71q0 33 4 93q7 37 7 78q0 210 -170 494q-63 104 -150 194q-26 26 -26 60 q0 40 32.5 68.5t75.5 21.5q10 -18 32.5 -39t30.5 -36q4 -5 42 -52q57 -67 92 -153q15 -23 39 -82q18 -3 36 -63t27 -65q3 -4 8 -21q48 -184 43 -217q-8 -61 -7 -108q-11 -41 -14 -127q1 -8 3 -17q98 25 202 42q1 42 -5 53q12 12 12 67q0 139 -25 172q16 63 17 82 q0 25 -13 41q-3 5 -4 9q0 15 48 22q40 4 60 2q14 -1 22 -11q30 -31 30 -112q0 -51 -15 -157q-16 -113 -18 -152q86 11 242 22l49 3q26 49 45 80q72 111 107 156q60 81 128 134q45 31 131 95q154 120 287 121q112 0 224 -82q25 -18 20 -39q-12 -78 -15 -83q-10 -15 -75 -42 q5 1 -25 3q5 91 -226 116q-30 3 -85 -35q-40 -29 -78 -57q-203 -135 -252 -277q-30 0 -71 -83l106 6q91 7 92 -15q0 -16 -45 -32q-49 -18 -105 -18q-35 0 -76 -1q-87 -217 -87 -369q0 -42 11 -60q37 -59 46 -71q30 -37 67 -47q15 -4 15 -34q145 -70 294 -69q97 0 190 28 q70 37 132 37q52 0 52 -26q0 -37 -98 -82q-209 -67 -363 -67q-233 0 -385 151q-76 75 -77 243q0 82 21 142q3 8 1 20q0 59 64 194q-119 -12 -253 -41q-7 -26 -6 -52v-72q-1 -4 1 -29q0 -18 -8 -19q-19 -27 -18 -71q1 -38 4 -75q1 -64 3 -128q3 -76 15 -126q8 -27 8 -44 q0 -20 -16 -34q-40 -35 -43 -38q-33 -37 -50 -37q-19 0 -19 49q0 19 3.5 56t3.5 45q-1 57 -14 174q-12 112 -12 170q0 49 5 93q5 31 17 108q-93 -23 -196 -53q-15 -57 -46 -183q-25 -59 -68 -153q-46 -87 -92 -175q-53 -86 -146 -130q-22 -11 -45 -10q-19 0 -49 9 q-44 15 -52 18q-8 -1 -23 0q-8 8 -29 22q-124 42 -172 117z" />
<glyph unicode="&#x417;" horiz-adv-x="1245" d="M-5 142q0 56 43 67q82 -112 193 -112q210 0 560 457q41 18 54 55q4 3 23 30q11 5 43 68l-24 58q-86 34 -170 23q-20 -3 -75 4q-10 -4 -36 -3q-63 3 -99 -5q-12 5 -24.5 11t-15.5 20l14 66q55 66 137 113q139 117 332 285q63 63 66 127l-22 21q-20 22 -161 20 q-46 -1 -138 -26q-15 -4 -46 -8q-165 -25 -290 -124q-100 -79 -100 -119q0 -4 5 -4q4 0 12 5q-4 -1 -12 -1q-26 0 -51 14q-29 16 -29 39q0 10 6 21q70 143 334 228q27 10 111 31q72 16 108 40q85 11 262 30q44 -12 87 -23q48 -18 77 -47l16 -41l-27 -90l-60 -63 q-31 -61 -167 -159q-102 -68 -206 -137l-31 -55q15 -51 82 -50q19 0 40 4q26 5 69 0q49 -4 69.5 -2.5t57.5 -23.5q41 -29 58 -31l21 -54q-7 -22 4 -53l-14 -34q-5 -5 -25.5 -36t-65.5 -94q-20 -18 -62 -50q-7 -27 -39 -53q-19 -15 -52 -55q-45 -27 -68 -60 q-109 -102 -280 -250q-160 -116 -310 -116q-82 0 -132.5 34t-46.5 81q-5 14 -5 27z" />
<glyph unicode="&#x418;" horiz-adv-x="1312" d="M7 341q0 94 19 171q-4 12 98 367q104 366 101 424q16 35 67 256q25 3 48 10q26 -78 26 -122q-48 -75 -128 -434q-89 -396 -89 -631q0 -218 84 -218q41 0 100 50q132 160 295 470q134 257 234 505q33 14 90 161q55 139 102 140q34 0 76 -59q3 -4 3 -15q0 -49 -57 -242 q-89 -304 -89 -573q0 -149 25 -335q12 -89 61 -187q60 -117 127 -136q17 8 36 20q31 85 54 85q15 0 15 -38q0 -44 -22 -81q-26 -45 -69 -45q-12 0 -26 4q-321 87 -321 613q0 180 37 374q4 14 5 67q1 20 15 64.5t14 51.5q0 4 -1 4q-8 0 -48 -49q-49 -64 -108 -199 q-70 -158 -97 -206q-169 -283 -205 -336q-146 -213 -265 -271q-26 -12 -50 -12q-74 0 -118 111q-40 100 -39 241z" />
<glyph unicode="&#x419;" horiz-adv-x="1312" d="M7 341q0 94 19 171q-4 12 98 367q104 366 101 424q16 35 67 256q25 3 48 10q26 -78 26 -122q-48 -75 -128 -434q-89 -396 -89 -631q0 -218 84 -218q41 0 100 50q132 160 295 470q134 257 234 505q33 14 90 161q55 139 102 140q34 0 76 -59q3 -4 3 -15q0 -49 -57 -242 q-89 -304 -89 -573q0 -149 25 -335q12 -89 61 -187q60 -117 127 -136q17 8 36 20q31 85 54 85q15 0 15 -38q0 -44 -22 -81q-26 -45 -69 -45q-12 0 -26 4q-321 87 -321 613q0 180 37 374q4 14 5 67q1 20 15 64.5t14 51.5q0 4 -1 4q-8 0 -48 -49q-49 -64 -108 -199 q-70 -158 -97 -206q-169 -283 -205 -336q-146 -213 -265 -271q-26 -12 -50 -12q-74 0 -118 112q-40 100 -39 240zM572 1577l25 68q-1 4 5.5 16.5t6.5 13.5q4 7 30 70q7 8 30 63q18 42 38 52l22 5l31 -18l16 -26l24 -31q0 5 -71 -137q0 -18 -23 -73q-18 -44 -7 -79 q26 -16 23 -71q-1 -1 -12 -17q-19 -26 -40 -19q-60 22 -91 60z" />
<glyph unicode="&#x41a;" horiz-adv-x="1370" d="M-5 61q0 12 3 52.5t2 65.5q26 104 52 207q60 251 83 275q48 51 48 409q0 87 -5 127.5t-31 136.5q-23 83 -23 132q0 55 22 107q106 -40 113 -45q23 -15 24 -60q0 -8 -2 -37v-49q0 -66 4 -217q3 -139 3 -231q35 37 176 151q134 116 322 272q284 209 418 209q72 0 101 -60 q-20 -72 -67 -72q-11 0 -41.5 5.5t-48.5 5.5q-40 0 -75 -24q-67 -46 -206 -166q-128 -109 -206 -160q-261 -169 -261 -283q0 -134 209 -251q10 -4 15 -22.5t10 -23.5q96 -105 191 -211q160 -152 282 -151q75 0 135 55q11 -161 -73 -162q-172 0 -381 163q-124 97 -313 303 q-72 79 -171 201q-25 -44 -43 -174q-23 -154 -47 -221q-20 -93 -41 -186q-30 -124 -80 -129q-19 -3 -34 -3q-64 0 -64 61z" />
<glyph unicode="&#x41b;" horiz-adv-x="1067" d="M-16 91q0 -31 5 -51q10 -31 10 -65v-9q10 -12 23 -36q5 -10 9 -17q55 -14 74 32q-4 22 -4 44v12q0 -3 -3 66q3 12 0 27q-7 12 -7 34q0 76 64.5 226.5t124.5 220.5q23 46 154 218q149 193 159 209q0 4 25 56.5t28 55.5q-3 31 43 93q34 41 69 82q7 -7 17.5 -61.5t8.5 -68.5 q7 -16 7 -105q-1 -89 -9 -104q0 -64 -4 -202q-1 -74 3 -110q5 -46 5 -70q0 -31 -23 -168q-26 -147 -41 -152q22 -14 45 -54q10 -1 19 -1q49 0 81 53q45 76 46 78q4 7 7 15v23q0 22 6 44h-4q5 26 9 98q14 273 0 326q8 91 3 229q-5 127 3 182q12 100 12 180q0 139 -42 150 q-22 5 -37 6q-34 0 -52 -29q-16 -33 -32 -67q-29 -52 -110 -163t-111 -171q-26 -52 -83 -127q-85 -113 -92 -123q0 -3 -47 -78q-26 -41 -144 -203q-93 -128 -133 -213q-34 -45 -58 -140t-24 -172z" />
<glyph unicode="&#x41c;" horiz-adv-x="1740" d="M-8 59q8 18 8 41q-1 35 0 43q33 261 145 713l38 232q27 169 65 212q29 0 112.5 -35.5t96.5 -58.5q60 -105 60 -204q0 -647 162 -647q57 0 131 90q281 337 476 822q33 14 92 165q56 142 105 142q35 0 78 -60q4 -4 4 -16q0 -49 -59 -247q-91 -311 -92 -586q0 -154 25 -343 q14 -91 64 -192q60 -120 130 -141q18 10 37 21q33 87 56 87q16 0 16 -40q0 -45 -23 -82q-26 -45 -72 -45q-12 0 -26 3q-330 90 -331 630q0 184 40 382q3 15 5 68q0 20 14.5 66.5t14.5 53.5q0 4 -3 4q-7 0 -48 -52q-52 -67 -114 -196q-79 -162 -104 -204q-194 -325 -414 -430 q-34 -16 -64 -16q-85 0 -136 131q-18 45 -55 203q-8 108 -18 218q-16 187 -39 187q-8 0 -18 -26q-171 -457 -206 -746q-25 -205 -86 -206q-30 0 -67 59z" />
<glyph unicode="&#x41d;" horiz-adv-x="1186" d="M-7 464q0 48 6 92q25 179 24 209q0 29 -5 36q11 12 11 66q0 135 -22 168q15 60 15 79q0 25 -12 40q-3 5 -3 9q0 15 45 21q37 5 56 2q14 -3 22 -12q27 -30 27 -106q0 -51 -15.5 -163t-15.5 -153q0 -86 47 -86q7 0 15 3q86 19 222 79q109 49 218 99q3 -1 7 -2q23 0 23 70 q0 23 -4 68q-3 40 -1 48q19 208 90 464q-4 7 29.5 63t37.5 57q11 -14 57 -48q33 -23 33 -49q0 -12 -7 -27q-61 -117 -87 -229q-29 -128 -29 -283q0 -44 7 -47.5t16 -3.5q27 0 105 25q86 26 103 29q34 5 94 0q57 -20 57 -39q0 -23 -89 -43q-53 -11 -106 -23q-68 -19 -135 -39 q-52 -20 -51 -123q0 -3 -2 -36q-5 -41 -6 -81q0 -27 25 -153q8 -101 8 -121q0 -153 -154 -163q-19 0 -20 16q0 10 7 29t7 22q42 29 42 108q0 20 -5 54q-5 42 -7 55v158q-3 117 -27 144q-8 -5 -68 -23q-20 -5 -95 -59q-52 4 -108 -31q-60 -37 -83 -40q-56 -45 -170 -72 q-12 -19 -17 -45q-1 -18 0 -48q3 -39 3 -49q0 -86 18 -248q7 -27 6 -42q0 -20 -15 -34q-37 -33 -39 -37q-31 -35 -48 -35q-19 0 -19 47q0 19 3.5 55t3.5 44q-1 56 -13 166.5t-12 167.5z" />
<glyph unicode="&#x41e;" horiz-adv-x="1067" d="M-3 508q0 45 13 136q16 102 17 136q7 102 96 264q134 246 135 250q20 48 111 134q101 97 154 97q14 0 22 -7q35 -23 46 -82q4 -52 10 -105q-44 -27 -58 -27q-12 0 -38 20q-11 8 -23 9q-49 0 -127 -122q-45 -81 -90 -161q-120 -212 -120 -479q0 -119 24 -239 q22 -100 85.5 -163t145.5 -63q83 0 158 69q313 280 313 598q0 84 -19 180q0 15 -4 33q-66 291 -143 472q-11 -1 -32.5 -4t-29.5 -3q-29 0 -29 32q0 10 3 23q91 67 115 67q33 0 57 -37q46 -72 89 -183q34 -97 68 -192q22 -57 37 -162q15 -117 29 -162q5 -20 5 -51 q0 -97 -59 -249q-53 -139 -103 -202q-83 -100 -201 -198q-162 -137 -257 -137q-15 0 -28 4q-186 35 -269 158q-60 91 -100 302q-3 19 -3 44z" />
<glyph unicode="&#x41f;" horiz-adv-x="1525" d="M-11 1058q8 188 257 296q205 70 408 140q67 29 221 60q186 37 332 37q272 0 294 -133q4 -18 4 -31q0 -31 -20 -32q-11 0 -66 37q-35 23 -122 23q-93 0 -247 -27q5 -30 5 -78q0 -91 -20 -255q-14 -108 -27 -217q-8 -25 -9 -68q1 -81 2 -70q0 -30 -4 -93q-3 -48 -3 -72 q0 -102 71 -219q30 -51 98 -60q35 -30 36 -63q0 -35 -41 -76q-83 -10 -144 29q-30 19 -66 90q-34 64 -46 110q-22 97 -25 161q-1 35 4 166q1 15 8 67q5 41 4 67q3 45 -3 122q-1 7 -1 15q0 15 9.5 53.5t8.5 60.5q0 35 9.5 115.5t9.5 119.5q0 34 -8 71q-187 -44 -448 -96 q-18 -5 -18 -85q0 -37 4.5 -112.5t4.5 -97.5t-2 -30q-59 -213 -52 -449q4 -145 5 -167q10 -131 36 -170q18 -55 60 -118q7 -124 -83 -124q-34 0 -68.5 17t-37.5 29q0 20 -6 62q-9 49 -10 64q4 12 4 29q0 25 -8 64l-10 46q-23 186 -23 318q0 82 8 142q3 12 28 115 q19 83 19 126q0 14 -6 39.5t-8 39.5v90q-5 66 -38 65q-53 -40 -150 -122q-49 -42 -75 -43q-22 0 -55 22z" />
<glyph unicode="&#x420;" horiz-adv-x="961" d="M0 208q-20 240 7 371q12 72 38 217q14 56 27 111q14 64 10 111.5t15 84.5q-3 14 7 74q19 15 27 40q10 34 19 46q61 117 98 161q63 78 155 105q52 16 67 30q67 5 199 14q12 -1 75 -18q41 -10 77 -7q5 0 15 -4q81 -38 80 -95q0 -6 -22 -119q-20 -23 -134 -160 q-82 -97 -144 -151q-40 -41 -122 -112q-46 -42 -147 -110q-11 -20 -50.5 -50t-65.5 -40q-33 -11 -37 -31q0 -4 4 -53q0 -7 15 -112q12 -85 12 -134q0 -45 -9 -70q12 -22 8 -60l-8 -60q-8 -86 -17 -102q-18 -38 -86 -37q-7 -15 -15 -31.5t-22 -16.5q-30 1 -53 86 q-18 63 -23 122zM169 780q0 -34 17 -35q19 0 90 63q117 104 116 126q19 11 35.5 22t28.5 31q4 7 23 27q7 7 64 52q32 28 51 63q12 11 45 27q7 26 43 68t44 69q4 12 26 55q19 35 19 56q0 25 -23 45t-51.5 22t-56 4t-54.5 2q-208 0 -282 -118q-5 -1 -19 -10q-16 -16 -38 -57 q-26 -48 -26 -75q0 -14 8 -20q29 -20 29 -46q0 -11 -9 -39.5t-7 -46.5q-34 -25 -67 -228q-5 -37 -6 -57z" />
<glyph unicode="&#x421;" horiz-adv-x="1448" d="M0 441q0 93 23 161q3 8 2 23q0 59 58 193q49 112 96 186q79 126 117 176q68 90 144 150q49 35 144 108q172 135 318 135q124 0 249 -92q5 -4 5 -8q0 -5 -10 -16.5t-11 -16.5q-3 -18 -3 -34q0 -19 4.5 -39.5t4.5 -24.5q0 -20 -60 -46q5 3 -35 2q5 104 -251 132 q-34 4 -95 -37q-42 -33 -86 -66q-225 -152 -279 -311q-55 -1 -132 -224q-75 -216 -75 -354q0 -46 13 -67q41 -66 50 -79q34 -42 75 -53q18 -4 18 -38q158 -78 325 -78q106 0 210 33q59 30 219 58q146 25 215 75q26 19 104 37q86 21 115 36q15 15 99 45q90 33 130 33 q22 0 22 -13q0 -22 -141 -94q-23 -8 -364 -145q-472 -188 -707 -188q-258 0 -426 168q-85 85 -85 273z" />
<glyph unicode="&#x422;" horiz-adv-x="1784" d="M1 1031q4 23 4 84q27 10 74 58t70 59q66 41 198 113q31 12 64.5 25.5t47.5 38.5q44 19 372 124q70 41 219 41q10 0 29 -2t28 -2q16 0 39 8.5t34 8.5q18 0 41 -14q30 12 58 12q19 0 54 -8q42 -10 61 -11q34 -3 67.5 -5t58.5 -24q100 0 180 -52q-31 -55 -44 -53 q-40 3 -239 28q-141 16 -232 16q-72 0 -138 -8q-37 -5 -56 -23q-25 -22 -37 -28l-41 -11q-3 -83 -23 -221q-22 -75 -24 -227q-4 -188 -10 -236q-27 -211 -16 -469q5 -31 9 -65q8 -44 22 -58q0 -41 23 -89q-38 -37 -165 -41q-20 0 -31 227q-10 198 -4 292q5 19 12 56 q5 124 27 379q15 128 2 232v170q-1 12 -21 12q-40 0 -177.5 -58.5t-148.5 -58.5q-22 -4 -101 -84q-16 3 -58 -34t-46 -57q0 -4 -22 -33.5t-24 -29.5q-56 -23 -95 -23q-49 0 -41 41z" />
<glyph unicode="&#x423;" horiz-adv-x="1107" d="M0 1374q22 152 52 189q10 10 29 10q40 0 86 -31t53 -67q49 -98 49 -192q0 -608 130 -607q45 0 105 83q258 362 355 743q20 19 38 41q70 14 64 13q55 0 62 -84q-10 -91 8 -137q10 -57 23 -151q5 -38 5 -84q0 -51 -9 -137q-11 -105 -13 -141.5t-21 -141.5 q-22 -113 -33 -134q-18 -22 -46 -80q-18 -63 -96 -157q-52 -51 -156 -163q-53 -67 -135 -106.5t-157 -39.5q-147 0 -154 137q0 5 -13.5 48t-13.5 69q0 45 41 55q14 3 51 -65q20 -40 43 -79q7 1 20 0q11 -5 44 -30q23 -18 40 -18q22 0 51 24q16 12 106 67q53 33 105 101 q11 34 54 91q63 106 67 120q30 102 58 220q8 34 8 82q0 90 -37 276q-8 44 -23 132q-34 -83 -107 -244q-156 -306 -333 -406q-27 -15 -52 -15q-67 0 -109 124q-15 42 -44 192q-7 101 -15 203q-14 176 -31 176q-7 0 -15 -24q-5 -18 -22 -18q-33 0 -74 52.5t-38 103.5z" />
<glyph unicode="&#x424;" horiz-adv-x="1557" d="M0 912q0 -119 81 -194q4 -1 15 -5q41 -38 142 -105q14 -4 163 -37q72 8 140 19l5 -488q1 -106 60 -102q127 11 127 179q0 70 -26 217q-29 164 -33 222q255 66 425 197q10 5 30 18q104 67 145 95q79 56 127 104q83 86 83 180q0 72 -52 125q-23 22 -157 68 q-479 -8 -479 -70q0 -12 25 -27q10 -4 23 -4q14 0 69.5 13.5t103.5 13.5q25 0 49 -4q8 1 43 -14q52 -25 88 -36q112 -41 112 -108q0 -52 -71 -125q-34 -37 -135 -120q-184 -154 -429 -215l17 684q26 11 50 19q66 25 178 27q98 1 117 16q57 44 21 85q-37 40 -131 40 q-120 0 -254 -73q-52 7 -82 -45q-122 -63 -242 -127q-130 -72 -296 -244q-52 -86 -52 -179zM150 926q26 203 399 400q-18 -112 -18 -294q0 -82 4 -194q4 -122 4 -132v-22q-29 -3 -56 -3q-198 0 -295 127q-29 37 -32 55q-3 8 -6 63z" />
<glyph unicode="&#x425;" horiz-adv-x="1213" d="M0 1278q22 22 27 26q11 7 37 12q15 3 27 3q37 0 61 -31.5t47 -61.5q51 -52 56 -52q74 -53 215 -170q8 -11 26 -32q38 -41 90 -78l58 142q0 15 14 40q19 31 22 38q12 53 46 157q23 52 65 214q19 18 24 35q29 5 59 53q29 -3 78 -67q7 -10 6 -26q0 -52 -35 -82 q-31 -55 -90 -165q-11 -25 -103 -266q-22 -57 -65 -172q25 -33 76 -77q67 -56 84 -72q68 -71 255 -168q10 -12 63 -51q3 -13 7 -53q-4 -18 5 -60l-34 -38q-35 -4 -51 -4q-67 0 -92 79q-31 14 -81 57q-61 57 -76 67q-22 11 -62 34q-41 30 -102 97q-30 26 -92 79 q-55 -137 -86 -237q-33 -90 -64 -179q-35 -104 -46 -183q-19 -16 -25 -31q-29 -7 -56 -55q-29 1 -82 64q-5 7 -5 22q0 59 34 85q31 56 87 168q30 91 99 269q0 1 80 159q-59 74 -177 172q-56 48 -119 99l-86 52q-66 38 -86 35q-30 -5 -32 96v23q0 25 -1 34z" />
<glyph unicode="&#x426;" horiz-adv-x="924" d="M0 528q-10 169 3 338q1 16 9 80q8 52 8 83q0 22 -4 40q-3 14 4 27q8 19 10 26q23 109 10 152q15 19 15 57q0 14 -2 42.5t-2 42.5q0 72 68 82q11 -29 31 -37q8 -26 8 -56q0 -26 -8 -76t-8 -74q-3 -104 -16 -120q-7 -61 -29 -175q1 -23 1 -68q-4 -8 -7 -26 q-11 -165 17 -344q10 -60 33.5 -89.5t76.5 -50.5q60 12 121 25q75 16 109 45q14 4 42 27q1 4 133 36q4 3 11 8q-23 116 -18 302q1 14 7 62q4 38 2 62q3 42 -1 115q-4 18 4 56q10 45 8 65q0 33 7.5 108.5t7.5 111.5q0 14 -3.5 42t-3.5 41q0 68 67 85q11 -34 33 -42 q10 -30 10 -97q0 -85 -15 -239q-11 -102 -22 -205q-1 -5 -6 -128q-5 -175 -5 -149q1 -82 27 -144q22 8 33.5 20t66.5 43q33 1 33 -20q0 -14 -15 -44q-20 -12 -26 -15q-41 -19 -67 -36q26 -52 82 -54q26 -25 27 -53q15 -16 14 -39q-11 -183 -111 -285q-82 -86 -182 -86 t-99 75q0 22 12 48q37 -23 67 -21q175 14 190 227q-18 4 -37 16q-33 22 -70 119q-31 -16 -57 -34l-38 -30q-40 -26 -89 -35q-42 -8 -143 -56q-87 -41 -138 -41q-46 0 -88 26q-33 19 -65 105q-30 78 -33 129z" />
<glyph unicode="&#x427;" horiz-adv-x="1146" d="M-1 984q0 206 23 361q35 225 110 228q29 1 72.5 -25.5t39.5 -52.5q-37 -101 -75 -202q-45 -135 -45 -268q0 -68 11.5 -143t41 -114.5t96.5 -75.5q75 7 150 15q94 8 138 38q16 4 52 29q1 4 139 23q5 91 17 249q4 7 9 15q29 31 40 186q8 131 0 200q97 122 165 122 q59 0 61 -116q-8 -11 -13 -19q-31 0 -56 -261q-27 -280 -52 -313v-7q23 7 37 18q34 27 112 53q44 1 43 -23q0 -16 -23 -60q-25 -12 -31 -15q-90 -31 -153 -66q-19 -115 -23 -152q-12 -86 -13 -171v-160q5 -89 56 -143q18 -38 18 -64q0 -30 -27 -30q-34 0 -32 2 q-1 -1 -8 -17.5t-11 -16.5q-48 -26 -45 -26q-11 0 -20 18q-64 22 -86 397q18 81 30 303l-4 -1q-23 -16 -48 -33q-51 -26 -112 -31q-53 -4 -165 -44q-104 -40 -160 -39q-72 0 -135 47q-41 29 -82 141q-37 102 -41 168q-1 26 -1 76z" />
<glyph unicode="&#x428;" horiz-adv-x="1795" d="M0 314q4 -68 41 -171q42 -115 83 -143q23 -16 73 -16q71 0 209 35q52 14 150 53q119 46 168 63q7 -7 15 -9q31 -10 58 30q37 10 73 15q94 15 230 72q109 46 219 94v-38q0 -119 64 -119q45 0 72 88q19 55 18 124q142 46 205 53q8 3 33 15q19 35 19 55q0 26 -41 30 q-63 -20 -221 -75q-14 68 -38 207q-20 115 -21 217q0 102 21 193q23 171 66 420q4 18 5 32q0 42 -50 42q-14 0 -41.5 -4t-37.5 -4q-81 -304 -80 -709q0 -86 9 -222q12 -187 15 -226q-289 -100 -482 -161q7 34 7 74q0 41 -44 292q-20 113 -20 216q0 104 20 194q22 169 66 420 q5 18 5 32q0 42 -49 42q-14 0 -42.5 -4t-37.5 -4q-79 -306 -80 -709q0 -93 14 -280.5t14 -284.5q0 -18 1 -35q-281 -87 -409 -112q-70 35 -100 75.5t-41 117.5q-27 184 -16 375q4 11 9 31q-5 30 -1 87q10 29 35 219q19 19 21 150q1 31 11.5 93.5t10.5 94.5q0 38 -11 71 q-26 14 -40 54q-87 -3 -87 -96q0 -16 3 -53t3 -55q0 -48 -20 -69q16 -56 -11 -192q-3 -10 -14 -32q-7 -15 -4 -33q4 -23 4 -52q0 -40 -9 -105q-11 -79 -12 -101q-18 -227 -10 -362z" />
<glyph unicode="&#x429;" horiz-adv-x="1475" d="M0 539q3 -55 34 -140q34 -93 68 -118q22 -16 71 -16q142 0 567 156q46 15 149 54q105 46 213 86l4 -19q8 -45 37 -108q30 -70 54 -87q19 -15 39 -23q-5 -91 -32 -137q-46 -82 -166 -76q-34 1 -70 30q-14 -26 -14 -50q0 -41 36.5 -66t90.5 -25q101 0 179 79q94 97 104 275 q1 23 -15 42q-1 30 -27 57q-56 10 -82 60q-20 35 -37 84q113 38 176 50q5 3 26 12q16 29 16 46q0 20 -34 24q-49 -16 -201 -70q-5 31 0 227q-3 46 6 134q12 105 23 210q16 161 17 249q0 33 -2 57q-23 37 -48 37q-33 0 -61 -62q4 -22 4 -50q0 -35 -8 -114t-7 -114 q-11 -45 -15 -124q0 -41 3 -120q1 -25 -3 -65q-7 -51 -7 -65q-7 -179 2 -232q-243 -83 -405 -137q5 29 6 62q0 34 -37 240q-16 93 -16 177q0 85 17 159q18 141 55 345q4 15 4 28q0 34 -41 34q-12 0 -34.5 -3.5t-30.5 -3.5q-66 -251 -66 -583q0 -75 11 -230t11 -234 q0 -15 1 -29q-231 -72 -337 -93q-98 51 -115 160q-23 152 -13 308q4 8 8 25q-4 25 -2 72q7 23 31 179q15 16 16 124q0 25 9 78q8 49 9 77q0 31 -9 58q-22 11 -32 44q-72 -3 -73 -78q0 -15 3 -45t3 -43q0 -40 -17 -58q14 -46 -9 -158q-1 -7 -11 -26q-7 -12 -4 -27 q4 -19 4 -43q0 -33 -8 -87q-10 -64 -10 -82q-15 -187 -8 -298z" />
<glyph unicode="&#x42a;" horiz-adv-x="1241" d="M0 1278q8 100 108 169q89 53 179 107q56 27 108 27q31 0 71 -8q30 -19 35 -66q0 -2 -1 -77q-11 -37 -17 -194q-5 -135 -4 -198q102 -10 361 -126q265 -120 308 -184q34 -52 34 -110q0 -143 -211 -296q-184 -134 -456 -231q-261 -91 -430 -91q-45 0 -77 8q-3 20 -3 38 q0 70 55 70q15 0 37 -5.5t25 -5.5q3 1 4 3q228 -10 520 124q315 145 400 336q7 15 7 30q0 105 -264 225q-235 109 -325 103q-26 -11 -38 -242q-12 -242 -16 -247q51 -139 50 -163q0 -66 -79 -101q-7 0 -32 -6t-39 -6q-38 0 -34 42q4 213 28 530q3 16 7 278.5t25 366.5 q4 15 4 27q0 38 -22 38q-7 0 -16 -7q-113 -70 -114 -105q0 -5 3 -12q7 -19 -49 -49t-100 -30q-45 0 -42 38z" />
<glyph unicode="&#x42b;" horiz-adv-x="1501" d="M0 68q0 -29 18.5 -50.5t51.5 -17.5q280 37 606 187q416 191 416 400q0 33 -11 64q-29 89 -204 182q-164 87 -269 87q-116 0 -116 15l66 71q31 96 275 243q214 130 415 201q7 -74 -1 -197q-8 -145 -32 -174q-3 -7 -7 -15q-8 -247 -42 -631q18 -366 70 -388q8 -16 16 -16 q-1 0 36 24q4 0 9.5 16t6.5 18q-3 -4 24 -4q22 0 22 30q0 26 -13 62q-41 55 -45 113v183q-1 98 12 209q15 101 29 203q20 31 41 305q20 253 45 252q4 10 11 20q-1 113 -50 113q-22 0 -52 -26q-132 -12 -492.5 -219.5t-334.5 -262.5q-14 -7 -22 -7q-15 0 -15 23 q0 38 57 201.5t57 205.5q0 19 -7 26q-22 38 -66 38q-78 0 -98 -79q-45 -272 -118 -610v-3q0 -27 -9.5 -190t-9.5 -254q0 -199 43 -204q5 0 23.5 6.5t30.5 6.5q68 31 69 69q0 11 -5 23q-55 149 -54 333q0 182 95 181q86 0 279 -80q223 -93 222 -180q0 -15 -6 -29 q-75 -153 -293 -255q-93 -44 -383 -134q-119 -37 -163 -37q-16 0 -41.5 5.5t-35.5 5.5q-51 0 -51 -59z" />
<glyph unicode="&#x42c;" horiz-adv-x="1231" d="M0 46q0 70 55 70q15 0 36.5 -5.5t24.5 -5.5t3 3q228 -10 519 124q314 143 400 333q7 15 6 32q0 104 -262 224q-236 109 -325 102q-26 -11 -38 -242q-12 -240 -16 -245q-3 -63 15 -133q19 -74 19 -87q0 -45 -67 -74q-7 0 -32 -6t-39 -6q-38 0 -34 42q7 228 33 558 q3 16 7 277t25 367q1 7 2 17q0 15 -3.5 55.5t-3.5 60.5q0 60 25 66q42 10 107 -6q31 -19 36 -65q1 -3 0 -78q-12 -42 -32.5 -191t-19.5 -195q104 -10 374 -127q281 -122 324 -186q34 -52 34 -108q0 -143 -212 -296q-183 -132 -454 -230q-259 -91 -428 -91q-45 0 -76 8 q-3 20 -3 38z" />
<glyph unicode="&#x42d;" horiz-adv-x="1395" d="M1 1369q-12 29 112 100q91 53 151 77q67 27 139 27q115 0 271 -72q131 -66 263 -132q117 -53 228 -275q82 26 147 34q7 -15 16 -29v-1q0 -12 2 -23q-45 -3 -70.5 -10.5t-67.5 -32.5q35 -85 41 -154q1 -3 0 -8q-1 -7 -1 -11q7 -74 6 -228q-3 -18 -47 -183 q-221 -351 -461 -388q-8 -4 -24 -9q-172 -57 -247 -51q-93 8 -155 101q-55 81 -58 180q38 19 65 56q7 5 13 13q27 -10 56 -10q-3 -186 176 -186q26 0 102 7q175 16 320 168q164 172 163 410q0 64 -13 131q-10 48 -43 113q-1 0 -2 -1q-60 -25 -179 -67q-56 -10 -165 -48 q-93 -41 -186 -83q-67 -33 -113 -123q-15 -29 -57 -53.5t-77 -24.5q-49 0 -52 52q30 85 171 173q61 40 125 66q8 4 116 33q46 12 381 143q-1 1 -45 72q-85 102 -269 191q-194 94 -343 95q-94 0 -148.5 -44t-54.5 -71q0 -12 20.5 -36t20.5 -46q0 -56 -46 -56q-31 0 -76 20 t-57 35q-33 38 -35 80q-4 57 -13 79z" />
<glyph unicode="&#x42e;" horiz-adv-x="1462" d="M-1 874q0 209 23 367q35 231 112 242q29 4 73 -18t39 -49q-37 -105 -74 -212q-46 -142 -46 -274q0 -70 11 -144q3 -12 -13 -256q-12 -194 18 -277q20 79 49 159q20 31 53 95q5 29 28 87q15 33 50 95q5 10 63 82q29 35 60 66q72 289 208 517q15 26 142 171q16 1 80 48 q55 26 68 26q22 0 39 -29l17 -49q-3 -11 -2 -22q0 -15 4.5 -36t4.5 -27q0 -23 -54 -24q-14 -16 -25 -17q-7 0 -20 16t-24 16q-10 0 -23 -11q-34 -5 -44 -32q-61 -52 -143 -196q-83 -150 -102 -249q68 45 183 71q12 1 22 2q33 0 32 -17q0 -18 -35 -60q-147 -1 -216 -60 q-49 -146 -37 -415q7 -33 15 -89q37 -143 134 -170q78 -23 96 -24q30 0 65 20q40 -1 90 32q42 30 84 59q27 16 132 176q67 44 115 204q37 128 34 184q-7 142 -7 93q-22 33 -22 56q0 105 -84 198t-190 93q-37 0 -71 -13q-49 -79 -92 -79q-26 0 -26 45q0 51 32 66q37 52 69 52 q10 0 21 -4q12 8 25 7t23 8q14 -8 41 -6q74 7 187 -67q98 -64 152 -131q-1 -16 3 -31q12 -34 47 -211q7 -35 6 -75q0 -109 -66 -282q-11 -38 -69 -112q-44 -51 -86 -103q-146 -167 -185 -170q-90 -30 -149 -59q-20 -11 -48 -11q-15 0 -46.5 4t-46.5 3q-7 -1 -18 -1 q-74 0 -118 36q-7 1 -30 18q-79 38 -104 135q-10 40 -18 182q-4 67 8 106q-11 44 -2 114l-6 -8q-19 -27 -57 -89l-48 -111q-22 -42 -57 -121q-4 -33 -20 -103q-31 -117 -39 -221q-44 -60 -59 -60q-16 0 -37 25q-56 35 -98 772q-1 26 -1 77z" />
<glyph unicode="&#x42f;" horiz-adv-x="1288" d="M-16 38q0 16 16 48q29 16 42 38q34 11 44 11q22 0 25 -33q89 10 237 136q83 63 167 125q153 122 153 164q0 8 -6 14q-49 48 -165 62q-35 10 -107 29q-177 38 -200 47q-116 44 -116 131q0 48 34 112q44 78 140 163q33 29 173 136q35 33 106 83q42 22 97 64q35 15 90 56 q23 14 86 45q138 71 220 90q51 3 153 14q38 4 54 -62l-47 -73q-18 -1 -38.5 -24t-32.5 -23q-10 0 -22 8q-1 1 -4 5q3 5 2 10q0 48 -87 48q-20 0 -37 -4q-128 -38 -226 -112q-15 -4 -47 -18q-20 -15 -63 -43q-127 -87 -165 -116q-82 -63 -150 -142q-14 -5 -36 -37 q-26 -26 -57 -90q19 -60 21 -63q19 -46 36 -52q96 -16 284 -60q33 -12 103 -34h34q27 -4 67 -26q51 -29 63 -33q18 -7 17 -27q0 -40 -65 -118q-59 -71 -94 -90q-61 -33 -191 -133q-124 -98 -189 -132q-63 -41 -180 -98q-19 -5 -29.5 -15t-21.5 -11q-16 -3 -26 -8 q-63 10 -62 38zM849 359q12 75 13 283q1 257 4 301q4 7 6 15q23 31 26 170q1 119 -8 179q82 128 142 128q44 0 51 -97q-7 -10 -11 -19q-27 -4 -37 -239q-10 -253 -30 -284q-10 -96 -19 -190q-10 -101 -6 -192q4 -83 10 -167q5 -56 50 -98q18 -33 18 -56q0 -25 -22 -29 q-14 -1 -27 0q-4 -16 -15 -33q-38 -29 -38 -28q-8 0 -17 13q-56 11 -90 343z" />
<glyph unicode="&#x430;" horiz-adv-x="681" d="M-4 124q0 -108 50 -119q16 -4 39 -4q82 0 157 39q15 8 40 37t36 38q30 22 66 64q30 37 60 72q14 15 17 15l7 -34q3 -18 13 -53q8 -11 20 -34q3 -18 12 -51q12 -14 57.5 -63t118.5 -69q15 -8 47 -22q12 -2 38 -3q1 8 9.5 13.5t4.5 22.5q-3 15 -12 22q-27 12 -80 43 q-101 75 -117 144l-18 69q-3 12 2.5 35t5.5 31q0 57 32 149q-4 15 4 45t7 45q0 8 3 24.5t3 22.5q8 131 -6 148q-34 40 -125 40q-123 0 -198 -95q-7 -4 -19 -13l-42 -48q-18 -14 -49 -45q-19 -22 -41 -53q-91 -134 -109 -234q-11 -44 -21 -89q-12 -53 -12 -90zM105 172 q-4 67 22 137q7 19 57 127q22 45 96 127l61 79q7 0 47 37q8 -1 33 8t35 9q8 0 11 -5q53 -29 53 -78q0 -40 -35 -93q4 -6 -6 -39l-24 -62q-3 -3 -10 -7q-23 -37 -45 -73q-38 -63 -53 -59q-97 -156 -217 -174q-20 -3 -24 24q0 20 -1 42z" />
<glyph unicode="&#x431;" horiz-adv-x="745" d="M0 119q3 -20 6.5 -41t20.5 -30q3 -27 26 -35t47 -13q5 8 42.5 17t51.5 8q49 29 153 83q20 19 59 54l60 55q10 7 57 75q16 15 46 44q60 67 74 134q16 14 38 90q30 -1 30 31q0 23 -15 67q5 22 13 55q18 102 17 165q0 186 -159 237q-49 16 -88 47q-42 31 -42 60q0 27 38 44 q203 91 306 91q89 0 116 -61q1 -1 5 -2q19 0 51 24q37 26 37 54q0 22 -23 41q-46 37 -119 37q-81 0 -219 -51q-177 -64 -198 -68q-53 -14 -100.5 -57.5t-47.5 -91.5q0 -41 41 -73q35 -29 83 -48q64 -27 105 -51q124 -72 124 -183q0 -29 -5 -73q-66 44 -126 37 q-87 -10 -146 -73q-38 -19 -80 -71q-34 -44 -69 -89l-12 -12q-26 -41 -83 -121q-35 -45 -40 -55.5t-11 -24.5q-20 -70 -61 -211q-1 -7 -3 -14v-1zM116 131q-1 18 15 64q14 8 30 101q7 22 18 63q10 4 54 87q12 20 37 61q11 7 32 23q25 41 88 112q42 31 107 38l49 -15 q10 -16 33 -47q1 -16 -6 -83q-25 -52 -81 -155q-16 -8 -20 -30q-18 -22 -54 -62q-29 -25 -88 -74q-4 -12 -21 -26q-105 -82 -164 -82q-26 0 -29 25z" />
<glyph unicode="&#x432;" horiz-adv-x="872" d="M-1 137q18 -12 17 -47l47 -31q0 -30 23 -40.5t46 -18.5q8 8 48 13t55 1q56 25 171 68q23 18 66 49l70 49q10 7 68 73q19 12 55 39q71 61 93 129q19 12 50 90q31 30 28 113l-15 56q-38 31 -77 63q-41 27 -93 27q-93 0 -161 -57q-42 -15 -93 -64l-82 -84q-5 -4 -15 -11 q-46 -41 -45 -41q-1 0 -1 2q0 4 12 26q-3 14 15.5 47t20.5 44q1 23 34 120q102 37 195 107q83 60 167 120q89 70 139 145t50 164q0 71 -34.5 119t-94.5 48q-56 0 -123 -45q-227 -153 -305 -363q-1 -3 -2 -7q-16 -48 -77 -234q-106 -12 -106 -35q0 -7 7 -15q27 -26 75 -27 q-15 -48 -28 -90q-1 -5 -19 -44q-14 -31 -11 -41q-42 -109 -123 -327q-7 -22 -47 -90zM167 132q0 19 21 66q16 7 45 101q8 22 26 64q10 3 67 83q15 19 47 58q12 7 34 20q31 40 106 105q48 27 116 28l50 -22q8 -18 28 -52q0 -18 -15 -85q-31 -52 -104 -153q-18 -7 -23 -28 q-15 -7 -34 -26q-23 -26 -31 -32q-33 -22 -100 -65q-5 -12 -25 -23q-109 -67 -174 -67q-34 0 -34 28zM366 847q26 82 45 135q16 23 16 41q0 25 37 84t59 70q10 4 113 100q93 85 130 84q34 0 34 -61q0 -115 -141 -256q-100 -100 -293 -197z" />
<glyph unicode="&#x433;" horiz-adv-x="731" d="M0 516q5 18 16 56q34 12 69 23q53 20 61 37q48 25 141 79q113 76 363 85q12 -12 27 -38q-4 -71 -65 -161q-14 -22 -111 -142q-19 -14 -44 -39q-34 -41 -50 -56q-26 -27 -59 -46q-12 -26 -86 -90q-40 -33 -109 -119q83 31 246 107q16 5 50 16q40 16 119 45q90 16 268 72 q22 7 60 -4q25 -14 24 -24q0 -16 -56 -28q-33 -5 -65 -9q-344 -104 -556 -223q-14 -11 -42 -28q-30 -7 -69 -29q-11 -1 -36.5 -7.5t-38.5 -6.5q-33 0 -45 34q23 57 45 82l54 63q4 18 28 38q18 16 37 33q52 55 156 163q4 12 11.5 15.5t12.5 10.5q10 15 26 38q56 44 110 121 q14 8 48.5 59.5t27.5 58.5l-67 9q-74 -26 -212 -95q-10 -5 -24 -18q-18 -4 -53 -34q-27 -22 -55 -45q-35 -34 -93 -71q-70 34 -64 68z" />
<glyph unicode="&#x434;" horiz-adv-x="789" d="M-100 -770q0 -131 81 -131q85 0 186 175l184 314q19 33 67 150q8 20 76 162q48 101 64 167q8 34 26 98q12 37 142.5 85t133.5 60q-23 12 -57 12q-79 0 -167 -45q-18 0 -18 42t32 185q5 25 -1 84q-3 46 -6 95q-7 71 -26 87q-40 23 -108 23q-156 0 -224 -75 q-53 -59 -108 -116q-60 -70 -84 -125q-94 -216 -85 -376q7 -102 116 -102q57 0 118 28.5t95 70.5q38 35 78.5 74.5t62.5 77.5q10 18 14 19q3 -1 2 -5q0 -18 -23 -89q-57 -30 -240 -197q-130 -145 -273 -471q-57 -131 -58 -277zM12 -707q31 238 186 514q7 11 41 48 q25 26 25 49q0 12 27 30t27 28q34 35 68 69q48 46 48 20q0 -10 -7 -31q-37 -116 -161 -408l-110 -196q-100 -173 -129 -174q0 25 -15 51zM120 208q0 64 11 92q122 318 262 381q51 22 81 22q51 0 50 -57q0 -81 -94 -258q-75 -143 -100 -171q-89 -97 -163 -113 q-46 -10 -47 104z" />
<glyph unicode="&#x435;" horiz-adv-x="621" d="M7 220q0 120 37 199q30 56 88 171q26 25 76 78q37 60 155 108q53 20 105 20q96 0 120 -76q8 -25 -12 -62q-33 -60 -94 -112q-14 -12 -117 -89q-3 -5 -11 -13q-35 -15 -101 -71q-20 -18 -63 -47q-7 0 -22 -2l-48 -25q0 -216 131 -214q46 0 126 35q57 27 116 55 q40 18 54 27q31 18 44 38q5 11 14 11q30 1 27 -39q-12 -30 -38 -45q-42 -25 -119 -82q-175 -85 -255 -85q-83 0 -148 67.5t-65 152.5zM152 430q0 -5 2 -5q7 0 25 13q19 10 85 53.5t66 47.5q37 19 51 30q22 18 38 44q5 10 32 34q18 16 17 38q0 25 -28 25q-42 0 -96 -31 q-72 -41 -175 -208q-18 -29 -17 -41z" />
<glyph unicode="&#x436;" horiz-adv-x="1381" d="M-82 71q0 -33 42 -56q8 7 49.5 11.5t56.5 2.5q18 5 54 17q3 4 19 14q29 11 58 21q51 18 50 24q45 31 133 93q10 7 69 74q19 14 54 42.5t61 62.5l19 5q31 7 66 14q-70 -149 -107 -280q-10 -35 -11 -67q18 -25 44 -49q63 10 71 42q1 26 9 78q26 105 111 294q30 3 67 5 q-8 -25 -17 -67q-16 -94 -16 -132q0 -56 22 -103q7 -18 12.5 -34t27.5 -27q5 -3 12 -11q52 -45 124 -45q64 0 160 38q78 34 154 67q14 18 31 67q-82 -26 -158 -61q-76 -19 -123 -20q-100 0 -144 82q-15 26 -16 71q0 76 36 181q27 0 59 1q1 0 31.5 -5t48.5 -5q31 0 32 14 q0 12 -24 34q-8 12 -30.5 15t-23.5 7q-31 -7 -71 -7q4 10 8 17q3 1 8 6q15 25 48 73q7 3 19 12q72 98 134 98q34 0 49 -42q4 -11 6 -53q1 -33 16 -49q5 -7 14 -7q7 0 62 29q7 16 33 45q1 11 -13 71t-25 71q-45 38 -97 38q-37 0 -134 -36q-1 -4 -9 -13q-18 -14 -52 -43 q-112 -109 -146 -173q-14 -25 -21 -38q-38 3 -59 2q1 4 99 160q19 27 52 82q-8 8 -19 45q-8 26 -36 32q-5 -3 -16 -5q-31 1 -37 -1q-14 -11 -29 -22q-7 -25 -24 -65q4 -22 -22 -66q-8 -23 -21 -53q-34 -64 -61 -116q-20 1 -66 -6q11 20 30 65q4 3 10 8q20 48 19 108l-15 57 q-40 33 -79 64q-42 27 -94 27q-71 0 -148 -39q-5 -7 -18 -18q-10 -3 -26 -11q-66 -49 -185 -170q-19 -78 -19 -91q0 -34 20 -56q29 41 90 114q12 7 36 20q31 41 109 108q63 37 117 29q35 -5 50.5 -29t30.5 -48q0 -75 -63 -165q-12 -1 -34 -4q-14 -8 -29 -14q-10 -5 -18.5 -9 t-15.5 -7.5t-14 -7.5q4 -12 9 -25q1 -5 2 -8q10 -15 17 -30v-1q-15 -7 -34 -28q-25 -26 -32 -31q-35 -22 -104 -67q-5 -12 -24 -25q-112 -68 -179 -68q-35 0 -35 30q-76 -30 -77 -79z" />
<glyph unicode="&#x437;" horiz-adv-x="669" d="M-126 -659q0 132 48 251q116 298 223 428q138 141 218 188q15 31 33 86q-15 1 -40.5 -6.5t-27.5 -13.5q-14 -1 -36 -13.5t-30 -12.5q-15 0 -24 28q11 30 34 72q51 57 102 115q18 19 87 124q14 8 47.5 58.5t26.5 57.5q-8 14 -31 14q-14 0 -33 -6q-70 -26 -202 -93 q-8 -5 -23 -17q-44 -11 -122 -67q-42 -31 -52 -79q-27 0 -53 19q-31 20 -27 48q38 51 139 112q42 23 126 73q15 10 76 32q145 51 281 54q12 -12 28 -37q-5 -70 -64 -157q-12 -20 -106 -138q-27 -31 -103 -105q38 15 114 47q0 1 14 -2.5t14 -25.5q-1 -24 -13 -73 q59 34 108 34q29 0 51 -14q-3 -11 -96.5 -50t-104.5 -71q-4 -14 -22 -90q-14 -61 -53 -157q-59 -142 -63 -155q-16 -49 -54 -136l-173 -283q-48 -81 -57 -94q-51 -66 -94 -66q-66 0 -66 121zM-34 -603q12 -23 12 -46q23 0 116 156q49 89 100 178q49 128 134 383q4 15 4 23 q0 12 -7 13q-14 0 -56 -43q-27 -27 -53 -54q0 -11 -45 -68q-49 -64 -54 -73q-127 -253 -151 -469z" />
<glyph unicode="&#x438;" horiz-adv-x="798" d="M-4 146q0 -42 16.5 -62t35 -41t40 -24.5t39.5 -3.5q53 0 116 48q35 26 56 33q71 72 179 226q14 33 37 60q19 31 39 64q29 48 41 40q-1 -35 -13 -79q-25 -183 -25 -245q0 -35 3 -68q10 -27 24 -84q37 -27 33 -28l41 18q25 12 25 29q0 10 -11 29.5t-14 30.5q-14 48 -14 112 q0 48 15 183q5 35 15 109q23 132 59 203q8 15 32 66q-23 35 -51 35q-20 0 -41 -16q-7 -15 -15 -27h-1q-11 -61 -55 -108q-1 -5 -4 -8q-53 -82 -162 -248q-4 -5 -7 -15q-48 -70 -97 -137q-61 -79 -120 -115q-33 -20 -93 -4q-26 26 -26 71q0 23 9 68t9 64q1 34 42 149 q40 109 57 135q59 70 59 119q0 31 -20 46t-37 11q-38 -11 -54 -116q-61 -78 -107.5 -213t-50.5 -241q-3 -33 -4 -66z" />
<glyph unicode="&#x439;" horiz-adv-x="798" d="M-4 146q0 -42 16.5 -62t35 -41t40 -24.5t39.5 -3.5q53 0 116 48q35 26 56 33q71 72 179 226q14 33 37 60q19 31 39 64q29 48 41 40q-1 -35 -13 -79q-25 -183 -25 -245q0 -35 3 -68q10 -27 24 -84q37 -27 33 -28l41 18q25 12 25 29q0 10 -11 29.5t-14 30.5q-14 48 -14 112 q0 48 15 183q5 35 15 109q23 132 59 203q8 15 32 66q-23 35 -51 35q-20 0 -41 -16q-7 -15 -15 -27h-1q-11 -61 -55 -108q-1 -5 -4 -8q-53 -82 -162 -248q-4 -5 -7 -15q-48 -70 -97 -137q-61 -79 -120 -115q-33 -20 -93 -4q-26 26 -26 71q0 23 9 68t9 64q1 34 42 152 q40 111 57 136q59 70 59 118q0 30 -20 44t-37 10q-38 -11 -54 -116q-61 -78 -107.5 -213t-50.5 -241q-3 -33 -4 -66zM374 812l21 41q0 -1 9 18q4 4 25 41q7 5 26 37q15 26 31 31l18 3l26 -11l13 -15l21 -18q-10 -10 -60 -82q0 -10 -19 -43q-15 -25 -6 -47q22 -10 19 -42 q-3 -1 -9 -10q-16 -15 -33 -10q-51 12 -76 35z" />
<glyph unicode="&#x43a;" horiz-adv-x="815" d="M3 33q83 304 176 542q11 29 18 89q8 75 15 105q40 20 86 20q40 0 49 -22q-8 -38 -21 -71q-22 -68 -73 -202q-8 -31 -7 -37q60 12 110 48.5t99 73.5q80 42 189 123q7 0 62.5 61.5t71.5 61.5q7 0 8 -9q12 -37 -4 -58q-26 -34 -82 -101q-72 -57 -146 -115q-91 -71 -153 -104 q-15 -4 -42 -16q-57 -15 -57 -62q0 -52 46 -77q259 -310 428 -335q4 0 4 -4q0 -12 -36 -34q-41 -25 -82 -25q-44 0 -74 30q-57 14 -226 217q-142 171 -168 219q-34 -79 -49 -150q-7 -19 -21 -58q-10 -44 -19 -87q-22 -56 -93 -49q-3 7 -9 26z" />
<glyph unicode="&#x43b;" horiz-adv-x="752" d="M-87 -113q1 55 41 155q7 20 36 55q22 25 44 49q46 55 133 182q33 16 106 131v-4l51 56l35 57q7 5 11 7l137 108q26 20 64 67q11 14 19 21q1 1 15 13l45 11l42 -21q3 -20 3 -33q0 -16 -7 -24q4 -7 7 -12l-30 -149q-12 -29 -22 -107l-3 -69q-3 -8 -4 -17q-5 -19 -7 -91 q1 -30 2 -69q-3 -8 -6 -76q-3 -10 6 -30q11 -25 11 -31v-22q-27 -22 -41 -34l-14 -5l-53 15l-17 46l11 84l13 220q-1 1 0 7l4 5q1 3 1 6q1 26 4 58q1 11 4 29q5 38 3 49q11 42 11 86q-8 7 -16 7l-28 -23q-1 -10 -8 -12l-3 -2q-48 -25 -71 -49q-8 -10 -50 -67l-19 -33 q0 -1 -13 -1l-23 -29l-8 -15l-34 -35q-3 -5 -8 -15q-66 -98 -200 -283q-19 -23 -37.5 -47.5t-24.5 -57.5q-1 -42 -5 -85q-5 -64 -30 -64q-81 0 -77 88z" />
<glyph unicode="&#x43c;" horiz-adv-x="1190" d="M-74 -109q3 55 41 154q8 22 37 55q22 25 44 49q10 22 43 71h-1q-1 30 23 44q1 4 7 19q37 37 60 47q42 20 109 125v-4l51 53l41 39q7 4 11 7l127 134q23 18 64 67q11 14 19 22q1 1 15 12l45 11l43 -20q3 -20 2 -33q0 -16 -7 -25q4 -7 7 -12l-31 -148q-19 -49 -25 -86 l-11 -86h18l128 126q1 5 7 7h2l15 12l155 158l3 -2l63 52l60 12l14 -11q3 -5 12 -5l23 -43l15 -147l-9 -22q4 0 6 -3l-22 -248l-12 -11l-5 -213l-13 -19l11 -15l-6 -11l-29 -14l-1 1q-4 1 -7 5l-44 10l-10 14l-6 59l12 112l-6 13l13 20v12l8 31l-8 15l8 14v90l12 29l-7 101 q3 16 2 27q-11 48 -25 61l-79 -56v-5q-23 -12 -41 -34q-1 -3 -29 -45l-87 -71l-7 -7q-40 -34 -44 -41q-68 -72 -96 -115q-45 -37 -63 -52l-14 -5l-53 16l-15 44l34 77l24 110q-3 3 0 7l3 7q1 3 2 5q7 19 8 32q0 7 4 27q4 33 5 29q11 42 11 87q-8 5 -16 5l-27 -23 q-1 -10 -9 -12l-2 -1q-7 -3 -13 -10l-4 -3l-2 -2l-100 -107l-18 -33q-4 -7 -11 -6l-24 -24l-9 -15l-34 -34q-3 -7 -9 -16l-84 -105q-8 -3 -17 -7q-8 -15 -24 -44q-31 -64 -76 -120q-19 -23 -37.5 -47.5t-23.5 -56.5l-6 -84q-5 -64 -30 -65q-81 0 -78 88z" />
<glyph unicode="&#x43d;" horiz-adv-x="780" d="M-4 37q-3 30 3 63q15 96 45 198q-10 14 -21 27q-3 3 -5 7q-5 11 -11 22q7 5 13.5 9t15 9t18.5 10.5t18 12.5q26 76 66 178q5 22 14 51q19 45 12 65q5 29 16 65q12 12 26 24q4 3 33 4q1 0 6.5 3t8.5 3q26 -1 35 -25q15 -33 24 -39q-1 -7 -39 -84q-30 -59 -79 -176l-12 -38 q38 12 68 26q16 3 48 8q37 10 109 25q15 1 123 8q23 66 56 150q5 22 14 51q19 45 12 64q5 30 16 65q12 12 26 25q4 3 33 4q1 0 6.5 2.5t8.5 2.5q26 -1 37 -24q14 -34 23 -41q-3 -5 -39 -82q-30 -59 -80 -176l-9 -29q14 4 24 7q15 -1 37 -3q14 -1 22 -11q27 -19 27 -30 q0 -16 -51 -17q-30 1 -62 1l-15 -3q-52 -165 -63 -262q-4 -35 7 -74q14 -46 45 -46q10 0 10 -12q0 -45 -37 -58q-29 -8 -47 -8q-26 0 -40.5 21t-30.5 45q-23 52 -13 114q19 123 64 264q-184 -30 -358 -97q-40 -132 -49 -219q1 -25 0 -75q-4 -31 -61 -46q-5 -1 -26.5 17 t-21.5 24z" />
<glyph unicode="&#x43e;" horiz-adv-x="719" d="M-7 228q-3 12 0 34q3 12 3 22q0 8 -3 14l63 168q3 1 8 11q1 4 6 9l11 36l8 15q46 67 97 173q10 3 11 7l32 57q8 3 13 10q19 41 45 49q30 19 41 26h24q7 -15 32 -32l8 -16l-3 -33l57 -13q3 1 7 1l114 -42q14 -26 27 -30q23 0 35 -29q25 -15 30 -26l24 -52q-3 -11 1 -34 q0 -5 4 -23q1 -14 0 -18q1 -52 0 -56q-3 -9 -26 -75l-19 -59l-41 -67l-18 -24q-4 -14 -15 -28l-35 -45l-42 -34q-4 -10 -10 -12l-34 -25l-52 -34q-3 -4 -8 -9q-61 -25 -92 -41q-59 -12 -75 -13l-45 14l-35 8l-26 13q-46 10 -85 73q-4 16 -22 63q-15 40 -15 67zM98 269 q14 -104 78 -135q78 -22 82 -21q25 1 52 11l33 8l22 20l46 24l76 59q12 27 37 39l25 44l15 32l9 23l17 35q8 13 9 28q1 11 0 30q-1 22 -8 35l-28 57l-11 33q-10 4 -15 17l-66 38q-3 3 -3 8l-71 18q-3 4 -13 4q-18 0 -52 -7q-3 -4 -7 -4q-4 1 -7 3q-4 -1 -22 -2 q-14 -10 -45 -37l-15 -23q-3 -4 -28 -48q-31 -55 -40 -87q0 -10 -1 -12q-18 -26 -24 -43q-7 -35 -4 -38l-17 -24q-1 -10 -24 -85z" />
<glyph unicode="&#x43f;" horiz-adv-x="983" d="M5 44l32 -34l37 -6l7 7l42 37l26 11l49 42l72 56l9 18q19 5 49 36t47 36q33 42 76 70l38 26q3 4 5 13l64 50q23 11 67 42q20 3 60 15q37 0 47 -29q15 -25 34 -149q5 -20 1 -58t0 -59q-4 -15 -4 -31q1 -1 7 -65l6 -39l10 -59l3 -48l23 -37l28 -68q3 -5 9 -18l94 -17l6 5 q8 0 24 7l16 18l-13 39l-22 18l-32 68l-13 62l-1 30q-1 29 -14 114q1 10 6 70q-3 3 -7 12l7 30q-5 26 -4.5 86.5t-9.5 88.5q-15 61 -19 74q-11 26 -46 63l-28 15q-7 8 -53 12l-132 -45l-61 -37h-8q-5 -4 -22 -16l-12 -13q-20 -18 -94 -84q-25 -7 -46 -43l-21 -12 q-1 -5 -7 -12l-61 -49l-101 -78l-17 8q-1 19 7 45q19 60 19 98q16 18 13 36l24 98q3 3 8 15q-1 19 10.5 56t11.5 53q22 29 19 43q4 10 13 33q4 4 19 34l1 15q-27 48 -89 69q-7 0 -19.5 -7.5t-17.5 -7.5l-28 -2l-17 -108q-3 -11 -2 -37l-8 -33l-6 -91l-16 -25l-18 -79 l-16 -71l-26 -118q-7 -15 -11 -31l-3 -50l-8 -22q1 -1 -6 -39l-4 -23q-5 -7 -3 -24z" />
<glyph unicode="&#x440;" horiz-adv-x="703" d="M-93 -513l17 46q8 26 8 42l7 45l9 28v26q1 4 4 23q-1 3 0 3l32 204l20 91l-1 16l8 44l11 38q10 15 15 48v6q0 1 -2 2l31 102q18 20 32 97l4 8l3 9l14 60l7 17l1 -1l1 7q4 8 4 19q8 35 37 87l34 -1l6 4q16 3 20 11l67 83q3 14 27.5 38t39.5 28q8 10 11 15q31 33 48 42 l38 15q7 -1 18.5 2.5t17.5 3.5q10 0 21 -6l46 2q4 1 6 4l51 -19l35 -22q18 -15 17 -32l-2 -17l9 -22l-14 -88q4 -33 -40 -117q-4 -3 -13 -21l-25 -30l-48 -61l-103 -115l-13 -11l-57 -60l-21 -13q-63 -67 -90 -74l-47 -49q-4 -3 -18 -15l-10 -9l-1 -2l-3 -2l1 -1h-2 q0 -5 -4 -8l-4 -3q-4 -3 -7 -4q-10 -4 -22 -4t-26 4q-5 -1 -7 -5q0 14 -11 -52h-1l-8 -24l-21 -116q-1 -5 -9 -17l4 -11l-14 -77l-14 -98l-12 -56q1 -12 -5 -27l8 -33q-1 -4 0 -14q-1 -4 -10 -2l-19 -26l-18 -14l-64 9l-4 26v24zM186 225l4 -16q-1 -7 3 -10l34 -1l28 -22 l36 34q20 22 59 55l9 8l156 182q12 25 30 42q3 7 2 11l32 70l12 13q10 23 10 77v20l-3 17q-16 18 -27 25q-20 5 -32 6l-46 -12l-52 -40l-12 -20q-8 -5 -14 -14l-34 -34l-11 -18q-7 -4 -20 -16l-29 -65q-11 -15 -26 -31l-57 -131l-9 -10z" />
<glyph unicode="&#x441;" horiz-adv-x="598" d="M-16 209q0 -46 21 -96q5 -19 11.5 -36t27.5 -28q5 -3 12 -12q55 -51 138 -51q67 0 162 36q4 1 152 64q59 27 179 66q5 10 28 19q19 8 20 20q0 8 -7 22q-14 3 -34 -3q-25 -7 -33 -5.5t-46.5 -8.5t-45.5 -10q-104 -29 -206 -81q-75 -19 -120 -19q-100 0 -143 86 q-15 29 -15 71q0 106 64 240q3 1 9 9q14 26 47 76q7 3 19 11q71 104 132 104q33 0 48 -43q4 -14 6 -57q1 -35 16 -52q4 -7 14 -7q5 0 62 30q5 16 30 47q3 12 -11 75.5t-25 74.5q-44 41 -96 41q-37 0 -131 -38q-3 -4 -11 -14q-18 -15 -50 -45q-111 -116 -145 -183 q-49 -96 -63 -180q-16 -100 -16 -123z" />
<glyph unicode="&#x442;" horiz-adv-x="1287" d="M-23 81q0 22 31 39q34 79 100 239l72 191q48 122 48 185q16 16 46 16q12 0 80 -14q16 -12 15 -34l-6 -38q-19 -4 -30 -27q-27 -52 -76 -160q-35 -93 -34 -131q123 117 353 363q34 40 97 55l52 -25q-4 -31 3 -83l-39 -180q-16 -67 -42 -207h21q164 160 165 160 q15 12 116 113q93 91 94 89l77 64l72 15q26 -20 31 -20l29 -52l18 -178q-11 -26 -3 -30l-27 -301l-14 -14l-7 -257l-16 -23q11 -14 11 -22t-41 -26q-8 8 -35 13.5t-38 23.5q-10 71 -9 71q4 45 15 135q-3 5 -3 13q0 11 9 34t9 37t-7 27q10 16 10 127l15 34q-3 59 -4 119 q-7 85 -32 110q-49 -30 -97 -75q-33 -16 -83 -95q-40 -33 -115 -93q-86 -67 -169 -190q-30 -29 -93 -69l-64 20l-19 53q16 30 42 92l29 135q1 8 15 60q0 29 12 85.5t12 87.5q-7 5 -15 6q-5 0 -38 -26q-1 -11 -15 -21q-19 -12 -20 -15q-46 -40 -120 -129q-27 -46 -35 -47 q-51 -48 -92 -108q-1 0 -101 -127q-40 -11 -59 -58l-30 -11q-71 40 -71 74z" />
<glyph unicode="&#x443;" horiz-adv-x="780" d="M-34 -908q1 38 4 115q-1 3 -1 8q0 35 31 146q3 12 31 68q0 18 16.5 47.5t49.5 120.5l8 6q23 67 86 158q53 75 107 150q8 4 27 18q7 15 35 35t35 33q4 4 46 40q22 48 22 95q0 18 -8 18t-22 -13q-29 -11 -45 -26q-57 -51 -198 -100l-38 -1q-26 -1 -95 66q-53 94 -53 147 q0 23 7 43q5 14 14 115q0 11 12 50q8 25 53 132q33 81 41 136l27 55q42 19 48 19q16 0 36 -22q5 -8 5 -16q0 -14 -31 -55q-23 -79 -71 -239q-14 -38 -41 -113q1 -46 7 -138q3 -4 53 -63q38 -14 48 -15q16 -1 45 12q46 22 93 44q61 31 75 57q38 33 52 58q16 33 21 57 q16 111 66 329q11 7 7 29q10 18 28 58l40 21l48 -23l22 -32q3 -31 -9 -76q-12 -49 -12.5 -74t-36.5 -164q-10 -16 -20 -41q-16 -49 -48 -153q-18 -76 -5 -84q138 66 180 65q22 0 38 -7q48 -20 48 -32q0 -5 -4 -10q-41 -5 -237 -74q-15 -4 -60 -53q-11 -48 -30 -146 q-10 -61 -41 -169q-12 -29 -30 -86q-4 4 -8 -18q-5 -38 -23 -111q-16 -44 -49 -131q-7 -23 -23 -68q-20 -44 -39 -59q-3 -18 -28 -60q-25 -48 -82 -142q-45 -64 -120 -64q-15 0 -27 6t-36 23q-41 74 -41 98zM51 -849q3 -16 2 -49q5 -15 36 -44l34 20q26 40 74 121 q3 15 15 45q26 45 68 144q15 52 48 159q0 22 4 17q18 60 50 183q1 10 24 82q15 49 15 85q-56 -20 -81 -59l-92 -139q-3 -4 -10 -10q-20 -51 -73 -152q-8 -58 -65 -152l-11 -44q-15 -11 -11 -35q-34 -112 -27 -172z" />
<glyph unicode="&#x444;" horiz-adv-x="1137" d="M5 218q0 10 3 20l12 49q18 59 88 134q30 44 98 110q85 83 108 109q14 4 16 7q93 91 142 105q26 10 66 24q100 15 112 15q67 0 72 -43q-130 -26 -190.5 -56.5t-143.5 -112.5q-38 -37 -77 -72q-44 -45 -53 -78q-3 -5 -33.5 -34.5t-30.5 -40.5q0 -5 4 -9q-34 -30 -41 -103 q-4 -60 71 -99q67 -34 168 -38q24 85 53 174q1 -1 4 4q52 134 52 133q14 30 70 122q25 41 68 70h-12q49 20 146 65q11 5 18 10q51 -12 123 -30q1 0 2 -3q48 -12 71 -30q16 -7 26 -19q52 -18 71 -54q1 -3 21 -69q4 -14 4 -27q0 -33 -44 -107q-8 -19 -31 -53q-7 -8 -66 -60 q-31 -31 -108 -88q-23 -10 -67 -30q-49 -20 -151 -64q-4 -4 -12 -9q-44 -12 -141 -36q-29 -127 -52 -197q-25 7 -67 -253q-40 -248 -34 -291q1 -22 -23.5 -41t-51.5 -19q-41 0 -41 49q0 26 12 63q15 45 26 148q30 257 101 529q-22 4 -65 12q-98 15 -131 25q-64 19 -101 60 q-60 64 -61 129zM519 115q15 0 44 4q11 7 35 18q25 7 72 23q172 67 242 155q26 29 56 78q7 31 -23 73l-52 68q-15 4 -25 15l-112 38q-29 -11 -45 -29q-119 -130 -192 -443z" />
<glyph unicode="&#x445;" horiz-adv-x="884" d="M0 666q1 -4 1 -8q8 -5 19 -20q0 -11 17 -30l15 -7q1 -4 19 -10q18 -16 33 -23l16 -25q19 0 41 -26l27 -31l18 -14q-1 -7 2 -9l35 -32l100 -90q-1 -11 -2 -37l-15 -42q-7 -3 -7 -18q-4 -22 -8 -39q-1 -27 -7 -49v-81l13 -52q-3 -7 28 -23h50q5 4 15 22l-3 35q-8 18 -6 45 l6 52q3 7 7 19l30 69h8l48 -45l16 -6q3 -3 7.5 -10.5t13.5 -7.5l42 -27q4 -4 48 -38q76 -57 86 -57q8 0 17 2l18 8l32 2l23 15l19 23v12q-1 4 -6 9l-1 28l-44 26l-13 12l-40 20q-3 7 -7 15q-14 19 -69 47q-19 15 -43 32q0 5 -4 11l-19 13l-5 14l-56 49q-7 5 -7 7l12 45 q3 11 27 52l104 176l14 12l59 89l139 131l14 8l4 32l-21 28q-22 8 -45 9q-15 0 -31 -5l-13 5q-15 -8 -32 -37q-14 -15 -36 -23l-71 -104q-22 -33 -79 -92q-10 -22 -45 -71l-19 -37q-1 -3 -8 -9l-35 -59q-11 -8 -15 -35l-13 -29q-10 0 -6 -3q-8 5 -22 26q-27 0 -75 71l-51 45 q-7 5 -29 25l-17 43q-8 0 -21 9l-9 23l-32 23l-30 12q-8 3 -20 7q-10 -5 -31 -22l-34 -16q0 -8 -16 -27q-8 -10 -25 -32z" />
<glyph unicode="&#x446;" horiz-adv-x="782" d="M-4 131q0 -41 16.5 -60.5t31.5 -40.5q22 -22 43 -25.5t39 -3.5q52 0 113 48q35 26 56 33q70 71 176 222q12 33 36 59q20 31 39 64q29 46 41 40q-8 -35 -26 -78q-4 -27 -30 -132q-19 -76 -16 -131q1 1 2 1q1 -41 13 -63q14 -30 64 -35q7 -1 83 -2q3 0 3 -1 q0 -11 -43.5 -40.5t-72.5 -29.5q-16 0 -23 14q-23 56 -58 56q-45 0 -45 -55q0 -45 41 -71q35 -22 82 -22q29 0 55 7q57 16 104 88q41 66 40 114q0 40 -30 32q-44 -10 -71 -10q-42 0 -54 25q-1 16 -2 34q0 37 14 98q18 71 22 100q10 35 26 108q22 130 59 199q7 15 30 64 q-22 35 -51 36q-19 0 -39 -17q-7 -15 -15 -26q0 -1 -2 -1q-11 -60 -54 -106q0 -4 -3 -7q-53 -82 -160 -245q-5 -5 -7 -15q-48 -67 -95 -135q-60 -78 -119 -113q-33 -19 -92 -4q-31 33 -23 97q7 35 15 103q1 33 36 150.5t53 143.5q35 42 35 97q0 29 -12 70q-11 37 -48 26 q-16 -4 -30 -31q-1 -4 2 -45q3 -40 -13 -65q-8 -18 -83 -219q-44 -122 -49 -234q-1 -33 -4 -66z" />
<glyph unicode="&#x447;" horiz-adv-x="622" d="M5 431q4 10 11 81q1 12 24 59q18 41 58 121q7 19 13 45l23 40q37 12 39 14q16 1 35 -17q11 -11 6 -38q-3 -25 -12 -34q-25 -49 -64 -153q-14 -27 -40 -81q0 -11 7 -86q3 -7 41 -41q44 -14 72 -1q12 10 44 26q29 10 59 20q38 14 48 30q18 5 45 28q4 10 13 27q1 4 6 12 q12 56 37 168q4 10 11 30q4 12 11 36q10 5 5 20l8 19q8 7 18 24l34 13l42 -16l10 -11q1 -20 -12.5 -59t-10.5 -60q-8 -34 -29 -116q-4 -7 -10 -20q-8 -34 -38 -116q-5 -16 -9 -33q-10 -35 -10 -74q0 -94 52 -197q5 -14 5 -23q0 -23 -32 -39q-63 -34 -67 -37q-8 -1 -15 -4 q-42 127 -43 240q0 40 6 81q4 35 4 39q-4 3 -10 -4.5t-10 -14.5q-26 -8 -41 -19q-25 -18 -178 -60l-33 -2q-23 0 -83 48l-30 43q0 8 -7 16q-11 59 -3 76z" />
<glyph unicode="&#x448;" horiz-adv-x="1092" d="M-4 139q0 -41 16.5 -61.5t32.5 -40.5q22 -22 44 -25.5t38 -3.5q55 0 117 48q35 27 56 34q37 38 71 79q-4 -60 15 -84q14 -20 29 -40q19 -23 38 -26q52 -10 75 -4q30 4 66 34q19 16 52 38q56 64 161 231q16 45 33 66q18 33 35 65q27 48 38 40q-1 -35 -13 -81 q-26 -227 -18 -312q8 -27 20 -85q34 -29 31 -29q1 0 38 18q22 14 22 30q0 8 -10.5 28.5t-13.5 31.5q-7 31 -6 71q0 44 9 113q14 93 17 111q4 37 13 112q20 138 49 201q3 23 15 68q-20 35 -46 35q-18 0 -37 -16q-5 -15 -12 -27h-3q-10 -63 -49 -109q-1 -4 -3 -7 q-49 -83 -147 -250q-4 -4 -6 -15q-44 -68 -89 -138q-55 -79 -107 -115q-30 -20 -85 -5q-18 20 -18 53q0 25 15 77.5t17 75.5q0 34 36 153q35 113 51 139q48 63 48 108q0 34 -23.5 50.5t-40.5 10.5q-34 -11 -50 -116q-96 -137 -133 -368q-97 -141 -171 -186q-33 -19 -94 -4 q-25 26 -25 71q0 23 8.5 69.5t9.5 65.5q0 33 27 112q26 71 43 100q105 180 105 237q0 26 -23 26q3 0 -51 -15q-38 -10 -53 -114q-61 -79 -108.5 -215t-51.5 -243q-3 -33 -4 -67z" />
<glyph unicode="&#x449;" horiz-adv-x="1074" d="M-3 141q0 -41 16.5 -61.5t32.5 -41.5q22 -23 44.5 -26.5t39.5 -3.5q55 0 118 49q35 27 56 34q38 38 71 80q-5 -79 13 -105q15 -20 28 -41q19 -22 37.5 -25.5t33.5 -3.5q48 0 101 48q30 27 50 34q61 74 155 229q11 34 32 60q16 33 34 66q26 49 37 41q-7 -35 -24 -79 q-4 -29 -27 -137q-16 -79 -14 -135q1 0 3 1q1 -42 11 -65q12 -30 56 -36q5 -1 74 -1q3 0 3 -3q0 -11 -39 -41t-64 -30q-15 0 -20 14q-20 59 -52 58q-40 0 -40 -57q0 -44 34 -69q30 -26 75 -26q25 0 48 8q51 16 92 90q37 67 37 119q0 40 -28 31q-38 -11 -63 -11q-37 0 -47 26 l-2 36q0 38 13 101q16 73 19 103q10 35 23 110q19 135 52 206q5 14 26 65q-19 37 -44 37q-18 0 -35 -16q-7 -15 -13 -28h-2q-8 -63 -48 -110q0 -4 -2 -8q-48 -83 -142 -250q-4 -5 -5 -17q-42 -70 -85 -139q-53 -81 -105 -116q-22 -16 -38 -15q-7 0 -42 10q-27 34 -21 99 q7 38 14 108q1 34 32 154.5t46 147.5q31 44 31 101q0 29 -10 71q-10 38 -43 27q-14 -4 -26 -31q5 -35 -10 -115q-5 -12 -72 -224q-20 -64 -33 -132q-98 -143 -172 -187q-27 -16 -46 -17q-7 0 -49 11q-26 27 -26 73q0 23 8.5 69.5t8.5 65.5q1 37 38 157t54 145q64 75 64 121 q0 25 -18 36.5t-34 5.5q-40 -10 -55 -116q-63 -79 -110 -217t-51 -244q-3 -34 -4 -68z" />
<glyph unicode="&#x44a;" horiz-adv-x="783" d="M0 532q0 -51 30 -50q14 0 31 10q34 18 45 95.5t62 104.5q64 33 108 33q19 0 37 -5l-62 -179q0 -5 -5 -18q-20 -48 -21 -54t-35 -96q-14 -37 -14 -47l-24 -58l-18 -60q-3 -1 -6 -17l-12 -24q0 -4 -7 -17l-20 -34q7 -5 15 -19v-21l37 -27q0 -26 26 -38q10 -3 30 -11l2 3 q3 0 40 8q23 5 40 0l43 15q3 0 15 12l74 28q11 10 11 9l19 11q11 10 30 25l56 41q26 20 55 61l42 34l30 32l38 54l7 22q16 11 41 76l7 7l9 25q7 15 7 29l-1 35l-12 48q-15 14 -56 49q-18 16 -44 22q-15 4 -36 4q-49 0 -116 -33l-13 -15l-21 -8l-72 -67l-48 -49l-12 -10 l-14 -15q0 -12 -19 -20q-4 1 -7 3l12 20q0 5 11 31l14 36q3 -7 4 12q1 12 2 23q8 16 9 24.5t4 16.5l14 41q12 37 42 126q-20 29 -34 29q-280 -1 -347 -148q-23 -51 -23 -115zM224 112q0 16 18 55q4 1 9 8v8l13 31q3 8 10 19q0 7 3 20l22 53q4 7 19 27l15 18q1 1 19 26l37 49 l29 16l30 30l11 18l45 42q51 22 93 22l39 -17l17 -36l6 -9v-20q-3 -4 -12 -51q-7 -11 -24 -41q-5 -12 -28 -45l-31 -43q-15 -5 -19 -24q-11 -4 -18 -13l-34 -35l-82 -56q-4 -10 -19 -21l-26 -16q-23 -15 -51 -25q-20 -4 -67 -16l-21 7q-3 8 -3 19z" />
<glyph unicode="&#x44b;" horiz-adv-x="976" d="M0 117q7 -4 14 -16v-20l39 -28q0 -25 25 -37q11 -3 33 -11l1 3q3 0 41 8q23 4 41 0l44 15q4 0 16 11l74 28q12 10 12 8l19 11q11 10 30 24l57 40q27 19 56 60l44 33l30 31l40 52l7 22q16 11 42 74l7 6l9 24q7 15 7 27l-1 35l-13 47q-15 14 -57 48q-18 16 -44 22 q-16 4 -36 4q-52 0 -119 -33l-14 -14l-22 -8l-73 -64l-50 -49l-12 -10l-14 -14q0 -12 -19 -20q-4 1 -6 3l12 20q0 4 11 30l13 34q3 -5 4 13q1 11 3 21q8 16 9.5 24.5t4.5 16.5l14 40l53 154q-16 5 -52 11q-8 -8 -23 -19q-7 -4 -21 -11l-71 -232q0 -5 -5 -16q-22 -48 -22 -54 t-36 -94q-14 -35 -13 -45l-25 -56l-18 -58q-4 -1 -6 -17q-5 -8 -13 -23q0 -4 -7 -16zM138 115q0 15 18 53q4 1 9 7q0 5 2 8l12 31q3 8 11 19q0 5 3 18l21 52q3 7 19 26l17 18q1 1 19 24l38 48l29 17l30 30l11 16l46 41q52 22 94 22l41 -18l17 -34l7 -10v-17l-13 -52 q-7 -11 -24 -40q-7 -11 -29 -44l-31 -41q-15 -5 -21 -23q-10 -5 -18 -12l-34 -36l-83 -53q-4 -10 -20 -20l-26 -15q-23 -15 -52 -25q-20 -4 -69 -16l-21 8q-3 8 -3 18zM674 169q19 126 61 247l17 55q17 50 52 141q5 20 12 47q18 42 13 61q5 29 15 60q12 12 24 23q3 3 30 4 q3 0 7 2.5t7 2.5q25 -1 34 -23q14 -31 22 -38q-1 -4 -35 -77q-29 -55 -76 -165l-24 -78q-48 -152 -60 -245q-4 -34 7 -69q14 -44 42 -43q10 0 9 -11q0 -42 -34 -55q-27 -8 -43 -8q-25 0 -39.5 20t-27.5 41q-22 48 -13 108z" />
<glyph unicode="&#x44c;" horiz-adv-x="716" d="M0 115q7 -5 15 -18v-21l40 -27q0 -26 26 -38q10 -3 31 -11l3 3q3 0 41 8q25 4 42 0l44 15q4 0 17 11l76 29q11 10 10 8l21 11q12 11 31 26l58 39q29 19 57 62l45 32l31 32l40 53l7 23q16 11 42 75l8 7l10 25q7 15 7 27l-2 36l-12 47q-16 14 -59 49q-19 15 -45 22 q-16 4 -38 4q-52 0 -120 -32l-15 -15l-22 -9l-74 -65l-50 -51l-12 -9l-15 -14q0 -12 -20 -20q-4 1 -6 2l12 21q0 4 11 31l15 34q3 -5 4 14q1 11 1 22q8 16 10.5 24.5t4.5 16.5l14 41l55 157q-27 -4 -55 -6q-22 -10 -44 -13l-72 -238q0 -5 -6 -16q-22 -49 -21.5 -54.5 t-35.5 -95.5q-15 -37 -15 -45l-24 -59l-20 -59q-3 -3 -7 -14.5t-10 -26.5q0 -4 -9 -16zM141 111q0 16 17 54q4 1 10 7q0 5 1 8l13 33q3 8 12 19q0 5 3 18l21 53q4 7 20 26l16 19q1 1 20 25l39 49l28 16l32 30l12 17l46 42q52 23 97 23l41 -19l17 -34l8 -10v-19 q-3 -4 -14 -52q-7 -11 -26 -39q-5 -12 -27 -45l-33 -43q-15 -5 -20 -24q-11 -4 -19 -12l-36 -36l-83 -55q-5 -10 -21 -20l-27 -16q-23 -14 -53 -24l-68 -17l-24 8q-3 8 -2 18z" />
<glyph unicode="&#x44d;" horiz-adv-x="742" d="M0 138q5 -25 11 -75l5 -3q5 -29 33 -42q25 -8 51 -18l2 3q3 0 50 9q29 7 50 2q26 7 70 31l86 36q7 1 12 9l22 14q12 12 33 31l61 49q30 23 57 74q16 12 47 40q23 25 63 97h26q1 0 29 -5t44 -5q27 0 28 14q0 11 -21 30q-8 12 -28 14t-21 6q-18 -4 -38 -5q12 22 24 78 q25 30 15 72q-3 15 -8 44l-27 57q-22 18 -82 60q-45 31 -104 31q-68 0 -145 -39l-15 -18l-24 -11q-30 -29 -85 -89q8 -7 17 -13q10 -51 58 -63q5 5 17 19l9 21l49 50q59 29 114 29l54 -23q12 -18 40 -54q14 -71 12 -103q-5 -11 -20 -46q-60 4 -86 5q-18 0 -49 -5 q-37 -5 -51 -5t-41 -3q-49 -16 -157 -30q-11 -8 -22.5 -13t-19 -8t-14.5 -6.5t-12 -6.5q4 -12 7 -23q1 -4 4 -7q8 -15 16 -31h33q11 7 35 17q145 48 327 59q-11 -18 -30 -52q-25 -10 -28 -48q-14 -5 -56 -42q-46 -41 -88 -72q-3 -10 -22 -18q-27 -11 -30 -12 q-26 -18 -67 -26q-68 -14 -74 -15l-29 9q-16 27 2 89q7 3 9 19q-48 38 -79 18q-12 -1 -29 -11q-3 -29 -13 -55z" />
<glyph unicode="&#x44e;" horiz-adv-x="953" d="M0 235q-1 12 3.5 33t0.5 32l66 157q3 1 8 11q1 4 5 10l13 33l6 13q45 63 97 161q7 4 10 7l33 55q7 3 11 8q20 38 43 46q27 18 37 25h22q7 -14 26 -30l7 -15l-4 -30l50 -14q3 1 7 2l98 -40q11 -23 22 -27q20 0 30 -28q20 -14 25 -24l18 -48q-3 -11 -2 -33q1 -5 3 -22 q1 -12 -1 -16q0 -14 -2 -29q31 1 92 6q22 63 53 142q5 22 12 49q19 42 12 61q5 29 15 62q12 12 26 23q3 3 30 4q3 0 8 3t7 3q25 -1 35 -25q14 -31 21 -37q-1 -5 -35 -79q-30 -55 -77 -168l-9 -26q14 3 25 7q14 -1 34 -4q14 -1 21 -10q25 -18 25 -28q0 -15 -49 -17h-57 l-15 -1q-49 -157 -61 -250q-4 -34 7 -70q14 -45 43 -45q10 0 9 -11q0 -44 -35 -54q-26 -10 -44 -10q-25 0 -39 20.5t-29 42.5q-22 49 -13 111q19 116 62 250q-33 -4 -92 -15l-11 -28l-20 -54l-41 -63l-15 -23q-7 -15 -16 -26l-34 -41l-40 -33q-4 -10 -8 -12l-33 -22l-48 -32 q-3 -4 -7 -9q-57 -23 -84 -40q-53 -11 -69 -11l-38 13l-31 8l-23 11q-40 10 -71 69q-1 15 -15 59q-11 37 -10 63zM97 274q5 -98 60 -128q68 -20 72 -19q22 3 47 11l30 7l20 19l43 23l71 55q14 26 35 35l25 42l15 29l9 23l7 13q-27 -8 -59 -19q-3 -1 -35 -15q-11 -8 -36 -22 q-11 -1 -35 -4q-10 15 -22 28q-1 4 -4 7q-5 11 -11 22q7 4 13 8t14.5 9t16.5 10q15 7 26 15q16 3 37 6q5 3 21 9q15 3 45 8q14 3 51 11q0 19 -6 33l-21 55l-9 30q-8 4 -12 16l-56 36q-1 3 -1 8l-63 16q-3 3 -12 3q-16 0 -47 -5q-3 -4 -5 -5q-4 0 -7 3q-4 -1 -19 -1 q-12 -10 -42 -34l-15 -24q-3 -3 -28 -43q-31 -52 -41 -82q0 -10 -1 -12q-18 -23 -23 -39q-8 -34 -7 -35l-16 -25q-1 -8 -25 -78z" />
<glyph unicode="&#x44f;" horiz-adv-x="806" d="M0 201q1 -19 8 -41q15 -48 17 -60q30 -59 69 -69l23 -11l30 -6l40 -14q15 0 67 12q27 15 83 39l7 8l48 32l31 22q5 3 10 13l39 31l35 41q8 11 15 26l16 22l40 63l5 15q15 -202 83 -250q19 -14 54 -34q11 -14 35 -17h36q8 -1 27 -1q1 4 6.5 7.5t6.5 7.5q-1 5 -1 14l-7 10 l-60 22l-49 47l-29 61q-15 164 -15 180q0 57 15 96q1 5 10 55q3 10 7 12l18 37q-1 4 -3 8q19 41 15 53l8 34l4 43l4 19q-1 4 -3 13q4 18 -1 28q-26 23 -55 26h-12h-11q-16 0 -75 -6q-11 -5 -27 -9l-40 -22l-26 -28q-7 -5 -15 -9l-35 -33l-38 -31l-35 -37l-24 -34l-23 -29 q-18 -29 -39 -70q-11 -23 -10 -28l-32 -96l-5 -30q-1 -12 1 -27q4 -45 31 -55q55 -7 104 10q14 5 44 15l30 23l33 29q5 1 38.5 29.5t33.5 31.5q0 -16 -11 -31q-16 -26 -22 -39l-20 -13l-22 -40q-22 -11 -37 -39l-72 -62l-49 -15l-21 -19l-42 -18q-23 -14 -43 -13 q-23 0 -64 23q-33 18 -65 89q-38 33 -81 -11h-8zM328 328l1 39q-3 8 -1 18q0 5 1 12q11 26 26 70l49 83q7 12 51 63q8 10 28 25l51 56q4 0 8 2l30 22q7 -1 15 4l41 8q3 -1 4 -4q37 -19 34 -61l-2 -36q-4 -23 -22 -53l-70 -35q-19 -42 -33 -64q-26 -42 -53 -67l-19 -18 l-22 -21q-34 -23 -48 -31q-27 -15 -54 -18q-12 -3 -15 6z" />
<glyph unicode="&#x451;" horiz-adv-x="619" d="M5 218q0 -82 66 -151q64 -67 147 -67q78 0 257 83q74 57 119 82q24 15 38 45q4 41 -29 41q-10 0 -12 -12q-12 -22 -45 -37q-8 -4 -20.5 -11t-32.5 -18q-29 -14 -58 -26t-58 -27q-81 -37 -126 -37q-131 0 -131 216q23 12 36 19l12 6q10 1 22 1q20 15 36 26t25 22 q66 57 103 71q4 4 6 7.5t5 4.5q53 40 81.5 62.5t34.5 27.5q60 52 94 111q20 37 12 61q-25 78 -119 78q-57 0 -106 -20q-116 -49 -156 -108q-25 -27 -43 -46.5t-31 -31.5q-29 -57 -51 -99.5t-39 -71.5q-37 -79 -37 -201zM152 430q0 12 17 41q101 165 175 206q51 33 96 33 q29 0 28 -25q0 -25 -17 -38q-27 -25 -32 -35q-8 -12 -18.5 -22.5t-19.5 -20.5q-8 -4 -20.5 -12t-31.5 -19q0 -4 -65 -46q-70 -45 -87 -54q-14 -15 -24 -15q-1 0 -1 7zM165 881l21 -50l80 -10l47 64l-47 67l-48 -9l-21 -17l-28 -15zM385 939l21 -49l79 -9l47 62l-47 69 l-47 -8l-23 -20l-26 -13z" />
<glyph unicode="&#x2000;" horiz-adv-x="932" />
<glyph unicode="&#x2001;" horiz-adv-x="1865" />
<glyph unicode="&#x2002;" horiz-adv-x="932" />
<glyph unicode="&#x2003;" horiz-adv-x="1865" />
<glyph unicode="&#x2004;" horiz-adv-x="621" />
<glyph unicode="&#x2005;" horiz-adv-x="466" />
<glyph unicode="&#x2006;" horiz-adv-x="310" />
<glyph unicode="&#x2007;" horiz-adv-x="310" />
<glyph unicode="&#x2008;" horiz-adv-x="233" />
<glyph unicode="&#x2009;" horiz-adv-x="373" />
<glyph unicode="&#x200a;" horiz-adv-x="103" />
<glyph unicode="&#x2010;" d="M74 567l24 90q25 18 141 23q124 5 160 18q100 34 325 27q26 -7 76 -23l30 -36l14 -97q-22 -4 -55 0q-25 3 -104 24q-64 16 -105 16q-56 0 -101 -25q-61 -1 -175 -45.5t-174 -45.5l-18 8z" />
<glyph unicode="&#x2011;" d="M74 567l24 90q25 18 141 23q124 5 160 18q100 34 325 27q26 -7 76 -23l30 -36l14 -97q-22 -4 -55 0q-25 3 -104 24q-64 16 -105 16q-56 0 -101 -25q-61 -1 -175 -45.5t-174 -45.5l-18 8z" />
<glyph unicode="&#x2012;" d="M74 567l24 90q25 18 141 23q124 5 160 18q100 34 325 27q26 -7 76 -23l30 -36l14 -97q-22 -4 -55 0q-25 3 -104 24q-64 16 -105 16q-56 0 -101 -25q-61 -1 -175 -45.5t-174 -45.5l-18 8z" />
<glyph unicode="&#x2013;" horiz-adv-x="1082" d="M74 567l32 90q33 18 187 23q165 5 213 18q133 34 432 27q35 -7 101 -23l40 -36l19 -97q-29 -4 -73 0q-33 3 -138 24q-86 16 -140 16q-75 0 -134 -25q-82 -1 -233.5 -45.5t-231.5 -45.5l-23 8z" />
<glyph unicode="&#x2014;" horiz-adv-x="1686" d="M33 603l49 91q79 25 291 24q224 0 316 17q194 34 660 27q51 -7 154 -23l62 -36l28 -97q-59 -4 -110 0q-46 4 -213 23q-141 16 -213 17q-111 0 -205 -25q-119 -1 -353.5 -45.5t-353.5 -45.5l-37 8z" />
<glyph unicode="&#x2018;" horiz-adv-x="353" d="M91 1140l25 68q-1 4 5.5 16.5t6.5 13.5q4 7 30 70q7 8 30 63q18 42 39 52l21 5l32 -18l15 -26l24 -31q0 5 -71 -136q0 -18 -23 -74q-18 -44 -7 -79q26 -16 24 -71q-1 -1 -13 -17q-19 -26 -39 -19q-60 22 -92 60z" />
<glyph unicode="&#x2019;" horiz-adv-x="477" d="M299 1399l11 39l48 4l8 -10q11 -7 31 -20q3 -5 24 -32q4 -7 8 -26l23 -106q-3 -46 12 -74v-68q0 -38 -9 -66q0 -9 5 -24l-29 -15l-12 4l-30 -8l-22 1l-22 12q-4 4 -15 47l17 49q0 85 -11 132l-17 25q4 7 5 19q-15 23 -15 61q0 12 1 26z" />
<glyph unicode="&#x201c;" horiz-adv-x="648" d="M10 950l9 36l6 27l1 26l4 40q11 37 11 45q0 3 5.5 19t2.5 20q5 10 7 21l75 198l52 42l56 -29l8 -17q-5 -35 -59 -108q-11 -22 -36 -66q-11 -68 -36 -114q-22 -81 -22 -162l12 -19l-10 -50l-15 -18l-21 1q-5 18 -34 36zM60 842q-5 1 0 2v-2zM434 1117l12 71q-1 5 3 17.5 t4 15.5q0 -15 18 73q5 11 19 67q11 45 29 58l20 9l34 -12l20 -23l28 -26q0 -25 -8 -34q-15 -37 -37 -114q3 -19 -9 -71q-12 -51 5 -84q29 -12 36 -66q-3 -4 -10 -19q-14 -29 -35 -25q-64 11 -100 43z" />
<glyph unicode="&#x201d;" horiz-adv-x="831" d="M206 1238l15 17l33 22l8 1q20 -5 64 -36q3 -3 34 -20l41 -141q0 -1 9 -23q5 -11 6 -23q5 -16 18 -51q3 -22 3 -30q-1 -11 -8 -16l-47 -7l-32 12q-5 11 -21 32q-4 5 -14 9l-9 52q-7 7 -14 10l-4 3h-1q3 3 2 46l-15 25l-10 34q-10 7 -17 8q0 27 -24 45l-13 27zM618 1414 l24 32l47 4l9 -10q11 -7 31 -20q3 -3 33 -37q1 -7 -2 -20l24 -107q-3 -46 12 -74v-68q0 -38 -10 -65q1 -10 6 -25l-29 -15l-12 4l-30 -8l-11 5l-10 13q-7 7 -19 54q3 20 3 45q0 53 -16 125l-17 24q4 7 4 19q-15 23 -15 62q0 12 2 26z" />
<glyph unicode="&#x202f;" horiz-adv-x="373" />
<glyph unicode="&#x205f;" horiz-adv-x="466" />
<glyph unicode="&#xe000;" horiz-adv-x="880" d="M0 0v881h881v-881h-881z" />
</font>
</defs>
</svg>
